<svg width="579" height="434" viewBox="0 0 579 434" fill="none" xmlns="http://www.w3.org/2000/svg">
<path d="M263.785 386.187C246.947 386.225 230.109 386.525 213.3 387.917C206.963 388.441 200.759 389.595 194.406 390.061C181.718 390.99 169.258 392.724 156.525 393.524C146.271 394.169 135.975 394.549 125.751 395.366C116.166 396.133 105.554 395.956 96.0428 394.69C89.0014 393.752 81.9277 393.224 75.0043 391.72C67.2598 390.035 58.8451 388.832 50.7761 388.875C39.2694 388.937 28.064 388.943 17.052 391.917C13.1863 392.961 8.45461 394.677 5.5192 396.867C-1.20056 401.881 -2.11026 414.394 4.59959 419.595C15.9002 428.348 40.0193 431.782 55.8598 431.944C73.2176 432.122 90.08 431.163 107.464 430.599C123.616 430.075 139.729 429.33 155.908 429.356C188.953 429.41 222.002 429.356 254.988 427.713C285.978 426.17 317.047 426.699 348.106 426.699C379.955 426.699 411.589 426.886 443.207 430.036C456.985 431.409 471.02 431.889 484.866 432.851C497.266 433.712 509.182 432.834 521.534 432.038C531.905 431.369 542.208 429.387 551.63 426.036C559.088 423.384 572.384 415.143 574.671 408.812C581.083 391.062 484.307 391.489 469.447 391.529C452.825 391.573 436.071 391.98 419.461 391.509C412.475 391.31 405.591 390.294 398.772 389.18C391.98 388.071 385.136 388.353 378.249 387.888C349.526 385.943 320.739 386.228 291.924 386.228C282.549 386.228 273.166 386.166 263.785 386.187" fill="#DADBD8" fill-opacity="0.2"/>
<path d="M97.6591 299.477C97.0172 298.536 96.2681 297.604 95.2337 297.163C94.588 296.888 93.8768 296.826 93.1787 296.788C89.7278 296.602 86.5898 297.425 83.2095 297.665C80.5437 297.855 78.7203 297.511 77.1747 300.318C76.3385 301.838 76.0482 303.589 75.7749 305.301C72.606 325.145 70.0134 345.075 67.4201 365.002C66.8016 369.761 66.1825 374.519 65.5633 379.277C65.3203 381.142 65.078 383.007 64.8356 384.872C63.7602 393.137 62.6848 401.404 61.6087 409.67C61.4131 411.178 60.6873 412.442 60.1887 413.807L60.1584 413.809L51.2924 420.14L49.6729 423.027L53.5411 424.897L62.5062 423.238L68.6931 419.041L68.7802 415.278C68.7947 413.896 68.9323 412.584 69.2491 411.234C69.8676 408.599 70.842 406.029 71.6972 403.464C72.9841 399.086 74.3214 394.723 75.6228 390.348C78.4591 380.814 81.2297 371.259 83.97 361.695C86.7892 351.855 89.9594 342.114 92.8884 332.307C95.5549 323.379 103.4 307.9 97.6591 299.477Z" fill="#3B455A"/>
<path d="M131.439 305.319C133.304 305.743 135.079 306.584 136.465 307.893C140.886 312.064 138.165 318.291 137.402 323.408C136.419 329.993 135.893 336.632 135.714 343.285C135.362 356.367 134.834 369.445 134.13 382.513C133.567 392.963 130.153 406.451 132.755 416.637L136.494 423.125L134.815 425.185L128.557 424.651C127.715 424.579 124.892 419.668 124.66 418.707C123.829 415.27 124.677 411.855 124.214 408.446C123.839 405.689 122.78 402.861 122.276 400.033C121.487 395.605 120.721 391.173 119.988 386.735C118.551 378.031 117.243 369.305 116.135 360.552C114.725 349.414 113.315 338.276 111.905 327.138C111.301 322.368 110.105 318.858 113.002 314.819C115.64 311.142 119.14 307.48 123.461 305.873C125.596 305.079 127.926 304.81 130.187 305.098C130.606 305.152 131.025 305.225 131.439 305.319" fill="#3B455A"/>
<path d="M140.019 327.609C136.762 327.661 133.504 327.625 130.261 327.342C122.965 326.705 115.837 325.118 108.468 325.137C107.688 321.069 106.435 316.833 106.078 312.738C105.675 308.13 106.567 303.302 106.767 298.692C107.242 287.767 108.023 276.855 109.11 265.974C118.821 265.595 128.469 266.677 138.134 266.627C140.59 266.614 143.968 265.952 145.114 268.206C146.772 271.47 146.074 275.841 146.493 279.38C147.133 284.777 147.63 290.166 147.773 295.602C148.054 306.272 147.236 316.971 145.324 327.473C143.556 327.527 141.787 327.581 140.019 327.609" fill="#C5CCD3"/>
<path d="M72.6281 325.355C70.3775 325.125 68.1314 324.857 65.8909 324.549C65.1102 324.443 64.2828 324.309 63.6921 323.789C62.5983 322.824 62.8356 321.088 63.1651 319.667C66.3188 306.062 69.4056 292.441 72.6262 278.853C73.14 276.688 78.1208 254.79 79.402 254.776C88.4699 254.87 97.5373 254.964 106.605 255.058C107.427 255.066 108.32 255.1 108.951 255.627C109.575 256.149 109.77 257.012 109.921 257.812C112.202 269.876 113.763 282.265 114.61 294.491C115.333 304.928 109.549 314.514 104.425 323.361C103.905 324.259 103.335 325.192 102.43 325.701C101.617 326.159 100.644 326.21 99.7109 326.244C90.677 326.57 81.621 326.272 72.6281 325.355" fill="#C5CCD3"/>
<path d="M226.2 148.375C226.119 147.887 226.056 147.396 225.998 146.909C224.847 137.237 225.674 128.228 226.119 118.663C226.477 110.942 227.484 102.004 233.564 96.4964C234.496 95.6532 239.053 91.8002 234.808 91.4317C233.773 91.3414 232.76 92.2509 232.74 93.2903C234.208 90.7829 235.283 88.0463 235.915 85.2107C236.008 84.7904 236.089 84.3353 235.915 83.9409C235.778 83.631 235.503 83.4076 235.238 83.1962C234.221 82.3858 233.205 81.5761 232.189 80.7663C232.048 80.654 231.893 80.536 231.713 80.5297C231.501 80.5215 231.318 80.6691 231.157 80.8086C229.345 82.3776 227.533 83.9466 225.72 85.5168C222.654 88.1751 223.791 92.4812 223.208 95.9783C222.556 99.8944 221.091 101.636 219.36 104.922C214.484 114.177 211.601 124.612 209.367 134.83C208.454 139.007 207.695 143.299 208.219 147.542C208.804 152.279 210.951 156.676 213.353 160.801C216.382 166.354 220.146 171.739 224.343 176.466C226.616 179.026 229.087 181.329 231.81 183.402C234.498 185.448 235.433 187.418 237.092 190.436C237.304 190.822 237.53 191.223 237.898 191.464C238.943 192.15 240.264 191.185 241.12 190.274C246.171 184.9 250.777 179.106 254.874 172.972C255.488 172.053 256.104 171.094 256.31 170.006C256.729 167.799 255.314 165.58 253.457 164.316C251.6 163.052 249.358 162.521 247.197 161.904C241.49 160.273 236.004 157.872 230.931 154.788C229.595 153.975 228.249 153.078 227.39 151.771C226.724 150.758 226.403 149.58 226.2 148.375" fill="#EFBFA5"/>
<path d="M312.975 156.728C319.627 153.115 319.248 145.423 320.791 136.13C322.348 126.75 325.074 113.97 318.799 105.671C318.042 104.669 314.283 100.033 318.521 100.463C319.555 100.567 320.38 101.649 320.208 102.674C319.232 99.9375 318.686 97.0482 318.594 94.1444C318.581 93.7139 318.586 93.2513 318.83 92.8966C319.023 92.6177 319.335 92.4492 319.635 92.2914C320.784 91.6849 321.934 91.0784 323.083 90.4725C323.243 90.3886 323.417 90.3015 323.595 90.3286C323.805 90.3608 323.958 90.5394 324.09 90.7067C325.577 92.5855 327.064 94.465 328.553 96.3458C331.07 99.5291 329.15 103.547 329.07 107.092C328.981 111.061 330.097 113.046 331.184 116.597C334.249 126.599 335.137 137.388 335.426 147.843C335.544 152.117 335.49 156.475 334.184 160.547C332.727 165.091 329.797 169.011 326.668 172.615C319.973 180.329 310.527 189.681 300.528 192.891C282.558 198.657 282.66 162.458 299.08 159.295C301.07 158.911 303.116 158.968 305.136 158.788C308.495 158.49 311.034 157.783 312.975 156.728" fill="#EFBFA5"/>
<path d="M288.503 340.362L287.315 366.721C286.688 374.016 286.898 381.341 286.894 388.65C286.891 395.438 285.099 402.326 287.921 408.793C288.807 410.82 290.864 412.322 292.633 410.151C293.996 408.479 293.605 405.415 294.041 403.403C297.31 388.282 302.565 373.662 305.671 358.501C308.925 342.62 302.701 342.661 288.503 340.362" fill="#EFBFA5"/>
<path d="M286.077 404.161L284.114 408.45L291.993 416.295L299.606 417.079L302.322 413.204L292.607 403.648L286.077 404.161Z" fill="#3B455A"/>
<path d="M244.128 339.236L246.887 365.479C247.637 377.18 250.529 388.745 251.28 400.447C251.452 403.138 251.03 406.033 251.944 408.63C252.838 411.171 254.96 411.436 256.97 409.918C259.664 407.885 258.816 403.806 259.011 400.754C260.303 380.425 263.478 360.534 265.466 340.226C265.492 339.96 265.504 339.654 265.311 339.468C265.155 339.317 264.916 339.301 264.698 339.298C262.713 339.274 244.188 339.803 244.128 339.236" fill="#EFBFA5"/>
<path d="M258.717 405.241L261.047 409.342L253.884 417.846L246.369 419.292L243.325 415.67L252.167 405.301L258.717 405.241" fill="#3B455A"/>
<path d="M311.097 357.646L316.533 320.47C315.022 299.124 305.735 277.533 304.255 256.112C304.161 254.747 304.005 253.244 303.011 252.302C302.241 251.573 301.135 251.35 300.089 251.175C290.15 249.52 280.018 249.526 269.94 249.537C260.118 249.546 240.826 247.451 235.91 257.115C230.854 267.053 232.334 289.394 231.938 300.641C231.318 318.239 231.173 338.615 233.047 356.128L271.187 355.497L274.394 314.035L280.191 341.066L279.946 357.646H311.097Z" fill="#C4C9CE"/>
<path d="M297.832 167.286C297.309 165.846 296.587 164.368 295.61 162.801C291.423 156.093 278.404 151.456 270.555 152.503C263.774 153.408 257.112 153.512 250.73 156.322C245.937 158.433 241.595 165.283 239.132 169.557C230.667 184.244 234.105 202.213 234.121 218.409C234.129 226.947 233.301 235.531 232.954 244.06C232.725 249.632 232.518 255.209 232.485 260.786C232.474 262.767 231.516 269.034 232.982 270.695C234.268 272.151 242.469 270.643 244.937 270.567C250.98 270.379 257.025 270.291 263.071 270.304C270.235 270.319 277.399 270.475 284.557 270.772C291.907 271.08 298.676 272.591 306.043 270.924C306.997 270.709 308.001 270.406 308.627 269.664C309.466 268.668 309.367 267.221 309.219 265.934C307.669 252.392 305.757 238.891 303.485 225.45C302.433 219.219 300.267 212.478 300.207 206.172C300.156 200.848 300.243 195.533 299.881 190.136C299.398 182.98 300.3 174.064 297.832 167.286" fill="#EBB044"/>
<path d="M284.403 116.004C286.051 118.892 286.846 122.219 286.992 125.542C287.031 126.426 287.092 127.446 287.806 127.968C288.571 128.526 287.899 129.751 288.48 129.005C289.062 128.257 291.037 125.663 291.125 124.72C291.334 122.512 291.331 120.284 291.116 118.075C290.93 116.156 290.537 114.15 289.281 112.686C288.536 111.818 287.542 111.208 286.562 110.616C285.143 109.759 283.68 108.893 282.049 108.59C279.238 108.066 277.515 109.074 279.995 111.034C281.771 112.438 283.274 114.024 284.403 116.004" fill="#32376B"/>
<path d="M266.842 153.696C266.86 155.055 266.582 156.466 267.781 157.52C268.358 158.027 269.138 158.231 269.896 158.351C271.857 158.662 273.888 158.518 275.785 157.933C276.565 157.693 277.344 157.366 277.932 156.801C278.629 156.133 278.663 155.5 278.697 154.624C278.737 153.599 278.943 152.557 279.077 151.518C279.37 149.245 279.503 146.952 279.568 144.662C282.936 144.084 286.897 142.995 288.048 139.467C288.411 138.356 288.424 137.148 288.432 135.965C288.468 131.078 288.504 126.19 288.54 121.303C288.552 119.613 288.556 117.871 287.977 116.302C286.961 113.549 284.381 111.909 281.849 110.877C275.391 108.242 267.863 108.347 261.902 112.094C260.315 113.091 258.818 114.374 257.904 116.115C256.494 118.8 256.672 122.115 256.891 125.213C257.093 128.072 257.295 130.932 257.497 133.792C257.729 137.08 258.223 140.866 260.777 142.603C262.134 143.525 263.886 143.695 265.054 144.889C267.094 146.972 266.122 150.084 266.725 152.608C266.81 152.962 266.836 153.327 266.842 153.696Z" fill="#EFBFA5"/>
<path d="M277.428 140.899C275.672 142.079 273.739 142.142 271.783 141.553C270.952 141.304 271.304 139.908 272.138 140.159C273.758 140.647 275.288 140.634 276.748 139.652C277.484 139.158 278.158 140.408 277.428 140.899ZM289.618 134.017C289.563 133.111 289.167 130.455 287.805 132.124C287.447 132.561 287.36 133.177 287.338 133.758C287.315 134.34 287.342 134.938 287.159 135.485C286.739 136.74 285.349 137.312 284.111 137.29C283.618 137.281 283.117 137.201 282.682 136.953C282.259 136.712 281.922 136.33 281.596 135.954C280.801 135.042 280.006 134.13 279.212 133.218C277.845 131.651 275.137 132.329 273.296 132.569C271.174 132.846 269.053 133.486 267.32 134.882C267.144 135.023 266.974 135.171 266.802 135.319C266.384 135.678 265.964 136.036 265.479 136.272C263.841 137.069 261.812 136.237 260.664 134.745C260.137 134.061 259.647 133.182 258.83 133.067C258.19 132.978 257.568 133.436 257.239 134.034C256.912 134.633 256.823 135.346 256.779 136.039C256.618 138.564 256.965 141.167 258.059 143.406C260.433 148.262 265.02 148.858 269.631 148.749C271.453 148.706 273.275 148.663 275.098 148.62C278.43 148.541 281.951 148.403 284.759 146.467C287.234 144.758 288.706 141.853 289.31 138.811C289.621 137.24 289.714 135.619 289.618 134.017" fill="#3B455A"/>
<path d="M290.313 107.533C290.635 106.349 290.873 105.142 291.025 103.924C289.897 104.319 288.669 104.424 287.491 104.226C287.488 103.524 287.485 102.821 287.482 102.118C287.477 101.534 279.57 101.124 278.927 101.071C272.912 100.578 267.411 100.109 261.971 103.337C257.326 106.094 254.347 110.212 253.634 115.572C252.953 120.693 254.628 127.381 257.59 131.631C257.573 130.268 256.789 127.052 257.11 125.757C257.307 124.458 257.756 123.207 258.375 122.05C259.61 119.743 261.525 117.8 263.736 116.414C267.261 114.205 271.361 113.037 275.454 112.467C279.206 111.944 283.777 111.462 287.482 112.455C289.263 112.933 289.558 113.38 290.638 111.582C290.828 111.265 292.335 107.564 292.188 107.562C291.564 107.552 290.939 107.543 290.313 107.533" fill="#3B455A"/>
<path d="M308.15 152.436C309.188 152.165 310.281 151.87 311.314 152.158C312.514 152.493 313.361 153.538 314.095 154.544C318.993 161.253 322.642 168.87 324.801 176.89C325.098 177.991 325.359 179.192 324.911 180.24C324.554 181.074 323.806 181.662 323.102 182.236C312.822 190.612 306.414 203.053 295.937 211.181C293.937 200.786 292.531 190.277 291.728 179.722C291.392 175.321 291.149 170.844 289.674 166.685C288.177 162.467 280.224 157.355 284.388 154.379C285.924 153.281 293.731 154.621 295.818 154.47C299.978 154.17 304.114 153.488 308.15 152.436" fill="#EBB044"/>
<path d="M259.498 155.582C259.345 155.112 259.137 154.649 258.797 154.292C258.068 153.526 256.914 153.397 255.861 153.297C251.396 152.876 246.959 152.149 242.592 151.125C240.035 150.526 236.463 148.73 233.333 147.764C233.156 147.543 232.973 147.326 232.799 147.102C232.586 146.828 232.376 146.551 232.168 146.272C231.13 144.875 229.66 145.919 228.283 147.448C225.945 148.383 224.652 151.232 223.102 153.133C220.549 156.265 216.86 158.698 213.861 161.396C213.249 161.941 212.594 162.57 212.531 163.386C212.48 164.06 212.85 164.685 213.208 165.258C221.613 178.761 230.018 192.263 238.423 205.766C238.091 205.232 247.615 189.969 248.42 188.118C250.445 183.466 251.301 178.084 253.452 173.578C253.898 172.644 258.31 167.175 257.514 164.934C257.863 164.38 258.193 163.814 258.489 163.229C259.681 160.875 260.315 158.091 259.498 155.582" fill="#EBB044"/>
<path d="M205.139 45.9022L236.794 49.848C237.912 48.2708 239.779 47.3425 241.76 47.5892L325.31 58.004C327.291 58.2508 328.872 59.6096 329.57 61.4127L361.224 65.3585L357.042 98.9292L325.732 95.0263C324.719 97.0446 322.598 98.3094 320.324 98.0267L236.774 87.6119C234.5 87.3285 232.755 85.5809 232.268 83.3764L200.957 79.4736L205.139 45.9022" fill="#474EBB"/>
<path d="M418.584 73.6387L415.478 72.2111C415 71.9915 414.512 71.8893 414.027 71.8703L417.37 45.0344C418.379 36.927 412.578 29.5289 404.411 28.5109L402.567 28.2806C394.99 27.3364 388.044 32.2156 386.272 39.3991C386.316 32.0004 380.779 25.5655 373.203 24.6207L371.358 24.391C363.191 23.373 355.752 29.1206 354.741 37.2274L343.759 125.392C342.749 133.5 348.551 140.898 356.719 141.916L358.563 142.146C366.139 143.09 373.086 138.211 374.858 131.028C374.814 138.426 380.35 144.862 387.926 145.806L389.771 146.036C397.938 147.053 405.378 141.306 406.387 133.199L409.73 106.362C410.205 106.463 410.703 106.484 411.221 106.388L414.583 105.767C417.028 105.316 419.059 102.617 419.477 99.263L421.733 81.146C422.151 77.7922 420.845 74.6769 418.584 73.6387" fill="#474EBB"/>
<path d="M209.671 4.237L207.827 4.00664C200.25 3.06248 193.303 7.94169 191.532 15.1251C191.576 7.72648 186.039 1.29094 178.463 0.346778L176.618 0.117041C168.451 -0.900961 161.011 4.84604 160.002 12.9541L156.659 39.7901C156.184 39.6891 155.686 39.6689 155.169 39.7642L151.807 40.3852C149.361 40.8365 147.331 43.5364 146.913 46.8896L144.656 65.0072C144.239 68.3597 145.546 71.4756 147.805 72.5138L150.911 73.9414C151.39 74.161 151.878 74.2633 152.362 74.2822L149.019 101.118C148.009 109.226 153.811 116.624 161.979 117.642L163.823 117.872C171.4 118.816 178.346 113.936 180.118 106.753C180.074 114.151 185.61 120.587 193.187 121.532L195.031 121.762C203.199 122.78 210.638 117.032 211.648 108.925L222.63 20.7604C223.64 12.653 217.838 5.255 209.671 4.237" fill="#474EBB"/>
<path d="M145.561 175.767C147.558 180.112 147.928 184.916 148.588 190.15C149.732 199.223 150.297 208.345 150.425 217.465C150.574 228.065 150.127 238.661 149.29 249.222C148.872 254.503 148.355 259.776 147.765 265.042C147.46 267.769 148.663 274.773 145.711 276.208C144.072 277.005 142.086 276.831 140.232 276.636C129.033 275.46 117.835 274.285 106.637 273.108C97.2135 272.119 87.2657 271.483 78.2722 268.329C77.7926 268.16 77.2978 267.966 76.9626 267.584C76.5972 267.17 76.4773 266.601 76.3801 266.058C74.8749 257.638 77.034 251.037 78.4792 243.019C80.1826 233.565 80.4168 223.226 81.1117 213.627C81.9062 202.635 83.6683 187.892 87.8363 177.441C89.712 173.027 92.3532 168.93 95.962 165.559C100.26 161.545 106.068 158.112 111.991 158.113C117.571 158.114 123.321 158.657 128.27 161.231C132.815 163.594 136.645 165.635 140.57 169.114C142.916 171.193 144.477 173.412 145.561 175.767" fill="#474EBB"/>
<path d="M141.013 145.789C138.257 148.546 135.133 150.933 131.749 152.868C134.904 146.799 137.219 140.294 138.61 133.598C138.716 133.086 138.854 132.518 139.297 132.242C139.711 131.984 140.245 132.077 140.717 132.198C149.151 134.347 145.816 140.984 141.013 145.789" fill="#3B455A"/>
<path d="M116.663 154.241C116.155 153.66 115.715 153.044 115.346 152.429C110.254 143.938 110.486 112.086 133.253 116.276C153.926 120.081 140.592 144.483 131.896 153.095C130.247 154.727 128.168 156.378 125.711 157.089C125.054 157.279 125.251 163.681 124.668 164.645C123.502 166.576 120.746 167.145 118.777 166.247C117.069 165.468 115.411 163.107 115.035 161.319C114.763 160.025 117.139 154.788 116.663 154.241" fill="#EFBFA5"/>
<path d="M116.414 145.044C114.335 146.154 111.89 144.357 110.478 142.472C104.679 134.726 104.79 123.092 110.738 115.458C115.714 109.071 127.323 108.206 124.747 117.909C123.834 121.349 119.779 124.726 118.489 128.404C116.646 133.661 116.593 139.541 116.414 145.044Z" fill="#3B455A"/>
<path d="M155.806 116.69C162.095 126.309 160.343 139.237 165.251 149.629C156.174 149.115 147.38 144.739 141.496 137.809C135.725 131.012 119.309 120.06 126.941 111.12C134.71 102.019 150.295 108.262 155.806 116.69Z" fill="#3B455A"/>
<path d="M183.845 193.16C176.037 185.182 166.387 185.024 159.294 186.492C154.161 187.553 148.817 186.46 144.452 183.56C138.378 179.525 129.189 175.958 118.832 180.635C104.945 186.905 99.6755 201.73 99.5417 216.107C99.4433 226.745 101.019 238.063 105.397 247.924C109.633 257.466 119.065 268.511 130.731 266.915C134.288 266.427 137.92 267.093 140.98 268.972C155.626 277.965 170.608 262.328 178.381 251.405C186.497 239.997 193.471 225.426 192.066 211.053C191.406 204.296 188.594 198.013 183.845 193.16Z" fill="#D34E4E"/>
<path d="M149.311 173.749C151.504 170.09 155.125 167.25 158.671 165.662C162.217 164.074 165.724 163.592 169.085 163.385C172.065 163.203 174.984 163.222 177.822 163.444C176.715 165.911 175.185 168.283 173.615 170.605C171.35 173.955 168.943 177.286 166.076 180.138C163.209 182.99 159.818 185.355 156.513 186.204C149.704 187.954 144.696 181.447 149.311 173.749" fill="#7FC5A3"/>
<path d="M52.7484 112.959C52.518 111.023 52.5572 109.1 52.5553 107.072C52.5546 106.593 52.5559 106.103 52.7067 105.647C52.8891 105.098 53.2741 104.643 53.6509 104.203C54.1981 103.565 54.7453 102.926 55.2931 102.287C55.6345 101.888 55.9823 101.484 56.4253 101.202C57.5651 100.476 59.0445 100.714 60.3705 100.978C60.6406 101.031 60.9227 101.091 61.136 101.266C61.4926 101.56 61.545 102.107 61.3834 102.541C60.8716 103.913 60.4506 104.246 60.4506 105.897C60.45 107.304 60.4904 108.732 60.8552 110.1C61.4282 109.893 61.7678 109.315 62.1824 108.8C62.5295 108.369 62.9827 107.893 63.5311 107.968C64.262 108.069 64.4854 109.038 64.3522 109.763C64.0853 111.219 63.1386 112.443 62.5043 113.781C61.5601 115.769 61.3531 119.658 58.9959 120.089C57.562 120.351 55.7784 119.999 54.3111 119.958C53.9217 118.362 53.5329 116.767 53.1435 115.172C52.9617 114.427 52.8361 113.692 52.7484 112.959" fill="#EFBFA5"/>
<path d="M113.108 159.147C99.3587 158.432 85.623 157.453 71.9118 156.211C70.9235 156.121 69.8569 155.995 69.1349 155.316C68.4287 154.65 68.2324 153.621 68.0759 152.663C66.3466 142.053 65.078 131.367 64.2727 120.647C64.2027 119.715 64.06 118.646 63.2756 118.138C62.7524 117.799 62.084 117.813 61.4611 117.839C58.5598 117.961 55.0388 117.291 52.8885 119.792C50.8222 122.196 51.7569 126.439 51.6926 129.461C51.502 138.412 50.9453 147.357 50.0245 156.264C49.7291 159.115 49.1769 163.353 51.0425 165.837C52.6853 168.023 56.2827 169.459 58.6015 170.979C67.9067 177.081 77.212 183.183 86.5167 189.285C88.4794 190.571 90.5861 191.904 92.9327 191.922C96.6929 191.951 96.7068 189.331 97.7551 186.839C99.0539 183.752 101.506 181.329 103.44 178.547C107.579 172.594 110.855 166.039 113.108 159.147" fill="#474EBB"/>
<path d="M170.455 271.661C168.792 271.695 166.984 271.004 166.243 269.516C165.686 268.393 165.831 267.059 166.073 265.829C166.474 263.801 167.103 261.818 167.945 259.93C170.056 255.199 176.717 253.592 178.642 259.408C180.353 264.575 175.932 271.552 170.455 271.661Z" fill="#474EBB"/>
<path d="M159.92 263.834C159.151 262.732 158.408 261.241 158.911 259.81C159.411 258.388 160.934 256.911 162.145 256.08C163.434 255.195 164.505 256.37 165.163 257.386C165.776 258.333 166.428 259.285 167.425 259.828C168.282 258.598 167.25 257.338 167.985 256.09C168.297 255.562 168.788 255.157 169.295 254.828C169.468 254.716 169.678 254.607 169.844 254.681C169.957 254.732 170.016 254.856 170.07 254.971C171.319 257.649 173.774 259.001 174.411 262.125C175.091 265.459 173.129 268.04 169.745 268.549C166.092 269.096 162.306 266.958 160.267 264.306C160.154 264.159 160.036 264.001 159.92 263.834" fill="#EFBFA5"/>
<path d="M30.7032 25.379L39.3508 105.977C39.6163 108.451 51.0861 110.437 64.9727 110.461C78.8599 110.485 90.3362 108.538 90.6101 106.065L99.5374 25.497L30.7032 25.379Z" fill="#8EC3CB"/>
<path d="M65.273 107.496C65.2017 107.496 65.1291 107.496 65.0572 107.496C53.5594 107.475 44.0641 105.918 43.8445 103.981L36.6784 40.8427L36.9032 40.8433C36.8512 40.8054 36.8132 40.7676 36.7901 40.7297C38.7115 41.6284 50.6493 42.3384 65.0912 42.3631C65.35 42.3637 65.6081 42.3637 65.8656 42.3637C80.5392 42.3637 92.4586 41.6467 93.582 40.7165C93.5833 40.7234 93.5833 40.7304 93.5833 40.7373C93.5833 40.8061 93.5353 40.8736 93.4426 40.9399L93.6679 40.9405L86.2825 104.054C86.0578 105.978 76.6742 107.496 65.273 107.496V107.496ZM79.5661 38.962C75.3224 38.7941 70.3775 38.6931 65.0976 38.6842C64.8363 38.6836 64.5781 38.6836 64.3194 38.6836C59.9514 38.6836 55.8264 38.7474 52.1595 38.861C55.8668 38.7303 60.0492 38.6571 64.4835 38.6571C64.7132 38.6571 64.9461 38.6577 65.1771 38.6577C70.428 38.6672 75.3457 38.777 79.5661 38.962" fill="#D6E9EC"/>
<path d="M99.4357 25.2375C99.4332 26.6689 84.0679 27.803 65.1165 27.7708C46.1645 27.7386 30.8031 26.5515 30.8055 25.1201C30.808 23.6881 46.1734 22.554 65.1254 22.5861C84.0767 22.619 99.4383 23.8061 99.4357 25.2375" fill="#7BB1B7"/>
<path d="M36.7901 40.7295C36.6118 40.6456 36.5199 40.561 36.5201 40.4745C36.5213 39.7582 42.8795 39.1485 52.1596 38.8607C43.0146 39.1826 36.7642 39.8535 36.7629 40.6399C36.7629 40.6695 36.7721 40.6998 36.7901 40.7295ZM93.5821 40.7162C93.4804 39.9785 87.8773 39.3259 79.5661 38.9617C88.0048 39.2956 93.6692 39.8964 93.6685 40.5724C93.6685 40.621 93.6395 40.6689 93.5821 40.7162" fill="#C8E2E6"/>
<path d="M65.8657 42.3638C65.6082 42.3638 65.35 42.3638 65.0913 42.3631C50.6493 42.3385 38.7115 41.6285 36.7901 40.7298C36.7721 40.7001 36.7629 40.6698 36.7629 40.6402C36.7642 39.8538 43.0146 39.1829 52.1596 38.861C55.8264 38.7474 59.9514 38.6837 64.3194 38.6837C64.5782 38.6837 64.8363 38.6837 65.0976 38.6843C70.3776 38.6931 75.3224 38.7941 79.5661 38.962C87.8773 39.3262 93.4805 39.9787 93.5821 40.7165C92.4587 41.6468 80.5393 42.3638 65.8657 42.3638Z" fill="#EBF4F6"/>
<path d="M60.8508 70.5465C60.9947 68.3174 61.0919 66.0851 61.1386 63.8503C61.1645 62.607 59.2193 62.5458 59.1928 63.7916C59.1505 65.8327 59.0647 67.8718 58.941 69.9085L54.1262 69.7639C54.1514 68.3136 54.1767 66.8639 54.2019 65.4136C54.2234 64.1709 52.2782 64.1091 52.2568 65.3555C52.1912 69.1139 52.1255 72.8728 52.0599 76.6312C52.0378 77.8745 53.9829 77.9363 54.005 76.6899C54.0334 75.0256 54.0631 73.3613 54.0921 71.6971L58.8116 71.8391C58.6646 73.8271 58.4822 75.8126 58.2594 77.7956C58.1193 79.032 60.0657 79.0837 60.2045 77.8537C60.4475 75.7015 60.6419 73.5456 60.7934 71.3872C60.924 71.1316 60.9455 70.8179 60.8508 70.5465" fill="white"/>
<path d="M65.3879 84.7971C65.2326 84.7833 63.9754 84.6905 63.5027 84.6387C63.7627 84.4734 64.2127 83.9451 64.2102 83.9476C64.3907 83.7526 64.5851 83.5702 64.7618 83.3714C65.5008 82.5358 66.0506 81.5008 65.7432 80.3673C65.1941 78.3407 62.3276 78.2442 61.8328 80.3527C61.55 81.5594 63.408 82.1357 63.6927 80.9233C64.0329 80.9201 64.0499 81.1177 63.7438 81.5159C63.5829 81.7898 63.3866 82.0366 63.1556 82.2562C62.8842 82.5478 62.5952 82.8211 62.3414 83.1291C61.8782 83.6901 61.4219 84.3932 61.5241 85.1569C61.7513 86.8609 64.0915 86.6179 65.3285 86.7296C66.5769 86.8426 66.6306 84.9101 65.3879 84.7971Z" fill="white"/>
<path d="M76.5948 72.4635C76.2969 74.3809 74.9002 76.6245 72.6465 76.3557C70.4274 76.0906 69.9251 73.2663 70.0418 71.4777C70.0999 70.5859 70.3157 69.7004 70.6717 68.8794C70.9405 68.2577 71.5363 67.0195 72.2829 66.5064C72.4748 66.8383 72.8358 67.0838 73.3148 67.0201C74.3631 66.88 75.5925 68.5468 76.0596 69.306C76.649 70.2634 76.7639 71.3691 76.5948 72.4635ZM73.9018 65.1538C73.8563 64.7266 73.5603 64.3403 72.9993 64.3403C69.7363 64.3378 68.1352 69.1621 68.0803 71.787C68.0197 74.7236 69.4971 78.2964 72.9317 78.3008C76.3076 78.3058 78.336 75.1363 78.5866 72.1006C78.8043 69.4537 76.7936 65.6026 73.9018 65.1538" fill="white"/>
<path d="M504.056 29.7658C502.432 28.0517 498.186 27.5007 498.186 27.5007L478.946 27.0514C476.909 27.004 474.852 26.2271 473.124 24.8879C473.723 24.2713 473.741 23.2918 473.147 22.6651C472.537 22.022 471.519 21.9973 470.872 22.6102L470.825 22.655L468.884 20.6076L456.706 32.1483L458.647 34.1963L458.213 34.6072C457.566 35.2206 457.536 36.2386 458.146 36.8824C458.756 37.5255 459.774 37.5501 460.42 36.9373L460.776 36.6003C462.131 38.4949 462.832 40.7354 462.71 42.8907L461.616 62.1601C461.616 62.1601 461.939 66.4284 463.563 68.1425L471.88 76.9177C471.88 76.9177 488.348 77.3519 488.31 94.0697L537.946 146.626C537.946 146.626 566.142 141.352 578.439 108.249L528.618 55.8678C512.541 55.1067 512.373 38.541 512.373 38.541L504.056 29.7658" fill="#8EC3CB"/>
<path d="M554.208 82.6828L529.111 56.2009L520.113 66.22C512.718 73.8723 506.884 79.1693 498.548 86.657L488.617 94.5782L513.716 121.06L513.588 121.181C541.399 108.688 554.336 82.5616 554.336 82.5616L554.208 82.6828" fill="#EBB044"/>
<path d="M513.028 81.5217L520.327 74.6047L520.029 87.1709L528.852 83.6L526.967 103.69L522.898 91.9365L516.297 96.1121L513.028 81.5217" fill="white"/>
<path d="M471.344 21.1217L456.701 34.9988C456.231 35.445 455.488 35.4248 455.042 34.9546L447.715 27.2234C447.269 26.7532 447.289 26.0104 447.759 25.5642L462.402 11.6864C462.872 11.2408 463.616 11.261 464.061 11.7312L471.389 19.4624C471.835 19.9326 471.814 20.6761 471.344 21.1217Z" fill="#3B455A"/>
<path d="M460.886 36.7554L473.08 24.9401C473.08 24.9401 473.913 25.5075 474.577 25.8407L460.886 36.7554Z" fill="#79A7AE"/>
<path d="M484.228 82.3633C479.36 77.3503 472.109 77.159 472.109 77.159L471.993 77.0366L472.106 76.9293C473.391 77.0114 479.862 77.6538 484.228 82.3633V82.3633ZM517.435 51.2192C512.952 46.5969 512.438 40.0345 512.38 38.7596L512.486 38.6593L512.602 38.7817C512.602 38.7817 512.675 46.0882 517.435 51.2192" fill="#F0F1F1"/>
<path d="M488.71 94.4912L488.539 94.3107C488.551 88.6861 486.697 84.9051 484.228 82.3636C479.862 77.6541 473.391 77.0116 472.106 76.9296L512.38 38.7599C512.438 40.0348 512.952 46.5972 517.435 51.2195C519.841 53.8147 523.447 55.8539 528.847 56.1095L529.018 56.2887L510.808 75.182C509.714 76.3174 508.567 77.401 507.373 78.4291L488.71 94.4912" fill="#86B8C0"/>
<path d="M554.34 82.5679L554.333 82.5553H554.333L554.34 82.5679Z" fill="#A4A6A9"/>
<path d="M446.558 249.498C446.462 248.768 446.488 248.696 445.862 248.294C445.167 247.848 444.412 247.47 443.682 247.09C440.978 244.187 439.803 241.249 438.795 237.333C438.088 234.586 436.717 231.89 435.703 229.248C433.675 223.967 431.693 218.666 429.76 213.345C429.464 212.534 429.166 211.662 429.348 210.816C429.488 210.173 429.89 209.632 430.287 209.121C432.186 206.679 434.234 204.366 436.416 202.2C438.366 200.263 440.05 199.254 442.328 197.997C444.741 196.662 443.846 194.063 442.967 191.828C442.611 190.923 438.885 183.125 439.269 182.735C431.81 190.279 424.389 197.865 417.008 205.493C416.526 205.992 416.025 206.521 415.839 207.204C415.598 208.084 415.928 209.016 416.26 209.864C419.055 217.012 422.309 223.964 425.939 230.687C427.749 234.041 429.656 237.338 431.653 240.573C432.817 242.458 436.744 246.295 435.885 248.748C435.787 249.026 435.629 249.275 435.57 249.568C435.502 249.9 435.566 250.259 435.638 250.604C435.903 251.871 436.269 253.158 436.799 254.357C437.282 255.452 438.142 255.583 439.107 256.019C440.114 256.474 440.764 257.456 441.717 257.995C442.675 258.537 443.512 258.16 444.392 257.568C444.801 257.294 445.203 257.009 445.598 256.715C445.831 256.54 446.063 256.363 446.291 256.182C446.429 256.073 446.569 255.959 446.655 255.802C446.74 255.65 446.765 255.47 446.786 255.295C447.027 253.313 446.815 251.46 446.558 249.498" fill="#D8A38B"/>
<path d="M506.317 155.57C507.717 154.902 509.173 154.168 510.057 152.894C510.653 152.036 510.936 151.004 511.209 149.995C513.164 142.761 515.12 135.526 517.075 128.292C515.134 126.189 515.069 121.58 518.85 124.121C519.187 124.346 519.554 124.632 519.95 124.547C520.246 124.484 520.457 124.228 520.643 123.989C521.408 123.005 522.174 122.021 522.94 121.036C523.205 120.696 523.492 120.339 523.897 120.193C524.205 120.082 524.544 120.108 524.87 120.147C527.361 120.45 529.756 121.505 531.662 123.137C530.32 125.098 528.753 126.904 526.999 128.507C526.341 129.109 525.651 129.688 525.102 130.391C522.817 133.319 523.289 139 522.891 142.534C522.349 147.359 521.805 152.184 521.262 157.009C521.184 157.713 521.097 158.438 520.752 159.056C520.333 159.807 519.586 160.307 518.862 160.772C506.621 168.665 493.539 175.252 479.909 180.386C478.749 177.142 476.805 172.675 476.9 169.186C476.99 165.893 481.797 165.619 484.491 164.655C491.913 161.998 499.202 158.965 506.317 155.57" fill="#D8A38B"/>
<path d="M455.247 169.895C450.172 171.566 447.617 174.508 447.467 181.439C447.285 189.834 447.106 198.279 448.388 206.577C449.109 211.243 450.286 215.828 450.972 220.499C452.365 229.998 451.669 239.741 449.322 249.032C448.532 252.16 445.321 257.31 447.704 260.056C449.985 262.685 454.355 261.019 457.25 260.879C466.828 260.417 476.404 259.954 485.981 259.491C491.845 259.209 503.917 258.906 502.408 249.846C501.71 245.656 497.645 241.26 496.093 237.21C494.377 232.73 493.227 227.897 493.455 223.072C493.791 215.996 492.601 209.1 492.039 201.955C491.267 192.137 490.936 181.976 486.793 172.859C483.311 165.198 465.958 167.586 459.31 168.878C457.812 169.169 456.458 169.496 455.247 169.895" fill="#D8A38B"/>
<path d="M504.839 402.174C506.684 402.423 508.425 401.886 510.236 401.805C510.58 395.452 510.305 389.319 509.362 382.959C506.357 385.872 504.126 383.909 503.826 389.745C503.729 391.634 505.397 399.327 504.839 402.174" fill="#D8A38B"/>
<path d="M510.855 398.677C513.016 398.065 513.149 403.132 513.086 404.318C513.047 405.03 512.913 405.749 513.048 406.45C513.196 407.22 513.652 407.891 514.097 408.537C515.032 409.89 515.966 411.242 516.9 412.595C517.319 413.203 517.747 413.825 517.945 414.537C518.438 416.301 517.293 418.275 515.606 418.989C509.753 421.464 505.052 414.192 504.136 409.538C503.996 408.825 503.907 408.103 503.818 407.382C503.635 405.889 502.737 402.602 503.419 401.202C504.216 399.569 506.201 400.926 507.597 400.384C508.893 399.882 509.982 398.926 510.855 398.677Z" fill="#3B455A"/>
<path d="M466.126 402.676C464.347 403.227 462.542 402.987 460.743 403.208C459.349 397 458.603 390.906 458.478 384.477C461.924 386.852 463.799 384.546 465.062 390.251C465.472 392.097 465.104 399.961 466.126 402.676" fill="#D8A38B"/>
<path d="M459.052 401.253C458.815 404.694 455.854 408.217 454.146 411.211C453.945 411.562 453.739 411.929 453.705 412.333C453.653 412.933 453.984 413.492 454.303 414.003C454.745 414.713 455.229 415.459 455.985 415.816C456.728 416.167 457.596 416.076 458.409 415.953C459.768 415.751 461.12 415.485 462.455 415.158C462.788 415.077 463.129 414.987 463.408 414.791C463.74 414.557 463.955 414.195 464.159 413.845C465.21 412.047 466.085 410.78 466.176 408.703C466.27 406.558 466.15 404.322 466.685 402.226C466.948 401.209 467.294 399.91 466.45 399.286C465.798 398.802 464.509 399.32 463.759 399.39C462.435 399.515 461.23 399.353 459.977 399.958C459.722 400.082 459.472 400.234 459.305 400.463C459.134 400.695 459.072 400.966 459.052 401.253" fill="#3B455A"/>
<path d="M462.675 168.901C462.799 169.119 462.961 169.326 463.176 169.519C464.02 170.283 465.161 170.688 466.281 170.799C467.757 170.946 469.238 170.638 470.682 170.297C472.633 169.837 472.514 168.688 472.722 166.89C472.836 165.908 472.89 164.92 472.921 163.933C472.939 163.391 472.646 161.467 472.973 161.074C473.196 160.807 474.15 160.852 474.558 160.617C475.203 160.244 475.728 159.584 476.098 158.951C476.695 157.928 476.997 156.765 477.293 155.619C477.807 153.625 478.323 151.631 478.837 149.637C479.363 147.599 479.892 145.544 479.998 143.443C480.159 140.275 479.457 135.843 476.976 133.639C474.713 131.628 471.512 131.028 468.589 130.782C464.719 130.456 460.76 131.333 457.524 133.519C456.217 134.402 454.991 135.527 454.262 137.032C453.138 139.352 453.352 142.179 453.598 144.82C453.825 147.258 454.052 149.696 454.278 152.134C454.539 154.937 455.029 158.161 457.2 159.593C458.352 160.354 459.821 160.464 460.823 161.46C462.078 162.708 462.084 164.661 462.205 166.307C462.275 167.247 462.242 168.142 462.675 168.901" fill="#D8A38B"/>
<path d="M473.495 136.793C473.638 137.017 473.758 137.25 473.856 137.493C474.36 138.769 474.12 140.245 474.614 141.525C475.397 143.554 477.854 144.688 478.308 146.815C478.68 148.555 477.554 150.272 477.53 152.051C477.503 153.995 478.824 155.776 478.713 157.697C478.618 159.367 477.664 161.748 476.729 163.123C477.019 162.697 479.808 162.724 480.511 162.252C481.588 161.529 481.695 161.098 481.974 159.931C482.251 158.773 481.95 157.656 482.409 156.462C482.971 154.997 484.209 153.886 484.592 152.333C485.116 150.214 483.907 148.054 483.9 145.871C483.889 142.567 486.606 139.337 485.435 136.247C484.749 134.435 482.913 133.337 481.837 131.724C481.021 130.5 480.676 129.03 480.088 127.681C479.5 126.332 478.531 124.998 477.103 124.643C476.309 124.446 475.47 124.577 474.661 124.462C473.261 124.264 472.067 123.355 470.709 122.96C468.768 122.395 465.476 124.476 464.429 126.146C463.39 127.804 464.008 129.148 465.204 130.522C467.193 132.811 471.821 134.165 473.495 136.793" fill="#3B455A"/>
<path d="M447.306 128.164C446.196 129.055 444.806 129.723 443.802 130.752C441.842 132.757 441.586 135.839 441.634 138.642C441.675 141.136 440.68 143.398 441.063 145.985C441.319 147.722 442.137 149.454 443.601 150.423C445.425 151.629 448.209 151.72 449.086 153.723C450.038 155.898 447.866 158.784 449.341 160.646C450.154 161.674 451.665 161.764 452.795 162.429C454.054 163.171 454.744 164.564 455.547 165.786C456.349 167.008 457.528 168.216 458.989 168.184C458.952 165.96 458.942 164.198 457.905 162.208C457.302 161.048 455.581 158.935 456.775 157.601C457.518 156.502 459.363 156.075 459.354 154.748C459.349 154.126 458.893 153.615 458.529 153.111C457.116 151.157 456.867 148.483 457.668 146.21C458.47 143.937 460.244 142.073 462.367 140.929C464.853 139.59 464.417 138.987 465.051 136.523C465.633 134.256 466.881 133.677 468.86 132.773C470.638 131.963 471.199 131.481 471.794 129.76C472.229 128.5 472.766 126.99 471.998 125.638C471.388 124.564 470.34 123.822 469.326 123.115C467.207 121.64 464.832 120.095 462.267 120.391C460.843 120.556 459.528 121.285 458.102 121.428C457.15 121.524 456.192 121.353 455.236 121.363C453.605 121.378 451.91 121.947 450.634 122.973C449.346 124.008 449.428 125.03 448.748 126.45C448.416 127.144 447.901 127.687 447.306 128.164" fill="#3B455A"/>
<path d="M452.672 118.784C452.855 117.225 452.608 115.216 451.108 114.757C450.285 114.506 449.391 114.859 448.543 114.724C446.733 114.437 446.029 112.291 445.02 110.761C444.87 110.532 444.692 110.301 444.437 110.201C444.072 110.057 443.668 110.216 443.281 110.281C441.506 110.575 440.073 108.872 438.365 108.306C436.25 107.606 433.689 109.02 433.154 111.182C432.935 112.07 433.021 113.011 432.816 113.903C431.991 117.519 426.824 119.265 426.852 122.973C426.87 125.479 429.422 127.77 428.571 130.127C428.026 131.634 426.164 132.726 426.45 134.302C426.634 135.317 427.752 135.965 428.78 135.905C429.81 135.847 430.732 135.241 431.478 134.53C432.663 133.401 433.531 131.982 434.655 130.792C435.779 129.603 437.304 128.612 438.935 128.745C440.515 128.873 441.989 130.035 443.54 129.706C444.779 129.443 445.658 128.288 446.872 127.921C448.007 127.578 449.22 127.977 450.406 127.997C451.592 128.018 453.018 127.339 452.998 126.154C452.993 125.867 452.901 125.573 452.979 125.297C453.198 124.522 454.505 124.51 454.719 123.734C454.061 122.808 453.205 123.187 452.709 121.963C452.324 121.016 452.557 119.763 452.672 118.784" fill="#3B455A"/>
<path d="M444.498 218.543C444.519 219.966 444.234 226.088 446.517 226.237C457.861 226.964 469.002 222.512 480.053 220.713C482.929 220.244 485.833 219.915 488.75 219.873C491.373 219.833 493.794 221.042 494.502 218.262C495.205 215.503 494.711 211.835 494.728 208.989C494.762 202.867 494.014 197.286 495.431 191.295C496.86 185.259 499.149 179.426 502.222 174.037C502.529 173.497 502.853 172.938 502.903 172.317C502.983 171.326 502.381 170.246 502.122 169.308C501.721 167.85 501.495 166.327 501.139 164.855C500.455 162.025 499.664 159.221 498.769 156.451C497.031 157.832 495.087 158.951 493.022 159.761C489.806 161.021 486.353 161.532 483.137 162.786C481.482 163.432 480.226 164.546 478.685 165.314C477.227 166.04 475.635 166.009 474.785 167.718C474.103 169.095 474.652 172.038 474.639 173.561C474.622 175.563 474.604 177.566 474.259 179.544C473.82 182.07 472.614 185.063 470.063 185.316C468.424 185.478 466.929 184.359 465.86 183.105C462.941 179.677 463.396 175.245 461.272 171.596C460.851 170.873 459.123 168.178 458.516 167.928C457.176 167.376 453.114 169.951 451.765 170.532C448.247 172.048 445.017 173.253 441.832 175.536C438.695 177.782 435.848 180.413 433.198 183.212C430.88 185.661 428.651 188.23 426.575 190.889C424.297 193.806 426.864 195.229 428.883 197.511C430.277 199.088 431.745 200.598 433.281 202.035C434.544 203.217 436.176 205.191 437.769 205.895C439.904 206.838 442.205 204.495 443.61 203.147C443.011 203.721 444.493 208.752 444.608 209.837C444.907 212.67 444.456 215.689 444.498 218.543" fill="#7FC5A3"/>
<path d="M513.107 388.328C512.945 383.506 512.703 378.675 512.453 373.846C512.018 365.478 511.613 357.251 510.759 348.935C508.129 323.31 507.07 297.422 505.243 271.725C505.243 264.121 505.151 256.139 503.546 248.668C503.452 248.249 503.352 247.824 503.129 247.459C502.392 246.252 500.706 246.161 499.294 246.221C493.764 246.457 487.979 247.651 482.496 247.518C476.334 247.367 469.814 246.837 463.447 247.194C461.553 247.3 459.65 247.051 457.739 246.802C455.237 246.475 452.721 246.149 450.191 246.619C448.017 247.025 448.078 248.849 447.711 250.976C447.314 253.278 447.183 255.619 447.073 257.951C446.876 262.132 446.759 266.317 446.721 270.504C446.627 280.87 448.24 291.328 448.755 301.689C449.295 312.549 449.756 323.413 450.166 334.279C450.685 348.035 452.656 361.715 454.357 375.306C454.957 380.11 455.566 384.914 456.261 389.696C456.478 391.19 456.517 393.62 457.145 394.928C458.374 397.488 461.647 397.205 463.685 396.896C465.462 396.624 467.224 396.182 468.951 395.573C468.294 376.601 470.281 357.33 470.193 338.224C470.134 325.528 471.554 312.896 472.852 300.284C473.094 297.933 473.272 295.461 473.783 293.153C474.268 290.96 475.155 288.865 475.523 286.61C475.923 284.147 477.892 283.993 478.78 286.132C479.918 288.869 480.332 292.184 481.074 295.057C484.902 309.861 489.324 324.446 491.83 339.708C494.926 358.56 499.945 377.258 502.499 396.067C504.177 396.403 505.859 396.569 507.526 396.564C509.439 396.558 512.474 396.335 513.17 393.622C513.526 392.236 513.157 389.833 513.107 388.328" fill="#3B455A"/>
<path d="M503.317 248.622C503.317 247.553 501.171 245.712 500.701 244.683C500.172 243.525 499.711 242.368 499.096 241.225C499.065 241.167 499.032 241.106 498.978 241.067C498.778 240.92 498.532 241.159 498.346 241.324C497.698 241.902 495.973 241.521 495.163 241.529C493.771 241.543 492.379 241.556 490.987 241.57C488.289 241.596 485.592 241.622 482.895 241.647C472.07 241.75 461.356 242.35 450.541 241.678C450.112 242.76 448.579 246.46 449.233 247.557C449.472 247.958 449.881 247.88 450.363 247.927C451.472 248.036 452.596 248.055 453.71 248.101C457.322 248.253 460.937 248.349 464.552 248.438C473.481 248.656 482.412 248.805 491.344 248.852C492.03 248.856 503.317 249.009 503.317 248.622" fill="#343F51"/>
<path d="M367.099 364.926C371.668 368.111 402.907 409.532 402.907 409.532L385.003 423.287L310.924 407.856V394.106L339.324 391.889C339.324 391.889 318.629 388.864 313.002 375.129C307.376 361.393 367.099 364.926 367.099 364.926" fill="#474EBB"/>
<path d="M301.969 399.949C300.411 404.09 298.814 409.584 300.074 414.199C301.469 419.313 309.443 422.88 311.612 416.468C312.031 415.231 311.92 413.726 310.998 412.802C309.035 410.836 307.393 408.677 311.102 407.364C312.477 406.878 313.984 406.939 315.401 406.594C315.892 406.475 316.395 406.29 316.724 405.907C317.141 405.423 317.195 404.733 317.214 404.094C317.29 401.665 317.166 399.23 316.847 396.821C316.749 396.082 309.766 395.478 309.041 395.555C306.406 395.834 302.974 397.277 301.969 399.949" fill="#3B455A"/>
<path d="M379.856 389.634L407.163 405.13L414.357 399.274V392.459L379.856 364.925L359.05 387.474L379.856 389.634Z" fill="#474EBB"/>
<path d="M343.603 275.928C344.39 275.439 345.211 275.012 346.077 274.671C360.454 268.993 370.987 275.402 375.62 289.297C386.01 320.447 387.526 348.947 380.438 380.441C364.262 381.388 345.016 382.095 328.867 380.767C323.13 380.295 316.849 379.411 313.003 375.129C311.288 373.219 310.243 370.808 309.385 368.389C303.908 352.965 305.036 335.634 310.752 320.296C316.466 304.957 326.531 291.504 338.373 280.203C340.002 278.649 341.701 277.109 343.603 275.928" fill="#7FC5A3"/>
<path d="M377.514 244.636C370.032 246.566 362.118 241.573 354.89 244.477C350.19 246.365 346.957 251.391 346.141 256.544C345.761 258.946 345.853 261.471 346.832 263.613C347.468 265.004 348.452 266.183 349.56 267.187C351.041 268.531 352.768 269.558 354.627 270.25C354.777 270.306 352.264 274.734 352.019 275.117C353.17 275.842 352.638 278.176 353.7 279.361C354.798 280.587 356.737 280.876 358.363 280.467C359.989 280.059 361.371 279.077 362.682 278.088C363.871 277.192 363.247 271.129 364.471 270.837C365.511 270.589 366.536 270.249 367.522 269.795C373.492 267.052 377.882 260.646 378.39 253.94C378.628 250.798 378.081 247.693 377.514 244.636" fill="#EFBFA5"/>
<path d="M359.612 244.657C359.898 244.643 360.184 244.635 360.468 244.632C364.588 244.591 368.675 245.492 372.384 247.174C373.753 247.796 375.098 248.542 376.096 249.661C377.574 251.317 378.145 253.65 378.073 255.908C378 258.167 377.339 260.381 376.6 262.537C377.541 262.583 378.429 262.067 379.221 261.528C381.551 259.943 384.083 257.866 385.511 255.384C388.104 250.875 388.217 247.667 392.635 244.437C396.299 241.758 400.962 243.361 403.91 238.823C406.321 235.108 404.899 229.078 400.635 227.877C398.728 227.34 396.558 227.853 395.093 229.189C393.518 230.625 391.802 233.137 389.956 232.072C389.218 231.645 388.895 230.773 388.514 230.011C385.362 223.694 378.627 224.794 373.243 227.148C370.206 228.477 367.257 230.266 363.991 230.609C361.371 230.883 358.769 230.195 356.142 230.272C351.759 230.4 347.48 232.762 344.76 236.295C341.712 240.254 340.146 245.952 342.199 250.473C343.228 252.739 343.884 255.121 344.56 257.515C344.794 258.346 346.627 261.726 347.336 259.017C347.886 256.915 347.752 254.698 348.316 252.6C349.69 247.485 354.7 244.901 359.612 244.657" fill="#3B455A"/>
<path d="M436.224 292.563C425.269 291.605 411.45 297.483 408.111 306.973C404.868 297.452 388.085 291.526 377.122 292.382C348.19 294.641 338.234 327.356 350.385 349.443C356.924 361.331 366.355 371.742 376.655 381.099C385.28 388.935 407.544 405.572 407.613 405.515C407.681 405.572 430.112 389.142 438.816 381.386C449.21 372.125 458.745 361.801 465.405 349.975C477.778 328.002 465.131 295.089 436.224 292.563Z" fill="#D34E4E"/>
<path d="M407.455 405.432C407.455 405.432 407.455 405.432 407.455 405.432C407.438 405.432 407.106 405.195 406.519 404.765L406.714 404.875C407.068 405.136 407.326 405.322 407.472 405.424C407.463 405.43 407.457 405.432 407.455 405.432" fill="#D4D5D5"/>
<path d="M406.714 404.875L406.519 404.765C403.824 402.786 395.76 396.715 388.234 390.755C388.258 390.762 388.283 390.767 388.308 390.773C395.893 396.781 404.046 402.918 406.714 404.875" fill="#3E45A4"/>
<path d="M407.472 405.425C407.326 405.322 407.068 405.136 406.714 404.876C404.046 402.918 395.893 396.782 388.308 390.773C391.135 391.442 394.052 391.781 397.032 391.781C399.324 391.781 401.653 391.58 404.004 391.174C415.315 389.218 425.611 383.26 434.409 376.406C443.505 369.318 451.893 361.054 459.146 352.242C462.947 347.624 466.453 342.754 469.48 337.635C468.796 341.907 467.403 346.066 465.248 349.892C458.588 361.72 449.053 372.043 438.659 381.304C430.082 388.946 408.174 405.011 407.472 405.425" fill="#B94545"/>
<path d="M459.334 343.42C451.76 343.58 444.187 343.74 436.612 343.9C433.923 333.789 431.234 323.677 428.544 313.566C428.155 312.104 426.019 312.204 425.562 313.552C419.611 331.104 413.659 348.656 407.706 366.208C407.361 367.224 407.017 368.242 406.673 369.258C402.744 357.667 398.815 346.077 394.888 334.486C394.258 332.627 393.628 330.769 392.997 328.909C392.618 327.789 390.802 327.337 390.173 328.543C387.246 334.152 384.32 339.761 381.394 345.37C372.919 345.331 364.444 345.291 355.97 345.252C353.98 345.243 353.961 348.2 355.954 348.209C364.749 348.25 373.542 348.29 382.337 348.331C382.851 348.333 383.437 348.061 383.675 347.605C386.183 342.799 388.691 337.992 391.199 333.185C395.229 345.077 399.259 356.967 403.289 368.858C403.919 370.717 404.549 372.576 405.179 374.435C405.652 375.83 407.682 375.861 408.161 374.449C414.114 356.897 420.065 339.345 426.017 321.793C426.302 320.954 426.586 320.114 426.87 319.275C429.222 328.114 431.573 336.951 433.923 345.79C434.087 346.404 434.741 346.896 435.41 346.883C443.379 346.714 451.349 346.546 459.319 346.377C461.305 346.335 461.329 343.378 459.334 343.42" fill="white"/>
<path d="M342.086 344.416C343.866 349.193 346.452 353.42 350.438 356.311C353.743 358.708 357.049 361.106 360.354 363.503C361.258 364.159 362.185 364.839 362.777 365.787C363.612 367.127 363.657 368.79 363.884 370.352C364.379 373.749 366.09 377.216 369.189 378.692C372.288 380.166 376.761 378.7 377.505 375.35C376.078 373.438 374.731 371.417 373.202 369.586C372.377 368.597 370.55 366.21 373.508 366.997C373.965 367.119 374.431 367.281 374.899 367.217C375.624 367.117 376.183 366.482 376.414 365.787C376.638 365.111 376.663 364.352 376.519 363.668C369.795 363.543 362.388 357.02 358.742 351.818C348.991 337.903 352.903 320.246 349.636 304.621C348.977 301.469 347.752 298.262 345.269 296.213C342.784 294.163 338.781 293.704 336.433 295.907C333.914 298.271 334.279 302.296 334.839 305.705C335.642 310.596 336.444 315.487 337.247 320.378C338.438 327.634 339.222 336.736 342.086 344.416" fill="#EFBFA5"/>
<path d="M331.263 296.743C330.429 303.358 330.345 310.067 331.012 316.701C338.98 315.508 347.018 314.78 355.07 314.52C354.333 307.517 353.105 300.565 351.397 293.733C350.147 288.729 345.788 286.074 340.602 286.281C334.891 286.51 331.897 291.723 331.263 296.743Z" fill="#7FC5A3"/>
<path d="M391.37 294.695C391.789 294.65 392.259 294.621 392.582 294.89C392.905 295.159 392.964 295.627 392.966 296.047C392.973 297.699 392.455 299.35 391.506 300.703C391.287 301.017 391.03 301.374 391.121 301.747C391.216 302.137 391.641 302.334 392.017 302.477C392.998 302.851 393.978 303.226 394.96 303.6C395.157 303.676 395.367 303.752 395.576 303.714C395.843 303.666 396.04 303.445 396.214 303.237C397.578 301.609 398.979 299.914 399.55 297.869C400.124 295.824 399.631 293.319 397.843 292.173C394.926 290.305 385.764 289.094 385.529 294.353C387.257 295.274 389.495 294.883 391.37 294.695" fill="#EFBFA5"/>
</svg>
