<svg width="564" height="459" viewBox="0 0 564 459" fill="none" xmlns="http://www.w3.org/2000/svg">
<path d="M480.955 176.449C590.979 241.086 590.979 345.884 480.952 410.522C370.927 475.159 192.543 475.159 82.5181 410.522C-27.5069 345.885 -27.5059 241.087 82.519 176.45C192.544 111.812 370.93 111.812 480.955 176.449" fill="white" fill-opacity="0.22"/>
<path d="M95.5088 357.801C102.478 359.176 109.789 358.815 116.79 360.217C121.598 361.18 126.196 362.96 130.762 364.744C134.852 366.341 138.938 367.946 143.02 369.561C143.834 369.884 153.611 373.257 153.611 373.723C170.159 379.887 186.95 388.753 205.152 387.688C209.444 387.438 213.604 385.399 216.432 382.16C219.258 378.922 220.718 374.525 220.387 370.239C220.12 366.77 218.741 363.348 219.249 359.905C220.611 350.668 229.086 351.622 235.902 353.199C239.88 354.12 243.807 355.243 247.693 356.495C257.92 359.787 268.695 362.859 276.826 370.258C282.061 375.02 287.103 376.909 294.178 377.704C299.111 378.256 303.969 378.565 308.695 380.205C313.357 381.82 317.409 384.929 321.722 387.316C333.409 393.783 348.775 392.909 359.652 385.159C361.481 383.858 363.359 381.949 363.001 379.734C362.136 374.396 353.192 373.308 349.404 371.059C342.557 366.995 335.685 362.975 328.76 359.044C314.911 351.182 300.893 343.616 286.719 336.357C271.57 328.598 256.208 321.172 240.206 315.373C232.319 312.514 223.333 310.108 215.795 313.789C209.717 316.757 207.319 322.386 203.374 327.394C199.705 332.05 194.943 336.864 189.548 339.479C185.247 341.562 180.363 342.048 175.59 342.261C159.756 342.975 143.903 341.064 128.318 338.176C121.718 336.953 115.059 335.548 108.359 335.958C101.177 336.395 89.4117 338.242 85.4904 345.173C84.8703 346.269 84.2884 347.425 84.1551 348.677C83.9382 350.717 84.9787 352.747 86.4985 354.126C88.0183 355.504 89.9667 356.317 91.9295 356.915C93.1102 357.274 94.3047 357.563 95.5088 357.801" fill="#DADBD8" fill-opacity="0.18"/>
<path d="M471.392 274.155C481.35 279.905 481.35 289.227 471.392 294.977C461.433 300.727 445.287 300.727 435.327 294.977C425.369 289.227 425.369 279.905 435.327 274.155C445.287 268.405 461.433 268.405 471.392 274.155Z" fill="#DADBD8" fill-opacity="0.18"/>
<path d="M433.613 378.23L429.449 375.826C426.623 374.195 426.624 371.55 429.449 369.92L438.728 364.563L405.143 345.172L395.864 350.529C393.04 352.159 388.459 352.159 385.634 350.529L381.47 348.125C378.645 346.494 378.645 343.85 381.47 342.219L409.623 325.964C412.447 324.333 417.028 324.333 419.852 325.964L424.018 328.369C426.842 330 426.842 332.643 424.018 334.275L413.77 340.191L447.356 359.582L457.602 353.664C460.426 352.033 465.006 352.033 467.831 353.664L471.996 356.069C474.821 357.7 474.821 360.345 471.996 361.975L443.842 378.23C441.018 379.861 436.439 379.861 433.613 378.23Z" fill="#DADBD8" fill-opacity="0.18"/>
<path d="M504.905 213.672L493.652 207.176C493.652 207.176 490.896 183.078 492.731 164.416C495.308 138.191 512.243 106.637 532.448 114.048C552.652 121.459 523.183 148.165 516.625 170.408C510.065 192.652 504.905 213.672 504.905 213.672Z" fill="#FF93D4"/>
<path d="M504.905 213.672L493.652 207.176C493.652 207.176 492.102 193.621 492.101 178.97C492.101 174.086 492.272 169.082 492.731 164.416C495.048 140.837 508.973 112.949 526.444 112.949C528.405 112.949 530.409 113.3 532.448 114.048C537.469 115.89 539.422 118.923 539.421 122.785C539.419 134.458 521.553 153.694 516.625 170.408C510.065 192.652 504.905 213.672 504.905 213.672Z" fill="#D060A3"/>
<path d="M498.987 210.938H499.01C499.386 210.925 499.682 210.61 499.669 210.234C497.691 151.963 526.699 122.653 526.991 122.364C527.259 122.099 527.263 121.668 526.999 121.401C526.731 121.133 526.3 121.129 526.035 121.394C525.737 121.687 496.31 151.42 498.307 210.28C498.319 210.648 498.621 210.938 498.987 210.938" fill="white"/>
<path d="M511.98 217.725L503.973 213.102C503.973 213.102 502.61 196.566 510.718 176.477C517.776 158.989 535.288 144.481 544.096 147.529C552.903 150.578 552.685 156.825 548.391 163.375C544.096 169.927 517.97 185.543 511.98 217.725" fill="#FF93D4"/>
<path d="M507.756 215.966H507.76C508.135 215.964 508.44 215.659 508.438 215.282C508.278 178.439 542.871 153.539 543.222 153.291C543.528 153.074 543.601 152.649 543.384 152.342C543.168 152.036 542.745 151.96 542.434 152.18C542.08 152.431 506.913 177.744 507.076 215.288C507.077 215.663 507.38 215.966 507.756 215.966" fill="white"/>
<path d="M75.1345 203.26L84.6219 197.779C84.6219 197.779 90.2684 174.316 88.0182 153.205C84.8545 123.521 65.3163 112.352 57.8871 114.912C50.4574 117.473 48.3051 126.11 60.5987 143.788C67.8516 154.218 76.7614 175.944 75.1345 203.26" fill="#FF93D4"/>
<path d="M75.1345 203.26C75.2665 201.047 75.3293 198.869 75.3293 196.732C75.3284 172.496 67.2638 153.373 60.5987 143.788C54.3681 134.828 51.8481 128.19 51.8452 123.489C51.8425 118.916 54.2227 116.175 57.8871 114.912C58.569 114.678 59.352 114.559 60.2162 114.559C68.7647 114.559 85.1452 126.246 88.0182 153.205C88.3919 156.709 88.548 160.278 88.548 163.795C88.5493 181.46 84.622 197.779 84.622 197.779L75.1345 203.26" fill="#D060A3"/>
<path d="M79.0655 191.735L78.9751 191.723C78.6179 191.654 78.3831 191.311 78.4514 190.954C83.6517 163.576 74.0881 132.812 62.2448 120.011C61.9984 119.744 62.0146 119.327 62.2818 119.08C62.5485 118.837 62.9651 118.85 63.2115 119.118C75.2702 132.152 85.0215 163.419 79.7438 191.2C79.6819 191.526 79.388 191.75 79.0655 191.735Z" fill="white"/>
<path d="M50.2812 217.613C48.7827 218.376 44.7968 214.964 43.6857 214.135C41.7834 212.714 40.283 210.764 39.3302 208.595C38.2216 206.07 38.0439 203.417 38.5671 200.712C38.8388 199.31 39.3035 197.953 39.7668 196.602C40.2216 195.275 40.6761 193.949 41.131 192.623C41.5799 191.314 42.0349 189.959 41.9282 188.58C41.7142 185.8 39.3607 183.742 37.2157 181.96C34.8447 179.99 32.4011 177.425 32.5829 174.101C32.7232 171.536 34.172 169.221 35.8634 167.287C37.5544 165.354 39.531 163.67 41.0748 161.618C42.1867 160.139 43.0841 158.382 43.0093 156.535C42.9622 155.387 42.5424 154.287 42.0464 153.25C40.9816 151.026 39.5323 148.965 38.8398 146.598C38.1478 144.232 38.4084 141.346 40.3084 139.772C41.8674 138.481 44.0903 138.402 46.1011 138.638C47.9609 138.856 49.7404 139.789 51.3272 140.78C56.4577 143.981 59.155 150.384 64.6427 152.926C66.7595 153.905 69.1168 154.215 71.3387 154.924C73.5608 155.633 75.799 156.899 76.737 159.034C78.5858 163.245 74.5154 168.114 75.7408 172.547C76.8251 176.468 80.4996 178.135 82.4291 181.717C83.273 183.284 83.397 185.053 83.1586 186.817C82.7563 189.803 82.2067 191.981 80.5992 195.244C79.2709 197.94 75.531 203.036 75.531 203.036C75.531 203.036 50.5106 217.496 50.2812 217.613" fill="#FF93D4"/>
<path d="M64.8037 210.045L64.7857 210.043C64.4143 210.009 64.1485 209.688 64.1809 209.328C66.5828 183.287 55.7408 153.859 47.2222 145.038C46.9703 144.777 46.9768 144.36 47.2384 144.107C47.5004 143.856 47.9157 143.863 48.1689 144.123C56.8587 153.121 67.9273 183.04 65.493 209.447C65.4593 209.801 65.1539 210.062 64.8037 210.045Z" fill="white"/>
<path d="M62.2172 177.937L62.0243 177.897C53.7715 174.883 43.3452 173.899 43.2414 173.89C42.8791 173.855 42.6134 173.535 42.6457 173.174C42.6794 172.812 42.9687 172.541 43.3617 172.577C43.4679 172.588 54.059 173.587 62.4755 176.662C62.8169 176.786 62.9932 177.164 62.8677 177.505C62.7666 177.783 62.4982 177.95 62.2172 177.937" fill="white"/>
<path d="M416.497 310.642C414.284 303.406 405.24 297.419 396.784 299.787L396.788 299.788C395.571 300.118 394.295 300.653 392.978 301.413C384.779 306.143 378.131 317.656 378.131 327.129C378.131 328.9 378.364 330.472 378.795 331.829L378.792 331.828C381.006 339.065 390.049 345.018 398.506 342.649L398.503 342.647C399.716 342.316 400.989 341.781 402.302 341.023C410.503 336.289 417.15 324.775 417.15 315.307C417.15 313.552 416.921 311.99 416.497 310.642" fill="white"/>
<path d="M402.302 341.023C410.503 336.289 417.15 324.775 417.15 315.307C417.15 305.838 410.503 301.997 402.302 306.727C394.102 311.457 387.455 322.972 387.455 332.443C387.455 341.916 394.103 345.757 402.302 341.023Z" fill="#E4E4E4"/>
<path d="M402.302 317.231C405.456 315.409 408.012 316.886 408.012 320.527C408.012 324.17 405.456 328.598 402.302 330.418C399.15 332.239 396.593 330.763 396.593 327.122C396.593 323.48 399.149 319.052 402.302 317.231Z" fill="white"/>
<path d="M404.257 322.695C404.257 323.941 403.385 325.456 402.306 326.087C401.804 326.379 401.337 326.424 400.992 326.259L400.851 326.177C400.534 325.951 400.348 325.532 400.348 324.953C400.348 323.708 401.225 322.192 402.306 321.562C402.808 321.269 403.266 321.224 403.611 321.39L403.754 321.472C404.069 321.69 404.257 322.11 404.257 322.695" fill="#E4E4E4"/>
<path d="M435.624 340.805C435.624 342.05 434.753 343.567 433.672 344.189C433.357 344.377 433.079 344.453 432.824 344.453C432.592 344.453 432.381 344.384 432.172 344.264L400.992 326.26L400.851 326.177C400.534 325.951 400.348 325.532 400.348 324.953C400.348 323.708 401.225 322.192 402.306 321.562C402.808 321.269 403.266 321.224 403.611 321.39L403.754 321.472L434.933 339.47C435.376 339.725 435.624 340.107 435.624 340.805Z" fill="#FAFAF9"/>
<path d="M466.231 339.346C464.016 332.11 454.973 326.122 446.516 328.491L446.52 328.493C445.304 328.822 444.029 329.357 442.71 330.117C434.511 334.847 427.863 346.361 427.863 355.834C427.863 357.603 428.096 359.177 428.528 360.534L428.525 360.533C430.74 367.769 439.782 373.721 448.238 371.353L448.235 371.351C449.449 371.021 450.722 370.486 452.036 369.727C460.235 364.993 466.883 353.48 466.883 344.011C466.883 342.257 466.653 340.695 466.231 339.346Z" fill="white"/>
<path d="M452.036 369.727C460.235 364.993 466.882 353.48 466.882 344.011C466.882 334.543 460.235 330.701 452.036 335.431C443.836 340.162 437.189 351.676 437.189 361.148C437.189 370.621 443.836 374.462 452.036 369.727Z" fill="#E4E4E4"/>
<path d="M452.036 345.935C455.189 344.115 457.745 345.591 457.745 349.233C457.745 352.874 455.189 357.302 452.036 359.124C448.881 360.944 446.325 359.468 446.325 355.826C446.325 352.185 448.881 347.757 452.036 345.935Z" fill="white"/>
<path d="M453.989 351.4C453.989 352.646 453.119 354.161 452.038 354.791C451.536 355.084 451.071 355.129 450.726 354.963L450.583 354.882C450.267 354.656 450.081 354.236 450.081 353.658C450.081 352.412 450.958 350.897 452.038 350.266C452.541 349.974 452.998 349.929 453.343 350.093L453.486 350.176C453.801 350.395 453.989 350.814 453.989 351.4" fill="#E4E4E4"/>
<path d="M458.716 354.131C458.716 355.377 457.847 356.892 456.766 357.516C456.451 357.702 456.173 357.778 455.918 357.778C455.685 357.778 455.475 357.71 455.265 357.59L450.726 354.963L450.583 354.882C450.267 354.656 450.081 354.236 450.081 353.658C450.081 352.412 450.958 350.897 452.038 350.266C452.541 349.974 452.998 349.929 453.343 350.093L453.486 350.176L458.026 352.796C458.468 353.049 458.716 353.433 458.716 354.131" fill="#FAFAF9"/>
<path d="M458.716 354.119C458.716 355.364 457.847 356.881 456.766 357.51C456.263 357.803 455.797 357.848 455.453 357.683L455.31 357.6C454.995 357.375 454.808 356.955 454.808 356.377C454.808 355.131 455.685 353.616 456.766 352.985C457.269 352.693 457.725 352.648 458.071 352.813L458.213 352.895C458.529 353.114 458.716 353.533 458.716 354.119" fill="#DADBD8" fill-opacity="0.18"/>
<path d="M471.309 253.1C470.737 250.534 469.418 247.793 468.327 245.396C468.198 245.117 468.061 244.837 467.92 244.556C465.537 239.848 465.55 234.278 468.133 229.677C468.222 229.518 468.309 229.361 468.396 229.203C470.005 226.281 470.699 223.772 470.703 220.443C470.712 217.905 469.05 214.11 465.703 212.162C464.977 211.734 464.198 211.357 463.382 211.034C461.876 210.426 460.862 208.992 460.867 207.36L460.885 202.825L446.367 202.769L446.349 207.303C446.344 208.937 445.316 210.361 443.805 210.959C442.988 211.275 442.206 211.645 441.476 212.068C438.115 213.99 436.422 217.773 436.413 220.311C436.391 223.638 437.065 226.152 438.65 229.087C438.73 229.235 438.811 229.383 438.893 229.531C441.454 234.16 441.434 239.741 439.015 244.444C438.87 244.724 438.732 245.003 438.604 245.282C437.494 247.669 436.144 250.399 435.561 252.961C434.995 255.446 434.862 258.115 434.851 260.773L434.77 281.897C434.758 284.642 436.555 287.386 440.164 289.485C443.113 291.2 446.821 292.227 450.656 292.549C452.397 292.699 454.166 292.706 455.898 292.569C459.726 292.259 463.404 291.268 466.346 289.586C469.971 287.516 471.79 284.786 471.8 282.051L471.86 266.772C471.867 264.868 471.941 262.879 471.95 260.889C471.96 258.24 471.855 255.58 471.309 253.1" fill="#FF93D4"/>
<path d="M453.407 292.667C452.488 292.667 451.568 292.626 450.656 292.548C446.821 292.227 443.113 291.2 440.164 289.484C436.57 287.394 434.772 284.663 434.77 281.929C434.77 281.918 434.77 281.907 434.77 281.897L434.851 260.773C434.862 258.115 434.995 255.446 435.561 252.961C436.144 250.399 437.494 247.668 438.604 245.281C438.732 245.003 438.871 244.724 439.015 244.444C440.21 242.119 440.819 239.581 440.822 237.05C440.823 234.457 440.189 231.872 438.893 229.531C438.811 229.383 438.73 229.234 438.65 229.087C437.089 226.198 436.413 223.717 436.413 220.466C436.413 220.414 436.413 220.363 436.413 220.311C436.422 217.773 438.115 213.989 441.476 212.068C442.206 211.645 442.988 211.275 443.805 210.959C443.857 210.938 443.908 210.917 443.958 210.895C444.183 212.138 445.126 213.355 446.779 214.322C448.715 215.449 451.263 216.015 453.81 216.015C456.31 216.015 458.809 215.469 460.725 214.377C461.684 213.825 462.414 213.186 462.895 212.499C463.216 212.049 463.43 211.577 463.539 211.098C464.297 211.406 465.023 211.761 465.703 212.162C469.044 214.105 470.706 217.891 470.703 220.429C470.703 220.434 470.703 220.438 470.703 220.443C470.699 223.748 470.015 226.246 468.429 229.142C469.792 226.652 470.485 224.455 470.656 221.79C470.321 222.842 469.855 223.858 469.28 224.791C467.615 227.485 465.191 229.614 462.738 231.617C460.249 233.647 457.485 235.956 457.177 239.151C456.877 242.243 459.059 245.055 461.54 246.924C464.022 248.794 466.926 250.111 469.157 252.275C470.129 253.216 470.94 254.301 471.687 255.433C471.593 254.643 471.477 253.861 471.309 253.099C471.831 255.473 471.951 258.012 471.951 260.548C471.951 260.662 471.951 260.776 471.95 260.889C471.941 262.879 471.867 264.868 471.86 266.772L471.8 282.05C471.79 284.786 469.971 287.516 466.346 289.586C463.404 291.268 459.726 292.259 455.898 292.568C455.073 292.633 454.241 292.667 453.407 292.667V292.667ZM466.163 237.257C466.163 234.639 466.812 232.031 468.133 229.676C468.222 229.518 468.309 229.361 468.396 229.202C468.309 229.361 468.222 229.518 468.133 229.677C466.812 232.031 466.163 234.639 466.163 237.257ZM468.413 229.172C468.417 229.165 468.42 229.158 468.425 229.151C468.42 229.158 468.417 229.165 468.413 229.172Z" fill="#C9467D"/>
<path d="M471.309 253.099C470.744 250.563 469.449 247.856 468.365 245.481C469.449 247.856 470.744 250.563 471.309 253.099ZM467.92 244.556C466.756 242.257 466.164 239.753 466.163 237.256C466.164 239.752 466.756 242.257 467.92 244.556ZM468.396 229.202C468.401 229.192 468.407 229.181 468.413 229.172C468.407 229.181 468.401 229.192 468.396 229.202ZM468.425 229.15C468.426 229.147 468.427 229.144 468.429 229.142C468.427 229.144 468.426 229.148 468.425 229.15Z" fill="#D5D7D4"/>
<path d="M471.687 255.434C470.94 254.301 470.129 253.217 469.157 252.275C466.926 250.111 464.022 248.794 461.54 246.925C459.059 245.055 456.877 242.244 457.177 239.152C457.485 235.957 460.249 233.647 462.738 231.617C465.191 229.614 467.615 227.485 469.28 224.791C469.855 223.858 470.321 222.842 470.656 221.79C470.485 224.456 469.792 226.653 468.429 229.143C468.427 229.145 468.426 229.147 468.425 229.151C468.42 229.158 468.417 229.165 468.413 229.172C468.407 229.181 468.401 229.192 468.396 229.203C468.309 229.361 468.222 229.518 468.133 229.676C466.812 232.032 466.163 234.64 466.163 237.257C466.164 239.754 466.756 242.258 467.92 244.556C468.061 244.838 468.198 245.117 468.327 245.396C468.34 245.425 468.353 245.453 468.365 245.481C469.449 247.857 470.744 250.564 471.309 253.1C471.477 253.861 471.593 254.643 471.687 255.434" fill="#6E3383"/>
<path d="M443.914 207.831L443.905 210.272C443.889 211.726 444.851 213.194 446.779 214.322C450.618 216.557 456.859 216.582 460.725 214.377C461.684 213.825 462.414 213.186 462.895 212.499C463.378 211.821 463.62 211.095 463.623 210.368L463.631 207.889C463.632 207.668 463.614 207.448 463.558 207.227C463.324 205.992 462.391 204.792 460.765 203.848L460.622 203.77C456.765 201.611 450.629 201.616 446.821 203.794C445.19 204.726 444.236 205.917 443.993 207.142C443.934 207.371 443.915 207.6 443.914 207.831" fill="#FF93D4"/>
<path d="M453.81 216.015C451.263 216.015 448.715 215.449 446.779 214.322C444.866 213.204 443.905 211.75 443.905 210.305C443.905 210.294 443.905 210.283 443.905 210.272L443.914 207.83C443.914 207.711 443.92 207.592 443.933 207.473C443.767 209.039 444.718 210.64 446.788 211.845C448.725 212.974 451.274 213.539 453.819 213.539C456.32 213.539 458.818 212.993 460.73 211.9C462.601 210.829 463.568 209.431 463.631 208.019L463.623 210.368C463.62 211.095 463.378 211.82 462.895 212.498C462.414 213.186 461.684 213.825 460.725 214.376C458.809 215.469 456.31 216.015 453.81 216.015" fill="#CB4A9F"/>
<path d="M463.631 208.02V207.888C463.631 207.881 463.631 207.874 463.631 207.867C463.631 207.655 463.612 207.441 463.558 207.227C463.56 207.218 463.562 207.208 463.565 207.199C463.621 207.471 463.643 207.746 463.631 208.02ZM443.933 207.473C443.946 207.357 443.965 207.24 443.99 207.123C443.991 207.129 443.992 207.136 443.993 207.142C443.965 207.252 443.946 207.363 443.933 207.473Z" fill="#BCBABA"/>
<path d="M453.819 213.539C451.274 213.539 448.725 212.974 446.788 211.845C444.718 210.641 443.768 209.039 443.933 207.473C443.946 207.363 443.965 207.252 443.993 207.142C444.228 208.368 445.17 209.568 446.794 210.513C448.513 211.515 450.713 212.069 452.951 212.174C453.247 212.189 453.544 212.196 453.84 212.196C456.337 212.196 458.828 211.653 460.741 210.557C461.7 210.005 462.42 209.377 462.91 208.689C463.247 208.222 463.461 207.724 463.558 207.227C463.612 207.441 463.631 207.655 463.631 207.867C463.631 207.874 463.631 207.881 463.631 207.888V208.02C463.568 209.431 462.601 210.83 460.73 211.9C458.818 212.993 456.32 213.539 453.819 213.539" fill="#09AC94"/>
<path d="M443.925 204.983L443.92 206.452C443.919 206.682 443.936 206.912 443.993 207.142C444.228 208.368 445.17 209.568 446.794 210.513C448.513 211.515 450.713 212.069 452.951 212.174C455.737 212.318 458.6 211.784 460.741 210.557C461.7 210.005 462.42 209.377 462.91 208.689C463.247 208.222 463.461 207.724 463.558 207.227C463.617 207.007 463.636 206.778 463.637 206.557L463.643 205.041C463.649 203.576 462.697 202.118 460.777 201C460.606 200.903 460.433 200.808 460.252 200.72C456.383 198.762 450.515 198.835 446.831 200.946C444.893 202.059 443.921 203.52 443.925 204.983" fill="#FF93D4"/>
<path d="M453.84 212.196C453.544 212.196 453.247 212.189 452.951 212.174C450.713 212.069 448.513 211.515 446.794 210.513C445.17 209.568 444.228 208.368 443.993 207.142C443.939 206.919 443.92 206.697 443.92 206.474C443.92 206.467 443.92 206.459 443.92 206.452L443.925 204.983C443.925 204.932 443.926 204.881 443.927 204.83C443.926 204.865 443.926 204.899 443.926 204.935C443.913 208.065 448.316 210.619 453.762 210.641C453.785 210.641 453.808 210.641 453.831 210.641C459.243 210.641 463.628 208.13 463.643 205.014C463.643 205.017 463.643 205.021 463.643 205.024C463.643 205.03 463.643 205.035 463.643 205.041L463.637 206.558C463.636 206.778 463.617 207.008 463.558 207.227C463.461 207.724 463.247 208.222 462.91 208.689C462.42 209.377 461.7 210.005 460.741 210.557C458.828 211.653 456.337 212.196 453.84 212.196" fill="#CB4A9F"/>
<path d="M443.926 204.935C443.913 208.065 448.316 210.62 453.762 210.641C459.206 210.663 463.63 208.142 463.643 205.012C463.656 201.882 459.25 199.327 453.806 199.306C448.361 199.285 443.936 201.805 443.926 204.935Z" fill="#FF93D4"/>
<path d="M450.39 199.121L450.37 204.226L450.396 204.464C450.478 204.89 450.804 205.305 451.366 205.633C451.962 205.98 452.724 206.172 453.5 206.209C454.466 206.259 455.457 206.073 456.199 205.648C456.532 205.457 456.781 205.239 456.951 205.002C457.068 204.839 457.142 204.666 457.176 204.494L457.203 204.262L457.222 199.14C457.224 198.633 456.895 198.128 456.231 197.74L456.048 197.643C454.707 196.964 452.674 196.989 451.398 197.72C450.726 198.106 450.388 198.613 450.39 199.121" fill="#FF93D4"/>
<path d="M453.81 206.216C453.707 206.216 453.603 206.214 453.5 206.209C452.724 206.173 451.962 205.98 451.366 205.633C450.804 205.306 450.478 204.89 450.396 204.465L450.37 204.226L450.39 199.121C450.39 199.116 450.39 199.113 450.39 199.109C450.391 200.191 451.915 201.074 453.799 201.081C453.807 201.081 453.815 201.081 453.823 201.081C455.698 201.081 457.218 200.21 457.222 199.131C457.222 199.134 457.222 199.137 457.222 199.14L457.203 204.263L457.176 204.494C457.142 204.667 457.068 204.839 456.951 205.002C456.781 205.239 456.532 205.457 456.199 205.648C455.536 206.028 454.674 206.216 453.81 206.216V206.216ZM453.404 197.165C453.408 197.165 453.413 197.165 453.416 197.164C453.413 197.165 453.408 197.165 453.404 197.165ZM453.421 197.164C453.544 197.157 453.667 197.152 453.789 197.152C453.864 197.152 453.937 197.155 454.012 197.157C453.945 197.155 453.88 197.153 453.814 197.153C453.806 197.153 453.798 197.153 453.789 197.153C453.665 197.153 453.543 197.157 453.421 197.164ZM454.021 197.157C454.017 197.157 454.015 197.157 454.013 197.157C454.015 197.157 454.017 197.157 454.021 197.157Z" fill="#CB4A9F"/>
<path d="M450.39 199.104C450.385 200.188 451.912 201.074 453.799 201.081C455.686 201.089 457.22 200.215 457.222 199.13C457.227 198.045 455.701 197.16 453.814 197.154C451.927 197.145 450.394 198.019 450.39 199.104" fill="#FF93D4"/>
<path d="M453.813 199.813C453.81 199.813 453.807 199.813 453.804 199.813C453.134 199.812 452.593 199.496 452.594 199.111C452.595 198.728 453.135 198.419 453.803 198.419C453.805 198.419 453.807 198.419 453.81 198.419C454.479 198.422 455.02 198.736 455.019 199.121C455.018 199.505 454.479 199.813 453.813 199.813Z" fill="#C9467D"/>
<path d="M386.456 0.32188L300.774 49.8047C300.044 50.2264 299.452 51.2516 299.452 52.0938V87.723C299.452 88.5663 300.047 89.5856 300.781 89.999L305.517 92.6542C306.251 93.0676 307.438 93.0629 308.168 92.6413L393.85 43.1596C394.58 42.738 395.172 41.7127 395.172 40.8705V5.24018C395.172 4.39802 394.576 3.37869 393.842 2.96411L389.108 0.308903C388.373 -0.104497 387.187 -0.0986072 386.456 0.32188" fill="#FF93D4"/>
<path d="M306.846 91.8785V56.2493C306.846 55.406 307.438 54.3808 308.168 53.9603L393.85 4.47746C394.58 4.05697 395.172 4.39831 395.172 5.24047V40.8708C395.172 41.713 394.58 42.7382 393.85 43.1599L308.168 92.6416C307.438 93.0632 306.846 92.7219 306.846 91.8785" fill="#FF93D4"/>
<path d="M306.315 92.9194C306.011 92.8757 305.73 92.7883 305.515 92.656L302.942 91.2103L305.517 92.6537C305.747 92.7836 306.024 92.8722 306.315 92.9194ZM300.073 89.3654C299.7 88.8858 299.451 88.2693 299.451 87.7259V74.8314L299.452 74.8302V87.7224C299.452 88.2669 299.7 88.8847 300.073 89.3654V89.3654ZM299.451 64.6641V52.0932C299.451 51.9503 299.468 51.8027 299.5 51.655C299.47 51.8038 299.452 51.9515 299.452 52.0932V64.6629L299.451 64.6641" fill="#C3C5C2"/>
<path d="M306.8 92.9541C306.636 92.9541 306.473 92.9435 306.315 92.9198C306.024 92.8726 305.747 92.784 305.517 92.6541L302.942 91.2107L300.782 89.9965C300.522 89.8524 300.279 89.6292 300.073 89.3658C299.7 88.8851 299.452 88.2673 299.452 87.7228V74.8306L306.845 68.7064L299.566 64.5689L299.452 64.6633V52.0936C299.452 51.9519 299.47 51.8042 299.5 51.6554C299.568 51.3471 299.699 51.0353 299.871 50.7459L307.233 54.9461C307.155 55.0795 307.088 55.2189 307.032 55.3595C306.913 55.6559 306.846 55.963 306.846 56.2489V91.8781C306.846 92.4746 307.141 92.8195 307.572 92.8218C307.576 92.8218 307.58 92.8218 307.584 92.8218C307.71 92.8218 307.851 92.7911 308.001 92.7261C307.661 92.8773 307.227 92.9541 306.8 92.9541Z" fill="#FF7BDA"/>
<path d="M308.081 92.688C308.099 92.6785 308.116 92.6702 308.133 92.6608C308.142 92.656 308.151 92.6513 308.159 92.6466C308.133 92.6608 308.106 92.675 308.081 92.688Z" fill="#C3C5C2"/>
<path d="M308.001 92.7256C308.025 92.7149 308.047 92.7043 308.07 92.6936C308.072 92.6924 308.073 92.6912 308.076 92.69C308.087 92.6841 308.099 92.6782 308.111 92.6723C308.118 92.6676 308.127 92.664 308.134 92.6604C308.116 92.6699 308.099 92.6782 308.082 92.6877C308.054 92.7019 308.027 92.7137 308.001 92.7256" fill="#FF7BDA"/>
<path d="M308.159 92.647C308.162 92.6443 308.166 92.6429 308.169 92.6403C308.166 92.6429 308.162 92.6443 308.159 92.647Z" fill="#C3C5C2"/>
<path d="M307.572 92.8223C307.141 92.8199 306.846 92.475 306.846 91.8785V56.2493V91.875C306.846 92.4301 307.126 92.8164 307.572 92.8223ZM308.075 92.6911C308.087 92.6852 308.099 92.6793 308.111 92.6734C308.099 92.6793 308.087 92.6852 308.075 92.6911ZM307.032 55.3599C307.088 55.2194 307.155 55.08 307.233 54.9465L307.236 54.9477C307.158 55.0812 307.089 55.2194 307.032 55.3599Z" fill="#FF7BDA"/>
<path d="M299.866 50.7446V50.7434C300.081 50.3844 300.364 50.069 300.679 49.8635C300.365 50.0702 300.082 50.3856 299.866 50.7446ZM336.474 29.1876L386.458 0.319221C386.826 0.106615 387.31 0.000317459 387.795 0.000317459C388.269 0.000317459 388.743 0.101907 389.109 0.307426L393.84 2.96145C393.98 3.04059 394.113 3.14099 394.24 3.25792C394.115 3.14217 393.981 3.04177 393.842 2.96382L389.108 0.308609C388.745 0.104271 388.271 0.00268205 387.797 0.00268205C387.312 0.00268205 386.826 0.108979 386.456 0.321585L336.474 29.1876" fill="white"/>
<path d="M307.233 54.9463L299.872 50.7438C299.871 50.745 299.871 50.7462 299.871 50.7462L299.866 50.745C300.082 50.3859 300.365 50.0706 300.679 49.8639C300.711 49.8426 300.744 49.8225 300.776 49.8048L336.474 29.1879L386.456 0.321945C386.826 0.109339 387.312 0.0030416 387.797 0.0030416C388.271 0.0030416 388.745 0.10463 389.108 0.308968L393.842 2.96418C393.981 3.04213 394.115 3.14253 394.24 3.25828C394.713 3.69648 395.074 4.36384 395.152 4.98158C395.115 4.77015 395.033 4.60241 394.917 4.48666C394.792 4.36146 394.628 4.29533 394.439 4.29533C394.261 4.29533 394.06 4.35321 393.848 4.47605L333.479 39.3422L308.167 53.9601C307.802 54.1703 307.472 54.5317 307.233 54.9463" fill="#EF6FBC"/>
<path d="M307.236 54.9473L307.233 54.9461C307.472 54.5315 307.802 54.1701 308.167 53.9598L333.479 39.342L308.17 53.9598C307.805 54.1725 307.474 54.5339 307.236 54.9473ZM395.154 5.00026C395.12 4.77938 395.036 4.60574 394.917 4.48645C395.033 4.6022 395.115 4.76994 395.152 4.98137C395.152 4.98727 395.153 4.99435 395.154 5.00026" fill="#EF6FBC"/>
<path d="M307.233 54.9463L299.871 50.7462C299.871 50.7462 299.871 50.745 299.872 50.7438L307.233 54.9463" fill="#58C6B3"/>
<path d="M295.829 79.8716C295 79.3779 288.784 75.8782 288.583 75.7624C287.972 75.3903 287.753 74.4867 288.321 73.8761L299.566 64.5687L306.845 68.7062L295.605 78.0196C295.056 78.6054 295.274 79.47 295.829 79.8716" fill="#FF93D4"/>
<path d="M295.829 79.8716C295 79.3779 288.784 75.8782 288.583 75.7624C288.218 75.5392 287.992 75.1281 287.991 74.7017C287.991 74.4147 288.092 74.1218 288.321 73.8761L299.566 64.5687L306.845 68.7062L299.452 74.8305L299.451 74.8317L295.605 78.0196C295.383 78.2546 295.287 78.5357 295.286 78.8133C295.286 79.2267 295.497 79.6318 295.829 79.8716" fill="#CB4A9F"/>
<path d="M306.846 68.7085L295.604 78.0171C294.841 78.8344 295.4 79.9554 296.358 80.0439L306.846 78.8191V68.7085Z" fill="#FF93D4"/>
<path d="M313.572 65.4004C313.503 65.2776 313.477 65.1122 313.498 64.8984C313.518 64.6882 313.572 64.4921 313.666 64.3114L316.962 57.9096C317.045 57.7525 317.144 57.5683 317.262 57.3545C317.379 57.1419 317.514 56.9907 317.667 56.9033L319.54 55.8225C319.653 55.7576 319.749 55.7741 319.831 55.8721C319.913 55.9702 319.954 56.119 319.954 56.3186V73.9307C319.954 74.1303 319.913 74.3275 319.831 74.52C319.749 74.7126 319.653 74.8413 319.54 74.9063L317.529 76.0661C317.418 76.1311 317.32 76.1146 317.239 76.0165C317.158 75.9173 317.116 75.7685 317.116 75.5689V63.6547L315.29 67.1615C315.2 67.3434 315.096 67.4521 314.984 67.4887C314.872 67.5277 314.781 67.4851 314.707 67.3623L313.572 65.4004" fill="#FAFAF9"/>
<path d="M325.352 70.8146C325.352 71.0142 325.311 71.2103 325.23 71.4028C325.146 71.5954 325.05 71.7241 324.939 71.7891L322.927 72.949C322.816 73.0139 322.72 72.9974 322.637 72.8993C322.555 72.8013 322.515 72.6513 322.515 72.4517V68.8811C322.515 68.6803 322.555 68.4842 322.637 68.2905C322.72 68.0992 322.816 67.9693 322.927 67.9055L324.939 66.7444C325.05 66.6806 325.146 66.6983 325.23 66.7952C325.311 66.8944 325.352 67.0421 325.352 67.2429V70.8146" fill="#FAFAF9"/>
<path d="M330.519 67.8312C330.519 68.0308 330.478 68.2269 330.398 68.4194C330.314 68.6131 330.217 68.7407 330.106 68.8057L328.095 69.9656C327.984 70.0305 327.888 70.014 327.804 69.916C327.723 69.8179 327.682 69.6679 327.682 69.4695V65.8977C327.682 65.6969 327.723 65.502 327.804 65.3083C327.888 65.1158 327.984 64.987 328.095 64.9221L330.106 63.7622C330.217 63.6972 330.314 63.7149 330.398 63.8118C330.478 63.911 330.519 64.0598 330.519 64.2594V67.8312Z" fill="#FAFAF9"/>
<path d="M335.688 64.8462C335.688 65.0458 335.646 65.243 335.565 65.4355C335.481 65.6281 335.385 65.7568 335.274 65.8218L333.263 66.9817C333.153 67.0466 333.055 67.0301 332.973 66.9321C332.892 66.834 332.85 66.684 332.85 66.4844V62.9138C332.85 62.713 332.892 62.517 332.973 62.3232C333.055 62.1319 333.153 62.002 333.263 61.937L335.274 60.7771C335.385 60.7122 335.481 60.731 335.565 60.8279C335.646 60.9271 335.688 61.0748 335.688 61.2756V64.8462" fill="#FAFAF9"/>
<path d="M346.53 46.3736C346.53 46.9015 346.499 47.4271 346.437 47.9539C346.376 48.4795 346.27 49.0181 346.122 49.565C345.974 50.1154 345.781 50.6859 345.54 51.28C345.3 51.873 345.005 52.4966 344.659 53.1521L342.51 57.2814L346.36 55.0585C346.472 54.9936 346.57 55.0101 346.652 55.1081C346.733 55.2073 346.776 55.3562 346.776 55.5558V58.446C346.776 58.6456 346.733 58.8417 346.652 59.0354C346.57 59.2268 346.472 59.3555 346.36 59.4205L338.263 64.0954C338.15 64.1604 338.054 64.1439 337.973 64.0458C337.889 63.9478 337.849 63.799 337.849 63.5993V61.2548C337.849 60.963 337.883 60.6536 337.949 60.324C338.016 59.9957 338.128 59.6839 338.293 59.3898L342.879 50.908C343.238 50.2276 343.461 49.6666 343.553 49.2236C343.646 48.7784 343.69 48.3756 343.69 48.0118C343.69 47.8854 343.68 47.7153 343.653 47.5027C343.628 47.2901 343.569 47.0964 343.478 46.9228C343.386 46.748 343.256 46.6287 343.087 46.5613C342.918 46.4952 342.691 46.5448 342.405 46.7102C342.116 46.8755 341.884 47.0964 341.707 47.3728C341.527 47.6492 341.388 47.9232 341.293 48.1972C341.195 48.4724 341.124 48.7358 341.078 48.9898C341.032 49.2425 340.999 49.4315 340.979 49.5508C340.927 49.8355 340.846 50.0504 340.739 50.1934C340.635 50.3375 340.506 50.4509 340.364 50.5324L338.478 51.6214L338.239 51.5812C338.174 51.5021 338.14 51.3804 338.14 51.2163C338.15 50.4473 338.242 49.6347 338.417 48.7807C338.591 47.9268 338.854 47.0881 339.208 46.2661C339.56 45.4452 339.999 44.6916 340.526 44.0054C341.052 43.3203 341.672 42.7711 342.388 42.3577C343.064 41.9679 343.66 41.8014 344.175 41.8569C344.691 41.9136 345.122 42.138 345.472 42.5278C345.818 42.9175 346.082 43.4467 346.261 44.1152C346.441 44.7849 346.53 45.5373 346.53 46.3736" fill="#FAFAF9"/>
<path d="M351.836 55.5237C351.836 55.7234 351.795 55.9206 351.712 56.1131C351.63 56.3057 351.534 56.4344 351.422 56.4994L349.411 57.6593C349.3 57.7242 349.202 57.7065 349.12 57.6096C349.04 57.5104 348.999 57.3616 348.999 57.162V53.5914C348.999 53.3906 349.04 53.1945 349.12 53.0008C349.202 52.8095 349.3 52.6795 349.411 52.6146L351.422 51.4547C351.534 51.3897 351.63 51.4086 351.712 51.5055C351.795 51.6047 351.836 51.7524 351.836 51.9531V55.5237" fill="#FAFAF9"/>
<path d="M357.003 52.5412C357.003 52.7396 356.963 52.9369 356.879 53.1294C356.798 53.3219 356.702 53.4507 356.59 53.5156L354.578 54.6755C354.467 54.7405 354.369 54.7239 354.288 54.6259C354.207 54.5279 354.166 54.3779 354.166 54.1782V50.6076C354.166 50.4069 354.207 50.2108 354.288 50.0171C354.369 49.8257 354.467 49.6958 354.578 49.632L356.59 48.471C356.702 48.4072 356.798 48.4249 356.879 48.5218C356.963 48.6198 357.003 48.7686 357.003 48.9694V52.5412" fill="#FAFAF9"/>
<path d="M362.171 49.5566C362.171 49.7562 362.13 49.9534 362.046 50.1459C361.965 50.3385 361.869 50.4672 361.757 50.531L359.748 51.6921C359.636 51.7559 359.538 51.7393 359.457 51.6413C359.375 51.5432 359.333 51.3944 359.333 51.1948V47.623C359.333 47.4222 359.375 47.2273 359.457 47.0336C359.538 46.8423 359.636 46.7124 359.748 46.6474L361.757 45.4875C361.869 45.4226 361.965 45.4403 362.046 45.5371C362.13 45.6363 362.171 45.7852 362.171 45.986V49.5566" fill="#FAFAF9"/>
<path d="M372.462 25.268C372.574 25.2043 372.67 25.2208 372.751 25.3188C372.834 25.4169 372.874 25.5657 372.874 25.7653V28.6556C372.874 28.8552 372.839 29.0571 372.768 29.2627C372.695 29.467 372.628 29.6418 372.569 29.7871L370.713 34.1833C371.51 34.0876 372.16 34.3262 372.659 34.9003C373.161 35.4731 373.412 36.47 373.412 37.8874C373.412 39.9414 373.012 41.7166 372.215 43.2132C371.418 44.7085 370.303 45.8707 368.872 46.6963C368.135 47.1216 367.485 47.3436 366.916 47.3625C366.349 47.3814 365.871 47.2479 365.483 46.9633C365.094 46.6798 364.795 46.2747 364.586 45.7502C364.376 45.2258 364.266 44.6317 364.257 43.9632C364.257 43.8013 364.288 43.6407 364.356 43.4836C364.423 43.3277 364.501 43.2214 364.593 43.1683L366.525 42.0533C366.739 41.9292 366.905 41.921 367.017 42.0296C367.128 42.1371 367.254 42.2505 367.392 42.3722C367.529 42.4915 367.708 42.5753 367.929 42.6202C368.148 42.6663 368.464 42.5718 368.872 42.3356C369.363 42.0521 369.77 41.6718 370.093 41.1946C370.413 40.7186 370.573 40.1623 370.573 39.5256C370.573 38.8902 370.413 38.5193 370.093 38.4142C369.77 38.3102 369.363 38.3976 368.872 38.6811L367.599 39.4158C367.486 39.4819 367.389 39.4654 367.309 39.3662C367.225 39.2681 367.186 39.1193 367.186 38.9185V36.5751C367.186 36.3743 367.22 36.1735 367.293 35.968C367.363 35.7625 367.436 35.5759 367.507 35.4081L369.132 31.5529L365.129 33.8632C365.017 33.9282 364.922 33.9116 364.839 33.8124C364.757 33.7144 364.716 33.5656 364.716 33.3659V30.4757C364.716 30.2761 364.757 30.0788 364.839 29.8863C364.922 29.6938 365.017 29.565 365.129 29.5012L372.462 25.268" fill="#FAFAF9"/>
<path d="M378.473 40.1452C378.473 40.3448 378.431 40.5409 378.349 40.7334C378.268 40.9259 378.17 41.0547 378.058 41.1197L376.049 42.2795C375.937 42.3445 375.841 42.328 375.758 42.2299C375.676 42.1319 375.636 41.9819 375.636 41.7834V38.2117C375.636 38.0109 375.676 37.816 375.758 37.6223C375.841 37.4309 375.937 37.301 376.049 37.236L378.058 36.075C378.17 36.0112 378.268 36.0289 378.349 36.1258C378.431 36.225 378.473 36.3738 378.473 36.5746V40.1452" fill="#FAFAF9"/>
<path d="M383.64 37.1611C383.64 37.3607 383.599 37.5567 383.516 37.7505C383.436 37.943 383.338 38.0717 383.226 38.1355L381.217 39.2966C381.104 39.3603 381.009 39.3438 380.926 39.2458C380.843 39.1477 380.803 38.9989 380.803 38.7993V35.2275C380.803 35.0267 380.843 34.8318 380.926 34.6381C381.009 34.4456 381.104 34.3169 381.217 34.2519L383.226 33.092C383.338 33.0271 383.436 33.0448 383.516 33.1416C383.599 33.2408 383.64 33.3885 383.64 33.5893V37.1611Z" fill="#FAFAF9"/>
<path d="M388.808 34.1784C388.808 34.3768 388.768 34.5741 388.686 34.7666C388.603 34.9591 388.507 35.0879 388.396 35.1528L386.384 36.3127C386.272 36.3777 386.176 36.3611 386.093 36.2631C386.011 36.1651 385.971 36.0151 385.971 35.8154V32.2449C385.971 32.0441 386.011 31.848 386.093 31.6543C386.176 31.4629 386.272 31.333 386.384 31.2692L388.396 30.1082C388.507 30.0444 388.603 30.0621 388.686 30.159C388.768 30.2582 388.808 30.4058 388.808 30.6066V34.1784" fill="#FAFAF9"/>
<path d="M162.156 247.319C162.127 247.319 162.1 247.316 162.072 247.314L161.901 247.282L155.141 245.369C154.645 245.228 154.357 244.713 154.497 244.218C154.614 243.806 154.998 243.54 155.402 243.54C155.483 243.54 155.566 243.551 155.648 243.575L162.408 245.488C162.905 245.629 163.193 246.145 163.051 246.64C162.936 247.051 162.562 247.319 162.156 247.319Z" fill="#9FA1A1"/>
<path d="M155.136 252.553C154.753 252.519 154.416 252.247 154.316 251.853C154.189 251.354 154.492 250.848 154.992 250.721L161.803 248.999C161.879 248.98 161.955 248.971 162.03 248.971C162.449 248.971 162.829 249.251 162.934 249.674C163.062 250.173 162.759 250.68 162.26 250.806L155.448 252.528L155.136 252.553Z" fill="#9FA1A1"/>
<path d="M158.644 258.841C158.616 258.841 158.589 258.84 158.56 258.838C158.345 258.818 158.137 258.724 157.977 258.558C157.618 258.188 157.626 257.599 157.996 257.24L163.034 252.343C163.214 252.165 163.448 252.079 163.682 252.079C163.926 252.079 164.17 252.174 164.351 252.362C164.711 252.731 164.702 253.321 164.333 253.68L159.294 258.577C159.114 258.754 158.878 258.841 158.644 258.841" fill="#9FA1A1"/>
<path d="M164.753 262.57C164.726 262.57 164.698 262.569 164.669 262.565L164.499 262.534C164.003 262.393 163.715 261.878 163.857 261.383L165.77 254.622C165.886 254.211 166.265 253.944 166.669 253.944C166.753 253.944 166.837 253.956 166.92 253.979C167.417 254.12 167.705 254.635 167.564 255.13L165.65 261.891C165.534 262.302 165.161 262.57 164.753 262.57Z" fill="#9FA1A1"/>
<path d="M349.186 157.674C349.385 157.559 332.304 167.422 332.304 167.422L295.23 172.781C295.23 172.781 268.135 132.128 263.988 125.736C259.841 119.342 254.998 115.253 243.763 115.26L245.886 147.693C246.238 148.741 268.65 176.346 283.425 191.373C288.642 196.679 291.849 198.029 300.015 195.767C320.845 189.995 346.056 172.881 348.116 168.59C350.783 163.034 348.988 157.787 349.186 157.674" fill="#F6879F"/>
<path d="M342.234 137.115C344.448 129.879 353.49 123.892 361.947 126.26L361.945 126.263C363.16 126.591 364.436 127.126 365.753 127.887C373.954 132.616 380.6 144.13 380.6 153.603C380.6 155.372 380.367 156.945 379.936 158.302L379.94 158.301C377.725 165.538 368.682 171.49 360.225 169.123L360.229 169.121C359.016 168.79 357.742 168.255 356.429 167.496C348.228 162.762 341.581 151.249 341.581 141.781C341.581 140.025 341.811 138.465 342.234 137.115" fill="white"/>
<path d="M356.429 167.498C348.228 162.763 341.581 151.25 341.581 141.782C341.581 132.312 348.228 128.471 356.429 133.202C364.63 137.932 371.276 149.445 371.276 158.918C371.276 168.39 364.629 172.232 356.429 167.498Z" fill="#E4E4E4"/>
<path d="M356.429 143.705C353.275 141.885 350.719 143.36 350.719 147.003C350.719 150.644 353.275 155.072 356.429 156.893C359.583 158.714 362.14 157.237 362.14 153.596C362.14 149.954 359.583 145.526 356.429 143.705Z" fill="white"/>
<path d="M354.474 149.171C354.474 150.416 355.346 151.931 356.425 152.562C356.927 152.855 357.394 152.9 357.739 152.734L357.881 152.652C358.197 152.426 358.384 152.007 358.384 151.429C358.384 150.183 357.506 148.668 356.425 148.037C355.923 147.744 355.465 147.699 355.12 147.864L354.977 147.947C354.662 148.164 354.474 148.585 354.474 149.171" fill="#E4E4E4"/>
<path d="M323.108 167.28C323.108 168.526 323.978 170.041 325.059 170.664C325.374 170.851 325.652 170.926 325.907 170.926C326.14 170.926 326.35 170.858 326.56 170.739L357.739 152.734L357.881 152.651C358.197 152.426 358.384 152.006 358.384 151.429C358.384 150.183 357.506 148.667 356.425 148.036C355.923 147.743 355.465 147.699 355.12 147.864L354.977 147.947L323.799 165.944C323.356 166.199 323.108 166.582 323.108 167.28" fill="#FAFAF9"/>
<path d="M292.502 165.821C294.715 158.585 303.759 152.597 312.215 154.965L312.212 154.968C313.427 155.297 314.703 155.832 316.021 156.592C324.22 161.322 330.868 172.836 330.868 182.309C330.868 184.078 330.635 185.652 330.203 187.009L330.206 187.008C327.992 194.244 318.949 200.196 310.493 197.828L310.497 197.827C309.284 197.496 308.009 196.961 306.696 196.203C298.496 191.469 291.849 179.955 291.849 170.486C291.849 168.732 292.078 167.17 292.502 165.821" fill="white"/>
<path d="M306.696 196.203C298.496 191.469 291.849 179.955 291.849 170.486C291.849 161.018 298.496 157.176 306.696 161.907C314.896 166.636 321.544 178.15 321.543 187.623C321.543 197.096 314.896 200.937 306.696 196.203" fill="#E4E4E4"/>
<path d="M306.696 172.41C303.542 170.59 300.986 172.066 300.986 175.707C300.986 179.349 303.542 183.777 306.696 185.598C309.851 187.418 312.407 185.943 312.407 182.301C312.407 178.659 309.851 174.231 306.696 172.41Z" fill="white"/>
<path d="M304.742 177.874C304.742 179.119 305.613 180.636 306.692 181.265C307.195 181.558 307.662 181.604 308.007 181.438L308.149 181.356C308.464 181.131 308.651 180.71 308.651 180.133C308.651 178.888 307.773 177.371 306.692 176.742C306.19 176.449 305.733 176.404 305.388 176.568L305.245 176.652C304.93 176.869 304.742 177.288 304.742 177.874Z" fill="#E4E4E4"/>
<path d="M300.015 180.606C300.015 181.852 300.885 183.367 301.965 183.991C302.281 184.177 302.558 184.253 302.813 184.253C303.046 184.253 303.256 184.186 303.466 184.065L308.007 181.438L308.149 181.357C308.464 181.131 308.651 180.711 308.651 180.133C308.651 178.888 307.773 177.372 306.692 176.742C306.19 176.449 305.733 176.404 305.388 176.568L305.245 176.652L300.705 179.27C300.263 179.526 300.015 179.908 300.015 180.606" fill="#FAFAF9"/>
<path d="M300.015 180.593C300.015 181.838 300.885 183.353 301.965 183.984C302.468 184.277 302.934 184.322 303.28 184.157L303.422 184.074C303.736 183.849 303.924 183.429 303.924 182.851C303.924 181.605 303.046 180.09 301.965 179.46C301.462 179.167 301.006 179.121 300.66 179.287L300.518 179.369C300.202 179.587 300.015 180.007 300.015 180.593" fill="#DADBD8" fill-opacity="0.18"/>
<path d="M338.373 176.943C345.54 171.466 352.414 171.511 351.173 158.131C350.123 152.175 348.662 151.805 342.886 149.563C340.355 148.582 337.012 147.842 334.961 150.155C334.718 150.429 334.505 150.733 334.219 150.961C333.67 151.398 332.934 151.496 332.239 151.6C330.916 151.794 329.504 152.118 328.623 153.124C327.953 153.89 327.692 154.945 327.034 155.718C326.466 156.384 325.654 156.787 324.992 157.359C323.952 158.255 323.306 159.602 323.3 160.974C323.293 162.726 324.291 163.844 325.477 164.976L329.086 162.892C330.565 161.874 333.614 165.502 332.304 167.422C330.229 170.465 338.373 176.943 338.373 176.943" fill="#F6879F"/>
<path d="M254.865 203.827C257.156 194.558 257.818 171.419 257.818 171.419L190.745 173.431C190.745 173.431 193.548 184.631 194.402 188.047C195.257 191.462 195.361 198.026 195.361 198.026C195.361 198.026 201.869 210.082 221.164 212.211C240.458 214.34 254.865 203.827 254.865 203.827Z" fill="#F6879F"/>
<path d="M257.818 171.419C257.895 172.154 257.43 179.161 257.43 179.161C248.852 186.378 221.341 190.033 192.496 180.424L186.375 156.809C186.375 156.809 207.146 147.693 193.118 117.105L208.197 115.936L234.969 115.26C241.466 115.26 243.763 115.26 243.763 115.26C247.85 119.114 255.695 127.692 261.868 139.215C265.375 145.761 269.845 155.345 257.818 171.419" fill="white"/>
<path d="M219.903 171.63C207.823 168.548 204.79 160.988 203.932 155.448C203.932 155.448 201.65 171.63 218.924 175.401C237.134 179.376 244.621 164.955 244.621 164.955C244.621 164.955 234.481 175.351 219.903 171.63" fill="#E4E4E4"/>
<path d="M117.046 351.702C113.524 354.291 105.337 354.91 98.1175 351.534C90.8973 348.157 87.9158 338.592 89.2622 331.115C90.8927 322.055 95.3701 317.099 96.511 311.65C97.6534 306.203 96.4704 298.637 98.2292 293.789C99.9013 289.182 103.552 286.837 106.499 285.659C108.915 284.696 111.654 284.99 113.894 286.311L116.024 287.569L117.046 351.702" fill="#17282F"/>
<path d="M125.495 317.157L119.898 333.945C119.898 333.945 123.434 345.929 121.446 349.11C118.502 353.821 113.32 354.665 104.59 352.003C94.6087 348.958 92.2501 339.928 92.7428 332.907C93.4437 322.91 102.691 315.379 101.634 305.764C101.118 301.067 101.763 295.757 104.345 291.704C107.24 287.16 111.995 286.309 116.923 287.794C121.145 289.069 124.856 291.724 128.429 294.221C129.429 294.919 130.443 295.631 131.199 296.587C131.859 297.422 132.296 298.414 132.618 299.431C133.266 301.486 133.454 303.683 133.176 305.821C132.916 307.828 131.64 308.997 130.446 310.582C128.795 312.773 127.145 314.966 125.495 317.157" fill="#E4E4E4"/>
<path d="M149.627 309.201C149.28 309.069 132.177 298.132 130.331 297.311C128.484 296.49 123.961 295.311 119.573 305.455C116.447 312.682 120.947 315.348 120.947 315.348L140.961 327.274L149.627 309.201" fill="#F6879F"/>
<path d="M119.898 333.945C117.501 332.7 112.433 331.009 108.229 331.337C106.904 331.441 105.877 330.216 106.289 328.951L106.301 328.918C106.531 328.213 107.161 327.72 107.9 327.662C110.608 327.449 117.178 327.373 121.537 330.962C122.678 333.356 119.898 333.945 119.898 333.945Z" fill="#FF93D4"/>
<path d="M121.948 326.273C119.619 324.907 114.646 322.954 110.43 323.067C109.101 323.102 108.139 321.825 108.616 320.584L108.629 320.551C108.895 319.857 109.55 319.398 110.292 319.378C113.006 319.307 119.571 319.57 123.74 323.378C124.756 325.829 121.948 326.273 121.948 326.273" fill="#FF93D4"/>
<path d="M119.898 333.945C117.707 332.807 113.285 331.296 109.331 331.296C108.959 331.296 108.59 331.309 108.229 331.337C108.177 331.342 108.124 331.344 108.072 331.344C107.024 331.344 106.2 330.513 106.197 329.528C106.196 329.34 106.225 329.146 106.289 328.951L106.301 328.918C106.531 328.213 107.161 327.72 107.9 327.662C108.467 327.617 109.204 327.579 110.054 327.579C113.263 327.579 118.091 328.125 121.537 330.962C121.731 331.369 121.811 331.724 121.811 332.032C121.814 333.539 119.898 333.945 119.898 333.945" fill="#C9467D"/>
<path d="M121.948 326.273C119.684 324.945 114.918 323.062 110.781 323.062C110.663 323.062 110.547 323.063 110.43 323.067C110.412 323.067 110.394 323.068 110.376 323.068C109.309 323.068 108.491 322.22 108.492 321.241C108.492 321.026 108.531 320.805 108.616 320.584L108.629 320.551C108.895 319.857 109.55 319.398 110.292 319.378C110.502 319.372 110.737 319.368 110.991 319.368C114.012 319.368 119.896 319.866 123.74 323.378C123.895 323.752 123.961 324.079 123.961 324.365C123.966 325.955 121.948 326.273 121.948 326.273" fill="#C9467D"/>
<path d="M296.254 353.518L318.465 344.707C318.094 338.985 316.678 331.346 318.145 316.313L292.948 311.515V336.747L296.254 353.518" fill="#F6879F"/>
<path d="M359.639 373.028C360.281 374.369 360.095 376.883 359.336 378.477C358.574 380.07 350.247 384.765 339.017 384.008C327.786 383.251 320.072 378.726 315.791 375.89C311.509 373.055 307.051 372.526 301.489 372.208C295.927 371.89 288.624 369.117 287.404 366.515C286.185 363.915 287.588 359.435 287.588 359.435L359.639 373.028" fill="#17282F"/>
<path d="M314.316 337.975C314.609 337.911 314.905 337.851 315.205 337.791C315.694 337.694 316.202 337.597 316.687 337.712C317.237 337.842 317.69 338.23 318.072 338.647C319.281 339.96 320.01 341.631 320.943 343.151C323.296 346.992 328.237 350.172 333.635 353.074C337.304 355.046 340.899 356.576 344.687 358.28C348.552 360.018 353.68 361.079 356.704 363.117C361.111 366.088 361.68 373.551 356.659 376.498C352.328 379.041 340.93 381.797 328.976 378.41C322.465 376.565 315.237 369.608 306.689 368.939C301.254 368.514 290.976 366.987 287.477 362.859C286.183 361.03 287.91 355.226 289.328 350.217C290.875 344.749 291.448 335.106 293.26 335.588C293.26 335.588 292.769 336.951 293.474 337.682C294.144 338.374 296.68 339.874 297.41 340.497C298.753 341.645 299.579 343.267 300.416 344.822C300.777 345.496 301.208 346.214 301.958 346.496C302.875 346.84 303.56 346.262 304.363 345.893C305.37 345.429 306.547 345.346 307.61 345.661C307.506 344.579 307.315 343.504 307.037 342.452C306.948 342.113 306.85 341.751 306.958 341.417C307.067 341.079 307.363 340.839 307.654 340.635C309.748 339.166 311.913 338.494 314.316 337.975" fill="#E4E4E4"/>
<path d="M328.56 350.117C328.56 350.117 327.779 348.032 324.545 347.431C322.072 346.97 317.704 348.793 314.99 351.03C313.877 351.945 314.021 353.684 315.283 354.381C316.032 354.794 316.952 354.687 317.598 354.123C319.378 352.575 323.369 349.76 328.56 350.117" fill="#FF93D4"/>
<path d="M336.224 354.411C336.224 354.411 334.628 351.913 331.468 351.961C331.468 351.961 325.009 352.146 321.012 355.872C319.993 356.823 320.063 358.44 321.286 359.112C322.012 359.511 322.898 359.405 323.515 358.852C325.318 357.244 328.926 353.865 336.224 354.411Z" fill="#FF93D4"/>
<path d="M344.687 358.28C344.687 358.28 342.907 356.018 339.749 356.066C339.749 356.066 333.731 356.291 329.734 360.018C328.715 360.967 328.784 362.587 330.006 363.256C330.733 363.656 331.619 363.551 332.237 362.999C334.038 361.39 337.389 357.734 344.687 358.28" fill="#FF93D4"/>
<path d="M316.252 354.631C315.92 354.631 315.587 354.549 315.283 354.381C314.593 354 314.237 353.308 314.239 352.608C314.24 352.03 314.485 351.446 314.99 351.03C317.418 349.029 321.169 347.359 323.704 347.359C324.003 347.359 324.285 347.383 324.545 347.431C327.779 348.033 328.56 350.117 328.56 350.117C328.556 350.117 328.553 350.117 328.549 350.117C328.248 350.097 327.95 350.086 327.658 350.086C322.908 350.086 319.274 352.666 317.598 354.123C317.214 354.458 316.735 354.631 316.252 354.631" fill="#C9467D"/>
<path d="M322.217 359.352C321.899 359.352 321.579 359.273 321.286 359.112C320.627 358.749 320.303 358.113 320.304 357.454C320.304 356.891 320.542 356.311 321.012 355.872C325.009 352.146 331.468 351.962 331.468 351.962C331.497 351.961 331.528 351.961 331.558 351.961C334.657 351.961 336.224 354.412 336.224 354.412C335.689 354.371 335.174 354.353 334.677 354.353C328.408 354.353 325.185 357.363 323.515 358.852C323.148 359.182 322.685 359.352 322.217 359.352" fill="#C9467D"/>
<path d="M330.939 363.497C330.621 363.497 330.301 363.418 330.006 363.256C329.348 362.895 329.024 362.258 329.024 361.599C329.025 361.036 329.264 360.456 329.734 360.017C333.731 356.291 339.749 356.065 339.749 356.065C339.782 356.065 339.814 356.065 339.847 356.065C342.944 356.065 344.687 358.28 344.687 358.28C344.189 358.242 343.708 358.224 343.245 358.224C336.939 358.224 333.914 361.5 332.237 362.998C331.869 363.327 331.406 363.497 330.939 363.497" fill="#C9467D"/>
<path d="M311.436 226.817C294.551 223.027 254.212 214.596 254.212 214.596L254.865 203.826C240.271 211.383 209.527 209.248 195.361 198.026L193.123 209.445C193.123 209.445 185.19 218.584 179.252 230.331C176.013 236.74 170.597 246.742 175.986 270.046C179.149 283.732 183.371 319.77 183.371 319.77L142.076 304.539C142.076 304.539 138.5 305.141 135.527 312.884C133.765 317.474 133.11 321.878 134.966 324.158C150.081 336.092 174.579 355.601 199.333 366.54C215.859 372.873 224.659 358.964 225.467 353.817C228.568 334.091 232.155 270.716 232.155 270.716L287.33 268.952C285.506 279.417 292.948 320.306 292.948 320.306C292.948 320.306 306.547 326.2 317.817 320.167C317.817 320.167 325.354 273.104 326.074 257.414C326.877 239.91 327.778 230.487 311.436 226.817" fill="#FF93D4"/>
<path d="M282.826 269.097C286.838 252.581 295.597 251.012 295.597 251.012C289.207 256.261 287.331 266.128 287.33 268.953L282.826 269.097" fill="#D060A3"/>
<path d="M187.529 342.91C187.529 342.91 180.068 329.443 179.215 318.237L183.371 319.77C183.371 319.77 184.497 335.333 187.529 342.91" fill="#D060A3"/>
<path d="M193.118 209.451L193.123 209.445C193.123 209.445 193.122 209.448 193.118 209.451ZM193.123 209.445L195.36 198.028L193.123 209.445Z" fill="#C7C9C7"/>
<path d="M232.049 208.283C218.587 208.283 203.945 204.821 195.368 198.032H195.369C203.946 204.821 218.587 208.283 232.047 208.282C240.821 208.282 249.096 206.81 254.854 203.831V203.833C249.096 206.811 240.822 208.282 232.049 208.283" fill="#F27785"/>
<path d="M231.497 220.335C229.783 220.335 227.943 220.289 225.97 220.186C202.333 218.961 193.235 209.574 193.118 209.452C193.122 209.448 193.123 209.446 193.123 209.446L195.36 198.029L195.368 198.033C203.945 204.822 218.587 208.284 232.049 208.284C240.822 208.283 249.096 206.812 254.854 203.833L254.202 214.597C254.202 214.597 250.47 220.336 231.497 220.335" fill="#D060A3"/>
<path d="M232.155 270.716C232.155 270.716 232.531 252.941 217.69 239.911C217.69 239.911 230.405 245.766 234.65 264.507C234.65 264.507 244.126 260.108 249.035 246.9C249.035 246.9 247.524 260.108 239.919 267.611L262.852 269.735L232.155 270.716" fill="#D060A3"/>
<path d="M224.719 31.8244C204.331 31.8244 187.802 48.3522 187.802 68.7411C187.802 89.1288 204.331 105.658 224.719 105.658C245.107 105.658 261.635 89.1288 261.635 68.7411C261.635 48.3522 245.107 31.8244 224.719 31.8244Z" fill="#17282F"/>
<path d="M186.218 54.3142C187.549 54.2551 188.885 54.3283 190.204 54.5386C190.65 54.6106 191.134 54.7205 191.414 55.0748C191.613 55.3288 191.67 55.663 191.711 55.9831C191.958 57.9486 191.873 60.214 191.156 62.0849C190.633 63.4503 189.009 64.1519 187.983 65.1464C183.989 69.0135 183.673 75.4295 185.242 80.7623C186.811 86.094 189.918 90.8316 192.016 95.9778C194.146 101.203 195.139 107.333 192.251 112.467C191.13 114.458 189.087 115.964 189.329 118.409C189.618 121.304 192.139 124.074 193.233 126.712C194.495 129.762 194.786 133.154 194.452 136.438C194.038 140.485 192.649 144.502 190.033 147.616C186.198 152.184 179.758 154.395 173.927 153.148C172.709 152.888 171.494 152.474 170.519 151.698C168.776 150.307 168.089 148.024 167.145 146.003C164.101 139.478 157.684 134.726 155.74 127.793C153.683 120.461 157.209 112.735 161.531 106.465C163.551 103.535 165.807 100.656 166.794 97.2369C168.128 92.6163 166.963 87.6992 166.658 82.899C166.361 78.2146 166.902 73.4794 168.247 68.9828C169.222 65.7228 170.721 61.9668 173.263 59.6317C176.775 56.4072 181.462 54.5244 186.218 54.3142Z" fill="#17282F"/>
<path d="M247.857 48.7206C251.903 51.1337 256.873 61.3541 256.291 82.734C255.796 100.855 249.904 105.308 246.949 106.586C243.994 107.864 238.309 107.056 232.782 106.111L232.737 116.987C232.737 116.987 240.344 125.897 239.842 130.882C239.341 135.868 228.781 137.003 221.649 132.101C214.517 127.199 208.53 117.678 208.53 117.678L208.759 92.671C208.759 92.671 205.491 95.8175 199.991 90.9701C195.452 86.9684 193.945 80.2453 197.511 76.6558C201.076 73.0663 207.633 74.0738 210.128 79.2248C210.128 79.2248 218.947 79.5827 230.719 73.1785C242.49 66.7744 247.048 55.7425 247.857 48.7206Z" fill="#F6879F"/>
<path d="M236.075 78.0975C236.136 79.4039 235.166 80.5071 233.908 80.5614C232.651 80.6157 231.582 79.6011 231.523 78.2948C231.462 76.9884 232.433 75.8852 233.691 75.8309C234.947 75.7766 236.015 76.7924 236.075 78.0975Z" fill="#17282F"/>
<path d="M239.281 97.189C239.008 97.189 238.732 97.1464 238.456 97.0578C236.996 96.5854 236.176 94.9767 236.621 93.4636L241.906 95.1727C241.545 96.4023 240.458 97.189 239.281 97.189" fill="#F3647D"/>
<path d="M254.789 71.1772L250.192 67.961C251.039 66.6487 252.754 66.3038 254.024 67.1921C255.294 68.0791 255.636 69.8638 254.789 71.1772" fill="#17282F"/>
<path d="M253.704 76.5234C253.765 77.8298 252.794 78.9318 251.536 78.9861C250.278 79.0416 249.212 78.027 249.152 76.7207C249.091 75.4132 250.061 74.3112 251.318 74.2568C252.576 74.2025 253.645 75.2171 253.704 76.5234Z" fill="#17282F"/>
<path d="M243.265 88.8936L242.959 75.1746L250.493 86.6872L243.265 88.8936" fill="#F3647D"/>
<path d="M232.767 109.74C232.767 109.74 220.881 106.232 217.31 103.147C213.742 100.063 213.133 97.0814 213.133 97.0814C214.981 101.828 226.957 105.323 232.782 106.111L232.767 109.74" fill="#F3647D"/>
<path d="M193.118 117.105C181.684 117.914 176.967 119.373 170.602 133.494C164.876 146.198 151.172 179.048 147.745 186.378C144.316 193.708 143.673 196.645 146.534 204.306C148.867 210.553 168.19 246.45 170.302 251.682C172.412 256.913 173.351 262.204 176.951 268.302C180.552 274.399 186.246 280.347 190.745 281.756C197.419 283.848 206.055 280.938 206.356 276.916C206.659 272.895 196.565 266.16 193.834 257.222C193.834 257.222 196.833 259.217 199.546 260.326C202.259 261.436 205.275 261.195 206.179 259.657C207.083 258.119 204.37 257.181 201.958 254.786C200.519 253.357 197.966 250.151 194.707 247.314C192.504 245.398 188.879 244.831 187.259 242.731C186.375 241.609 182.408 231.884 179.428 223.222C175.738 212.495 170.884 198.203 170.884 198.203L190.745 156.809C190.745 156.809 206.362 141.319 193.118 117.105" fill="#F6879F"/>
<path d="M170.302 251.682C170.302 251.682 174.879 242.433 187.259 242.731L183.988 235.45C183.988 235.45 171.902 236.306 166.806 244.483L170.302 251.682" fill="#E4E4E4"/>
<path d="M168.97 243.825L171.662 247.598C172.487 248.753 174.075 248.999 175.208 248.145L179.961 244.571C181.095 243.718 181.369 242.074 180.572 240.898L178.103 237.259C177.306 236.085 175.726 235.804 174.573 236.632L169.564 240.233C168.411 241.061 168.145 242.67 168.97 243.825" fill="#17282F"/>
<path d="M168.079 243.733L170.771 247.506C171.595 248.662 173.184 248.907 174.318 248.054L179.07 244.479C180.204 243.626 180.478 241.983 179.68 240.808L177.212 237.167C176.416 235.993 174.834 235.713 173.682 236.541L168.673 240.141C167.52 240.971 167.254 242.578 168.079 243.733" fill="white"/>
<path d="M179.158 242.49C179.109 242.978 178.863 243.42 178.486 243.703L173.736 247.277C173.397 247.531 172.987 247.636 172.576 247.574C172.167 247.51 171.807 247.287 171.56 246.943L168.868 243.172C168.641 242.853 168.539 242.46 168.579 242.073C168.625 241.615 168.866 241.198 169.24 240.93L174.249 237.327C174.592 237.08 175.003 236.986 175.409 237.058C175.817 237.13 176.172 237.363 176.41 237.712L178.88 241.351C179.1 241.679 179.2 242.084 179.158 242.49Z" fill="#FF93D4"/>
</svg>
