<svg width="322" height="201" viewBox="0 0 322 201" fill="none" xmlns="http://www.w3.org/2000/svg">
<path d="M307.83 131.813C307.7 126.931 306.965 123.043 305.778 119.916C303.886 114.92 300.846 111.858 297.304 109.762C296.762 109.443 296.21 109.144 295.647 108.866C295.415 108.751 295.18 108.639 294.945 108.529C293.904 108.047 292.833 107.624 291.747 107.241C291.185 107.041 290.616 106.852 290.049 106.67C289.83 106.6 289.612 106.532 289.393 106.465C287.504 105.878 285.603 105.36 283.762 104.802C283.09 104.599 282.427 104.39 281.775 104.171C281.146 103.96 280.528 103.74 279.925 103.505C278.846 103.086 277.81 102.621 276.836 102.082C276.771 102.048 276.708 102.012 276.643 101.975C276.375 101.824 276.11 101.665 275.85 101.5C274.249 100.485 272.847 99.2277 271.732 97.5946C271.673 97.5082 271.614 97.4207 271.558 97.3323C271.406 97.0991 271.261 96.8589 271.121 96.6117C270.245 95.0479 269.601 93.1776 269.253 90.9043C269.115 89.9938 269.023 89.0199 268.982 87.9747C268.359 71.8857 251.899 35.3137 206.447 42.7537C204.426 43.0844 202.346 43.5035 200.209 44.014C199.038 44.2934 197.849 44.6009 196.643 44.9366C159.7 55.2368 168.922 72.156 116.703 63.7371C114.715 63.4176 112.638 63.0608 110.464 62.6648C109.764 62.5372 109.053 62.4055 108.333 62.2698C94.855 59.7312 57.7101 58.9935 30.9329 85.8954C30.2802 86.5506 29.6554 87.2129 29.0561 87.8833C28.1618 88.8842 27.3245 89.9003 26.5428 90.9314C26.4847 91.0078 26.4267 91.0842 26.3697 91.1616C25.3373 92.5394 24.4035 93.9424 23.5615 95.3655V95.3675C23.227 95.9313 22.9077 96.4971 22.6033 97.067C22.3363 97.5654 22.0796 98.0659 21.8345 98.5684C20.8984 100.481 20.1156 102.424 19.4676 104.385C19.3236 104.825 19.1854 105.264 19.0542 105.704C18.9589 106.023 18.8671 106.341 18.7789 106.662C18.664 107.077 18.5559 107.492 18.4513 107.909C18.3817 108.195 18.3131 108.483 18.2481 108.77C18.2052 108.957 18.1634 109.143 18.125 109.328C18.0054 109.87 17.8974 110.411 17.7987 110.956C17.6035 112.024 17.4422 113.096 17.3144 114.168C17.1227 115.766 17.0043 117.366 16.9497 118.962C16.9253 119.656 16.9137 120.35 16.9137 121.044C16.9137 133.399 20.5965 145.409 24.479 154.642C24.8111 155.432 25.1445 156.201 25.4778 156.948C25.5335 157.074 25.5893 157.197 25.6439 157.322C25.7124 157.472 25.7798 157.623 25.8483 157.772H26.3617L26.3697 157.791L26.3871 157.832V157.772H304.61C304.672 157.496 304.733 157.22 304.793 156.948C307.111 146.463 308 138.268 307.83 131.813" fill="#632164" fill-opacity="0.2"/>
<path d="M305.778 119.916C303.886 114.92 300.846 111.858 297.304 109.762C296.762 109.443 296.21 109.144 295.647 108.866C295.415 108.751 295.18 108.639 294.945 108.529C293.904 108.047 292.833 107.624 291.747 107.241L289.392 106.465C287.504 105.878 285.603 105.36 283.762 104.802C283.09 104.599 282.427 104.39 281.775 104.171C281.146 103.96 280.528 103.74 279.925 103.505C278.846 103.086 277.81 102.621 276.835 102.082C276.771 102.048 276.708 102.012 276.643 101.975C276.375 101.824 276.11 101.665 275.85 101.5C274.249 100.485 272.847 99.2277 271.732 97.5946C271.673 97.5082 271.614 97.4207 271.558 97.3323C271.406 97.0991 271.261 96.8589 271.121 96.6117C270.245 95.0479 269.601 93.1776 269.253 90.9043H261.913V101.149H256.707V103.73H251.095V99.285H240.997V87.2109H239.417V86.0089H239.191V87.2109H237.883V87.2089H231.333V86.0089H231.106V87.2089H229.401V93.2811L220.919 93.248V96.9956H213.728V73.8263H192.423V98.6478H185.917V85.2271H164.611V157.772H304.355C304.397 157.577 304.437 157.383 304.477 157.19C304.495 157.11 304.512 157.028 304.529 156.948C304.693 156.168 304.85 155.399 304.999 154.642C306.813 145.509 307.69 138.005 307.83 131.813C307.7 126.931 306.965 123.043 305.778 119.916" fill="#632164" fill-opacity="0.2"/>
<path d="M164.632 157.772V101.037H153.932V157.772H155.066H164.611H164.632" fill="#632164" fill-opacity="0.2"/>
<path d="M264.9 90.9928H264.507V86.1266H264.9V90.9928Z" fill="#632164" fill-opacity="0.2"/>
<path d="M194.091 73.8274H193.837V72.0928H194.091V73.8274Z" fill="#632164" fill-opacity="0.2"/>
<path d="M199.485 73.8274H199.23V72.0928H199.485V73.8274Z" fill="#632164" fill-opacity="0.2"/>
<path d="M211.849 73.8274H211.594V72.0928H211.849V73.8274Z" fill="#632164" fill-opacity="0.2"/>
<path d="M207.015 73.8274H206.76V72.0928H207.015V73.8274Z" fill="#632164" fill-opacity="0.2"/>
<path d="M155.055 156.948L154.265 101.037L154.145 92.5404H148.522V81.3829C148.435 81.3387 148.348 81.2935 148.262 81.2493H146.585V81.2432H136.831V81.2493H136.823V82.9216H136.831V84.0723H136.823V85.7446H136.831V86.8984H136.823V88.5707H136.831V88.5777L135.798 88.5707V79.8212H124.853V80.9307H124.847V82.602H124.853V84.0723H124.847V85.7446H124.853V86.8984H124.847V88.5707H124.853V89.639H124.847V91.3123H124.853V92.3806H124.847V94.053H124.853V95.059H124.847V96.1213H124.853V96.2368H112.515V105.809H107.906V108.219H102.937V104.067H93.9979V92.7867H92.5996V91.6621H92.3998V92.7867H91.2396V92.7837H85.4419V91.6621H85.241V92.7837H83.7311V98.4569L76.2216 98.4257V101.928H69.8547V80.2815H50.9926V103.471H45.232V90.9314H26.3698V157.791L26.3872 157.832V157.772H155.066L155.055 156.948" fill="#632164" fill-opacity="0.2"/>
<path d="M26.3871 105.704V157.832L26.3697 157.791L26.3616 157.772C26.2443 157.501 26.1282 157.225 26.0109 156.948C21.8484 147.077 17.3898 133.322 16.9496 118.962C17.0402 116.295 17.3119 113.618 17.7987 110.956C18.1191 109.196 18.5349 107.444 19.0541 105.704H26.3871" fill="#632164" fill-opacity="0.2"/>
<path d="M69.8548 83.9507H55.8455V80.2814H69.8548V83.9507Z" fill="#632164" fill-opacity="0.4"/>
<path d="M69.8548 89.5988H55.8455V85.9295H69.8548V89.5988Z" fill="#632164" fill-opacity="0.4"/>
<path d="M69.8548 95.3645H55.8455V91.6953H69.8548V95.3645Z" fill="#632164" fill-opacity="0.4"/>
<path d="M69.8548 101.222H55.8455V97.5524H69.8548V101.222Z" fill="#632164" fill-opacity="0.4"/>
<path d="M69.8548 106.873H55.8455V103.204H69.8548V106.873Z" fill="#632164" fill-opacity="0.4"/>
<path d="M131.86 82.0503H124.855V79.8222H131.86V82.0503Z" fill="#632164" fill-opacity="0.4"/>
<path d="M131.86 85.4803H124.855V83.2523H131.86V85.4803Z" fill="#632164" fill-opacity="0.4"/>
<path d="M131.86 88.9817H124.855V86.7536H131.86V88.9817Z" fill="#632164" fill-opacity="0.4"/>
<path d="M131.86 92.5394H124.855V90.3103H131.86V92.5394Z" fill="#632164" fill-opacity="0.4"/>
<path d="M131.86 95.9716H124.855V93.7435H131.86V95.9716Z" fill="#632164" fill-opacity="0.4"/>
<path d="M131.86 99.7493H124.855V97.5202H131.86V99.7493Z" fill="#632164" fill-opacity="0.4"/>
<path d="M131.86 103.178H124.855V100.95H131.86V103.178Z" fill="#632164" fill-opacity="0.4"/>
<path d="M131.86 106.681H124.855V104.452H131.86V106.681Z" fill="#632164" fill-opacity="0.4"/>
<path d="M131.86 110.238H124.855V108.009H131.86V110.238Z" fill="#632164" fill-opacity="0.4"/>
<path d="M131.86 113.67H124.855V111.441H131.86V113.67Z" fill="#632164" fill-opacity="0.4"/>
<path d="M143.849 83.5115H136.845V81.2834H143.849V83.5115Z" fill="#632164" fill-opacity="0.4"/>
<path d="M143.849 86.9417H136.845V84.7136H143.849V86.9417Z" fill="#632164" fill-opacity="0.4"/>
<path d="M143.849 90.443H136.845V88.2149H143.849V90.443Z" fill="#632164" fill-opacity="0.4"/>
<path d="M143.849 94.0007H136.845V91.7726H143.849V94.0007Z" fill="#632164" fill-opacity="0.4"/>
<path d="M143.849 97.4327H136.845V95.2047H143.849V97.4327Z" fill="#632164" fill-opacity="0.4"/>
<path d="M115.16 96.3182H114.813V91.7726H115.16V96.3182Z" fill="#632164" fill-opacity="0.2"/>
<path d="M121.21 96.672H120.669V87.8682H121.21V96.672Z" fill="#632164" fill-opacity="0.2"/>
<path d="M52.4701 80.2815H52.2449V78.6604H52.4701V80.2815Z" fill="#632164" fill-opacity="0.2"/>
<path d="M57.2448 80.2815H57.0195V78.6604H57.2448V80.2815Z" fill="#632164" fill-opacity="0.2"/>
<path d="M68.1909 80.2815H67.9657V78.6604H68.1909V80.2815Z" fill="#632164" fill-opacity="0.2"/>
<path d="M126.113 79.8221H125.939V78.5709H126.113V79.8221Z" fill="#632164" fill-opacity="0.2"/>
<path d="M134.33 79.8221H134.156V78.5709H134.33V79.8221Z" fill="#632164" fill-opacity="0.2"/>
<path d="M63.9116 80.2815H63.6864V78.6604H63.9116V80.2815Z" fill="#632164" fill-opacity="0.2"/>
<path d="M206.44 78.8192H192.53V75.9901H206.44V78.8192Z" fill="#632164" fill-opacity="0.4"/>
<path d="M206.44 83.1738H192.53V80.3448H206.44V83.1738Z" fill="#632164" fill-opacity="0.4"/>
<path d="M206.44 87.6189H192.53V84.7898H206.44V87.6189Z" fill="#632164" fill-opacity="0.4"/>
<path d="M206.44 92.1354H192.53V89.3063H206.44V92.1354Z" fill="#632164" fill-opacity="0.4"/>
<path d="M206.44 96.4932H192.53V93.6641H206.44V96.4932Z" fill="#632164" fill-opacity="0.4"/>
<path d="M171.365 89.8411H185.874V86.5389H171.365V89.8411Z" fill="#632164" fill-opacity="0.3"/>
<path d="M171.365 94.9233H185.874V91.6212H171.365V94.9233Z" fill="#632164" fill-opacity="0.3"/>
<path d="M171.365 100.112H185.874V96.8099H171.365V100.112Z" fill="#632164" fill-opacity="0.3"/>
<path d="M171.365 105.383H185.874V102.082H171.365V105.383Z" fill="#632164" fill-opacity="0.3"/>
<path d="M171.365 110.47H185.874V107.168H171.365V110.47Z" fill="#632164" fill-opacity="0.3"/>
<path d="M304.999 154.642C304.85 155.399 304.693 156.169 304.529 156.948C304.512 157.028 304.495 157.11 304.478 157.19L303.662 157.191L212.115 157.322H25.6439C25.5893 157.197 25.5336 157.074 25.4778 156.948C25.1445 156.201 24.8112 155.432 24.479 154.642H304.999" fill="#632164" fill-opacity="0.3"/>
<path d="M101.132 61.3623V155.576H98.0128V61.1824L101.132 61.3623" fill="#632164" fill-opacity="0.8"/>
<path d="M214.394 41.8724V155.576H211.274V42.1176L214.394 41.8724Z" fill="#632164" fill-opacity="0.8"/>
<path d="M49.0708 155.137C48.5133 155.137 47.9893 154.794 47.7857 154.241L34.4525 118.121C34.191 117.412 34.5543 116.626 35.2641 116.365C35.9712 116.105 36.7613 116.465 37.0228 117.175L50.356 153.295C50.6175 154.004 50.2542 154.79 49.5444 155.051C49.3884 155.11 49.2287 155.137 49.0708 155.137" fill="#632164"/>
<path d="M59.209 155.137C58.6515 155.137 58.1275 154.794 57.9239 154.241L44.5897 118.121C44.3282 117.412 44.6916 116.626 45.4014 116.365C46.1094 116.105 46.8995 116.465 47.16 117.175L60.4942 153.295C60.7557 154.004 60.3924 154.79 59.6826 155.051C59.5266 155.11 59.3669 155.137 59.209 155.137" fill="#632164"/>
<path d="M48.7744 124.215L38.0207 125.173L34.816 117.648L46.1717 117.237L48.7744 124.215Z" fill="#632164"/>
<path d="M104.416 157.052H41.0345C39.829 157.052 38.8427 156.066 38.8427 154.862C38.8427 153.658 39.829 152.674 41.0345 152.674H104.416C105.621 152.674 106.607 153.658 106.607 154.862C106.607 156.066 105.621 157.052 104.416 157.052Z" fill="#632164"/>
<path d="M56.7881 130.783H39.9386C39.6359 130.783 39.3904 130.537 39.3904 130.235C39.3904 129.933 39.6359 129.687 39.9386 129.687H56.7358L60.2662 129.004H49.9385C49.6359 129.004 49.3902 128.759 49.3902 128.456C49.3902 128.155 49.6359 127.908 49.9385 127.908H65.9672C66.2492 127.908 66.4856 128.123 66.5126 128.404C66.5397 128.685 66.3491 128.94 66.0718 128.994L56.8928 130.773C56.8582 130.779 56.8237 130.783 56.7881 130.783Z" fill="#632164"/>
<path d="M293.687 100.28L289.918 147.872L289.894 148.185C289.703 150.583 287.583 152.39 285.182 152.2L276.493 151.515C274.091 151.325 272.283 149.207 272.473 146.809L276.267 98.9041C276.457 96.5062 278.576 94.6982 280.977 94.8881L284.966 95.2037L289.666 95.5756C292.068 95.7645 293.877 97.882 293.687 100.28" fill="#632164" fill-opacity="0.7"/>
<path d="M292.716 147.934V154.991C292.716 156.157 291.761 157.111 290.595 157.111H271.72C270.553 157.111 269.599 156.157 269.599 154.991V147.934C269.599 146.768 270.553 145.816 271.72 145.816H290.595C291.761 145.816 292.716 146.768 292.716 147.934Z" fill="#632164"/>
<path d="M290.081 145.815H284.93C284.93 145.815 287.726 111.026 288.517 103.233C289.148 97.0327 286.199 95.5504 284.966 95.2036L289.666 95.5755C291.95 95.7554 293.699 97.6789 293.7 99.9312C293.701 100.047 293.696 100.163 293.687 100.28L290.081 145.815Z" fill="#632164" fill-opacity="0.7"/>
<path d="M289.918 147.872C287.322 147.536 284.93 145.815 284.93 145.815H290.081L289.918 147.872Z" fill="#632164"/>
<path d="M202.964 146.539V156.386C202.964 156.824 202.604 157.183 202.166 157.183H190.175C189.735 157.183 189.376 156.824 189.376 156.386V146.539C189.376 146.1 189.735 145.741 190.175 145.741H202.166C202.604 145.741 202.964 146.1 202.964 146.539Z" fill="#EF7E29"/>
<path d="M207.452 157.183H195.461C195.022 157.183 194.663 156.824 194.663 156.386V146.539C194.663 146.1 195.022 145.742 195.461 145.742H207.452C207.89 145.742 208.249 146.1 208.249 146.539V156.386C208.249 156.824 207.89 157.183 207.452 157.183Z" fill="#F99746"/>
<path d="M194.761 126.185C194.351 126.934 193.331 127.368 192.125 127.697C191.99 127.735 191.855 127.77 191.716 127.805C189.602 128.332 186.77 128.029 185.949 129.126C185.038 130.347 183.954 136.752 183.954 136.752C182.647 137.272 182.663 137.018 182.663 137.018C182.261 135.286 182.231 130.02 182.325 128.569C182.434 126.902 185.86 124.565 188.809 122.853C191.06 121.545 193.032 120.601 193.032 120.601C193.093 120.614 193.154 120.628 193.212 120.643C195.81 121.302 195.888 124.125 194.761 126.185" fill="#FFB27D"/>
<path d="M193.212 120.643C192.933 122.974 192.486 126.418 192.125 127.697C191.99 127.735 191.855 127.77 191.716 127.805L191.715 127.8C191.307 125.357 189.25 123.276 188.809 122.853C191.06 121.545 193.032 120.601 193.032 120.601C193.093 120.614 193.154 120.628 193.212 120.643" fill="#EF7E29"/>
<path d="M196.682 119.175C196.682 119.175 193.572 122.582 191.068 122.755C191.068 122.755 191.34 121.839 192.091 120.94C191.965 120.732 191.852 120.536 191.747 120.353C191.151 119.302 190.894 118.66 190.894 118.66L192.9 115.279C192.945 115.403 192.994 115.524 193.044 115.641C193.152 115.897 193.27 116.134 193.395 116.355C193.457 116.462 193.519 116.568 193.583 116.668C194.864 118.673 196.682 119.175 196.682 119.175" fill="#FFB27D"/>
<path d="M191.747 120.353C191.151 119.302 190.894 118.66 190.894 118.66L192.9 115.279C192.945 115.403 192.994 115.524 193.044 115.641C193.258 116.507 193.532 118.612 191.747 120.353" fill="#F4A671"/>
<path d="M190.494 119.144C190.494 119.144 194.038 117.277 192.84 115.09C191.641 112.903 191.292 111.189 188.979 112.289C186.664 113.389 186.686 114.462 186.908 115.289C187.13 116.116 189.541 119.573 190.494 119.144Z" fill="#FFB27D"/>
<path d="M192.922 115.24C192.922 115.24 190.857 112.661 187.67 114.415C185.485 115.618 185.427 113.076 185.454 112.645C185.454 112.645 187.174 111.792 188.967 110.962C192.73 109.219 192.966 114.591 192.922 115.24" fill="#2C3A64"/>
<path d="M197.032 138.548C196.929 138.457 196.863 138.372 196.84 138.294C196.8 138.169 194.948 138.191 191.023 127.471C190.34 125.606 190.795 122.798 191.473 121.605L191.973 120.771C192.813 120.682 193.699 120.26 194.402 119.586C194.597 119.4 194.826 119.279 195.063 119.201C195.762 118.972 196.535 119.128 196.682 119.175C199.309 120.09 201.351 123.855 202.771 129.408C203.658 132.907 204.884 135.002 205.722 138.025C205.972 138.927 206.189 139.914 206.351 141.047C206.498 142.075 198.421 139.775 197.032 138.548" fill="#FFB27D"/>
<path d="M197.814 143.172C196.879 143.297 195.521 143.298 194.029 143.255C189.967 143.135 184.874 142.675 184.575 143.478C182.626 148.718 175.622 152.836 175.498 154.78C175.521 154.906 173.719 153.943 173.775 153.903C173.775 153.903 174.346 153.665 180 138.306C180.518 136.896 186.419 136.358 189.989 136.075C192.269 135.892 194.047 135.822 194.047 135.822C194.047 135.822 196.48 135.417 198.972 135.591C201.463 135.764 201.289 142.71 197.814 143.172" fill="#F4A671"/>
<path d="M182.663 137.018C182.663 137.018 184.427 137.654 185.177 137.279C185.928 136.904 185.271 135.936 184.771 135.936C184.271 135.936 183.163 135.955 182.663 137.018Z" fill="#FFB27D"/>
<path d="M198.799 143.172C197.864 143.297 196.507 143.298 195.013 143.255C195.379 142.077 196.34 139.954 194.923 138.381C194.923 138.381 193.381 136.265 192.143 135.919C194.423 135.737 195.032 135.822 195.032 135.822C195.032 135.822 197.465 135.418 199.957 135.591C202.448 135.764 202.275 142.71 198.799 143.172Z" fill="#632164" fill-opacity="0.9"/>
<path d="M205.722 138.025L205.681 138.06L197.032 138.548C196.929 138.457 196.863 138.37 196.84 138.293C196.834 138.274 196.781 138.258 196.685 138.203C196.408 138.046 195.763 137.577 194.724 135.825C193.805 134.272 192.576 131.712 191.023 127.471C190.34 125.606 190.795 122.798 191.473 121.605C191.473 121.605 191.968 121.879 192.586 121.58C194.078 120.857 196.578 119.142 196.681 119.175C199.309 120.09 201.351 123.855 202.771 129.408C203.658 132.907 204.884 135.002 205.722 138.025" fill="#F99746"/>
<path d="M200.602 127.418L196.363 131.392L193.774 127.408L194.724 135.825C195.763 137.577 196.408 138.046 196.685 138.203C199.08 138.337 202.557 138.284 202.836 136.863C203.263 134.68 200.602 127.418 200.602 127.418Z" fill="#EF7E29"/>
<path d="M204.364 145.465C196.588 147.314 189.323 142.722 189.053 144.034C188.218 148.096 183.997 153.983 183.898 154.686C183.883 154.789 182.037 154.947 182.037 154.947C182.037 154.947 183.856 140.598 185.393 138.739C186.982 136.821 201.264 137.593 201.264 137.593C206.834 136.49 207.82 144.643 204.364 145.465Z" fill="#FFB27D"/>
<path d="M195.232 137.433C195.232 137.433 199.032 141.362 199.455 141.749C199.878 142.135 201.496 141.996 201.496 141.996C201.496 141.996 199.725 142.23 199.725 142.534C199.725 142.839 200.851 146.071 201.272 146.071C201.695 146.071 204.837 145.884 205.588 145.509C206.339 145.134 207.324 140.964 205.799 137.638L204.574 134.686C204.574 134.686 202.836 137.227 195.232 137.433" fill="#632164" fill-opacity="0.9"/>
<path d="M195.3 131.169C194.953 129.875 193.58 129.118 192.235 129.479C191.891 129.572 191.582 129.728 191.318 129.931L190.788 130.315L190.852 130.398C190.41 130.977 190.229 131.732 190.427 132.474C190.775 133.768 192.147 134.523 193.493 134.164C193.576 134.14 193.659 134.114 193.739 134.084L193.801 134.163L194.402 133.718L194.401 133.717C195.173 133.126 195.56 132.134 195.3 131.169" fill="#632164"/>
<path d="M189.925 132.839C189.577 131.545 190.387 130.205 191.732 129.845C193.077 129.484 194.45 130.24 194.797 131.533C195.144 132.828 194.335 134.168 192.99 134.528C191.644 134.889 190.272 134.132 189.925 132.839Z" fill="#632164" fill-opacity="0.7"/>
<path d="M192.83 132.166C192.805 131.876 192.452 131.591 192.075 131.73C191.921 131.787 187.866 134.321 187.866 134.321L188.733 135.395L192.669 132.589C192.669 132.589 192.855 132.458 192.83 132.166Z" fill="#632164"/>
<path d="M200.78 137.357C198.95 139.184 190.555 133.984 190.555 133.984L191.503 132.332L196.98 133.609C195.448 131.376 194.433 129.178 193.774 127.408C192.919 125.112 192.665 123.536 192.665 123.536C192.196 121.662 196.327 119.29 198.341 121.194C199.012 121.829 199.711 123.636 200.276 125.83C201.404 130.213 201.999 136.139 200.78 137.357" fill="#FFB27D"/>
<path d="M200.011 124.864C198.074 125.32 194.244 126.342 193.774 127.407C193.774 127.407 197.348 125.874 200.838 128.38L200.011 124.864" fill="#F4A671"/>
<path d="M200.276 125.83C196.584 125.484 194.157 127.128 193.774 127.408C192.919 125.112 192.665 123.536 192.665 123.536C192.196 121.662 196.327 119.29 198.341 121.194C199.012 121.829 199.711 123.636 200.276 125.83" fill="#F99746"/>
<path d="M175.87 157.127H174.911C174.589 157.077 174.352 156.983 174.023 156.94C173.522 156.875 173.291 157.08 173.245 157.127L173.236 157.137H169.16C169.057 156.99 169.156 156.651 169.252 156.402C169.317 156.232 169.459 156.104 169.634 156.053C170.066 155.929 170.919 155.817 171.698 155.112C172.138 154.716 173.82 153.655 173.82 153.655L173.828 153.653C173.865 153.653 174.041 153.707 174.806 154.352C175.201 154.685 175.874 153.882 175.874 153.882C175.874 153.882 176.001 153.986 176.096 154.181C176.171 154.335 176.227 154.546 176.183 154.806C176.122 155.173 176.318 155.854 176.475 156.316C176.571 156.595 176.65 156.793 176.65 156.793C176.65 156.793 176.697 157.023 175.87 157.127" fill="#2C3A64"/>
<path d="M184.391 157.127H183.38C183.041 157.074 182.79 156.975 182.443 156.93C181.915 156.86 181.671 157.077 181.623 157.127L181.614 157.137H177.314C177.207 156.982 177.31 156.625 177.412 156.362C177.48 156.183 177.63 156.047 177.815 155.994C178.27 155.862 179.169 155.745 179.992 155.001C180.456 154.583 182.229 153.465 182.229 153.465L182.238 153.463C182.277 153.463 182.462 153.52 183.268 154.2C183.686 154.551 184.396 153.704 184.396 153.704C184.396 153.704 184.529 153.814 184.629 154.019C184.709 154.182 184.768 154.404 184.721 154.679C184.657 155.066 184.864 155.785 185.029 156.272C185.13 156.566 185.214 156.775 185.214 156.775C185.214 156.775 185.263 157.017 184.391 157.127" fill="#2C3A64"/>
<path d="M192.204 133.489C191.826 132.082 190.333 131.259 188.869 131.651C188.495 131.751 188.159 131.922 187.872 132.143L187.295 132.561L187.366 132.651C186.883 133.281 186.687 134.103 186.903 134.909C187.28 136.316 188.774 137.139 190.238 136.747C190.329 136.722 190.419 136.693 190.505 136.661L190.572 136.746L191.226 136.263V136.262C192.066 135.62 192.486 134.54 192.204 133.489" fill="#632164"/>
<path d="M186.356 135.306C185.978 133.899 186.859 132.441 188.322 132.049C189.786 131.657 191.279 132.48 191.656 133.887C192.035 135.294 191.154 136.752 189.69 137.144C188.227 137.536 186.734 136.713 186.356 135.306Z" fill="#632164" fill-opacity="0.7"/>
<path d="M189.875 134.257C189.754 133.8 189.269 133.532 188.794 133.66C188.672 133.692 188.562 133.747 188.47 133.82L188.282 133.955L188.306 133.985C188.149 134.189 188.085 134.456 188.155 134.717C188.277 135.175 188.762 135.442 189.237 135.314C189.268 135.306 189.297 135.297 189.325 135.286L189.346 135.314L189.558 135.157V135.156C189.831 134.948 189.968 134.598 189.875 134.257" fill="#632164"/>
<path d="M187.978 134.847C187.855 134.39 188.141 133.916 188.616 133.789C189.091 133.662 189.575 133.929 189.698 134.386C189.821 134.843 189.535 135.316 189.06 135.443C188.584 135.571 188.1 135.303 187.978 134.847" fill="#632164"/>
<path d="M211.771 155.609C212.282 154.371 211.65 152.938 210.362 152.409C210.032 152.274 209.691 152.211 209.358 152.213L208.703 152.197L208.704 152.302C208.001 152.494 207.397 152.985 207.105 153.694C206.596 154.933 207.227 156.366 208.516 156.895C208.597 156.928 208.678 156.956 208.76 156.981L208.761 157.08L209.508 157.092V157.091C210.481 157.09 211.391 156.535 211.771 155.609Z" fill="#632164"/>
<path d="M206.484 153.68C206.994 152.441 208.452 151.866 209.74 152.395C211.029 152.924 211.66 154.357 211.15 155.595C210.64 156.834 209.183 157.409 207.894 156.881C206.606 156.352 205.974 154.919 206.484 153.68" fill="#632164" fill-opacity="0.7"/>
<path d="M209.202 154.905C209.358 154.659 209.252 154.219 208.867 154.102C208.71 154.053 203.947 153.611 203.947 153.611L203.985 154.989L208.818 155.144C208.818 155.144 209.045 155.153 209.202 154.905Z" fill="#632164"/>
<path d="M207.9 155.578C208.455 154.23 207.769 152.672 206.367 152.097C206.008 151.949 205.637 151.881 205.275 151.883L204.563 151.866L204.564 151.98C203.798 152.188 203.142 152.723 202.825 153.495C202.27 154.841 202.957 156.4 204.358 156.976C204.447 157.012 204.535 157.043 204.624 157.069L204.625 157.178L205.439 157.19V157.189C206.497 157.188 207.487 156.584 207.9 155.578" fill="#632164"/>
<path d="M202.149 153.479C202.703 152.132 204.289 151.506 205.691 152.081C207.092 152.656 207.779 154.215 207.224 155.562C206.67 156.91 205.084 157.536 203.682 156.96C202.28 156.385 201.594 154.826 202.149 153.479Z" fill="#632164" fill-opacity="0.7"/>
<path d="M205.584 154.777C205.764 154.34 205.542 153.833 205.086 153.647C204.97 153.599 204.849 153.577 204.732 153.578L204.5 153.572L204.501 153.609C204.253 153.677 204.039 153.85 203.937 154.101C203.757 154.538 203.979 155.044 204.435 155.231C204.463 155.242 204.491 155.253 204.52 155.261L204.521 155.297L204.785 155.301C205.128 155.3 205.45 155.104 205.584 154.777" fill="#632164"/>
<path d="M203.716 154.096C203.896 153.658 204.412 153.455 204.867 153.642C205.321 153.828 205.545 154.335 205.365 154.772C205.184 155.21 204.67 155.413 204.214 155.226C203.76 155.039 203.537 154.533 203.716 154.096" fill="#632164"/>
<path d="M123.007 124.344C123.248 122.814 124.734 121.777 126.326 122.027C126.732 122.092 127.106 122.234 127.434 122.435L128.092 122.812L128.027 122.916C128.608 123.527 128.909 124.374 128.77 125.25C128.529 126.78 127.044 127.817 125.452 127.567C125.353 127.552 125.255 127.531 125.159 127.506L125.098 127.604L124.353 127.166C123.392 126.581 122.828 125.486 123.007 124.344" fill="#EF7E29"/>
<path d="M129.393 125.609C129.634 124.079 128.539 122.636 126.948 122.386C125.357 122.136 123.871 123.173 123.63 124.703C123.389 126.233 124.484 127.675 126.075 127.926C127.666 128.176 129.152 127.139 129.393 125.609" fill="#F99746"/>
<path d="M125.97 125.189C125.963 124.853 126.333 124.482 126.784 124.596C126.968 124.642 131.942 127.062 131.942 127.062L131.075 128.402L126.207 125.655C126.207 125.655 125.976 125.529 125.97 125.189Z" fill="#EF7E29"/>
<path d="M129.029 126.887C128.955 126.876 127.394 127.627 126.595 126.528C126.229 126.024 126.507 125.549 126.859 125.411C127.129 125.306 127.571 125.619 127.745 125.797C128.034 126.091 129.029 126.887 129.029 126.887" fill="#FFB27D"/>
<path d="M124.425 156.901C123.895 156.577 124.196 154.165 124.196 154.165C124.196 154.165 126.668 152.19 127.008 153.702C127.348 155.214 129.356 155.893 130.499 156.078C131.288 156.205 131.532 156.642 131.608 156.901H124.425" fill="#233862"/>
<path d="M127.225 154.965C126.418 155.222 124.875 156.007 123.894 155.638C123.26 155.4 119.718 145.165 119.487 140.689C119.476 140.472 119.444 140.196 119.393 139.87C119.368 139.71 119.339 139.539 119.306 139.356C118.978 137.546 118.264 134.675 117.553 131.777C116.596 127.864 115.647 123.899 115.674 122.419C115.725 119.507 124.365 121.809 124.365 121.809C124.365 121.809 124.883 123.891 125.049 126.982C125.06 127.201 125.07 127.427 125.078 127.657C125.312 134.524 125.957 146.124 127.712 154.179C127.786 154.521 127.56 154.858 127.225 154.965" fill="#632164" fill-opacity="0.9"/>
<path d="M125.049 126.982L119.393 139.87C119.368 139.71 119.339 139.539 119.306 139.356C118.978 137.546 118.264 134.675 117.553 131.777L116.546 121.716L124.365 121.809C124.365 121.809 124.883 123.891 125.049 126.982" fill="#233862"/>
<path d="M120.252 102.534C120.252 102.534 123.147 102.639 124.224 103.92C125.299 105.202 126.591 114.359 127.31 116.236C128.027 118.114 128.889 124.705 128.889 124.959L127.726 125.187C127.726 125.187 124.507 118.383 124.222 116.887C123.936 115.39 120.438 107.96 120.464 107.446C120.491 106.931 120.252 102.534 120.252 102.534" fill="#FFB27D"/>
<path d="M112.985 105.98C113.11 105.023 112.125 104.306 111.25 104.717C110.148 105.235 108.931 105.956 108.562 106.743C107.842 108.282 106.256 114.977 106.38 117.466C106.38 117.466 107.728 117.826 108.688 117.415C109.649 117.004 112.882 106.767 112.882 106.767L112.985 105.98Z" fill="#FFB27D"/>
<path d="M116.735 156.917C116.735 156.917 116.581 155.725 116.227 155.016C115.872 154.308 113.615 154.758 113.615 154.758C113.615 154.758 113.163 155.145 113.066 156.949L116.735 156.917Z" fill="#233862"/>
<path d="M121.229 122.429L116.661 155.494C116.661 155.494 114.655 155.976 113.094 155.59C113.094 155.59 111.757 138.005 111.869 133.753C111.981 129.502 112.054 123.501 112.548 122.152C113.324 120.033 121.229 122.429 121.229 122.429" fill="#632164" fill-opacity="0.9"/>
<path d="M119.558 101.01L119.556 101.439C119.556 101.439 119.672 102.778 118.02 102.973C116.369 103.169 115.118 102.451 115.162 101.418C115.311 100.618 115.474 100.068 115.485 99.4056C115.489 99.1594 115.472 98.8981 115.427 98.6026L118.627 98.5393L119.57 98.6931L119.558 101.01" fill="#FFB27D"/>
<path d="M119.57 98.6931V100.372C118.347 100.812 115.871 100.067 115.667 99.085L118.627 98.5393L119.57 98.6931" fill="#F4A671"/>
<path d="M115.181 98.0891C115.553 100.085 118.132 100.019 119.246 99.8941C119.56 99.8589 119.757 99.8187 119.757 99.8187C120.11 99.7242 120.307 99.1685 120.399 98.4398C120.581 96.9977 120.352 94.8811 120.107 94.3394C119.741 93.5254 119.048 92.644 116.452 93.2802C113.855 93.9153 114.705 95.5314 115.181 98.0891" fill="#FFB27D"/>
<path d="M118.482 98.5624C118.482 98.5624 118.696 98.9382 119.429 98.8608C119.912 98.8106 119.951 98.3975 119.951 98.3975C119.951 98.3975 119.259 98.2448 118.482 98.5624Z" fill="white"/>
<path d="M124.071 109.52C125.921 109.369 126.807 108.485 126.807 108.485C126.807 108.485 125.138 103.92 124.222 103.136C123.305 102.352 119.568 101.671 119.568 101.67C119.538 101.652 119.519 101.643 119.515 101.643L119.514 101.644C119.514 102.058 118.86 102.823 117.853 102.889C116.657 102.967 115.162 102.105 115.162 101.418C115.162 101.418 112.313 101.619 110.794 102.438C109.277 103.258 107.464 107.325 107.464 107.325C107.464 107.325 108.078 109.333 111.863 109.978L111.591 123.347C118.576 125.655 125.012 123.275 125.012 123.275C125.163 123.278 124.188 115.613 124.139 113.727C124.108 112.499 124.083 111.103 124.071 109.52" fill="white"/>
<path d="M120.746 94.2801C121.203 93.8147 121.08 93.0419 120.504 92.7354C119.923 92.4268 119.01 91.9806 118.23 91.7696C117.078 91.458 115.938 91.8148 115.49 92.051C115.502 91.9786 115.532 91.8801 115.6 91.7816C115.6 91.7816 115.399 91.9233 115.369 92.1233C115.348 92.1384 115.338 92.1485 115.344 92.1525C115.344 92.1525 115.116 92.1103 114.97 92.1766C114.97 92.1766 115.072 92.1615 115.109 92.2279L115.125 92.2459C113.418 93.069 112.847 95.0851 113.81 96.3865C114.405 97.1905 115.467 98.8257 115.467 98.8257C115.467 98.8257 115.281 98.3795 115.246 98.0126C115.236 97.9061 115.264 97.7956 115.304 97.6961C115.384 97.4981 115.381 97.276 115.301 97.078C115.184 96.7875 115.157 96.4891 115.404 96.3654C115.693 96.2217 115.919 96.4308 116.063 96.6468C116.178 96.8187 116.394 96.8931 116.585 96.8147L116.603 96.8066C117.325 96.5071 116.724 95.667 117.355 95.1574C117.985 94.6469 119.667 94.9122 120.22 94.7012C120.407 94.5695 120.592 94.4358 120.746 94.2801" fill="#233862"/>
<path d="M126.852 126.635C127.115 124.971 128.731 123.842 130.461 124.115C130.904 124.184 131.312 124.339 131.668 124.558L132.382 124.968L132.313 125.08C132.944 125.746 133.271 126.667 133.121 127.62C132.859 129.284 131.243 130.413 129.511 130.14C129.404 130.123 129.297 130.101 129.193 130.074L129.126 130.181L128.316 129.704V129.703C127.272 129.067 126.656 127.877 126.852 126.635" fill="#EF7E29"/>
<path d="M133.798 128.01C134.061 126.347 132.87 124.777 131.139 124.505C129.408 124.232 127.792 125.361 127.529 127.025C127.267 128.689 128.458 130.259 130.19 130.531C131.92 130.803 133.536 129.674 133.798 128.01Z" fill="#F99746"/>
<path d="M129.622 127.233C129.708 126.692 130.232 126.327 130.794 126.415C130.938 126.437 131.07 126.487 131.186 126.559L131.418 126.691L131.395 126.729C131.6 126.944 131.706 127.243 131.658 127.553C131.572 128.093 131.048 128.459 130.486 128.371C130.45 128.366 130.416 128.359 130.383 128.35L130.361 128.384L130.098 128.229C129.758 128.023 129.559 127.636 129.622 127.233" fill="#EF7E29"/>
<path d="M131.877 127.679C131.963 127.14 131.576 126.63 131.014 126.542C130.452 126.453 129.927 126.819 129.843 127.36C129.757 127.899 130.143 128.409 130.706 128.497C131.268 128.586 131.793 128.22 131.877 127.679Z" fill="#F99746"/>
<path d="M106.38 117.466C106.38 117.466 111.089 119.26 117.561 118.472V117.134C117.561 117.134 110.586 115.748 109.222 114.53C109.222 114.53 106.767 115.553 106.38 117.466Z" fill="#FFB27D"/>
<path d="M122.737 115.273C122.335 113.777 120.748 112.903 119.192 113.319C118.795 113.426 118.438 113.607 118.133 113.842L117.52 114.287L117.594 114.382C117.081 115.051 116.873 115.926 117.102 116.782C117.504 118.277 119.091 119.152 120.647 118.736C120.744 118.71 120.84 118.678 120.932 118.644L121.003 118.735L121.698 118.221L121.697 118.22C122.59 117.537 123.037 116.39 122.737 115.273Z" fill="#EF7E29"/>
<path d="M116.522 117.204C116.119 115.709 117.055 114.159 118.612 113.742C120.167 113.325 121.754 114.199 122.156 115.696C122.557 117.191 121.621 118.741 120.066 119.158C118.51 119.575 116.923 118.701 116.522 117.204Z" fill="#F99746"/>
<path d="M119.881 116.425C119.851 116.092 119.445 115.761 119.007 115.923C118.83 115.987 114.141 118.919 114.141 118.919L115.144 120.159L119.694 116.915C119.694 116.915 119.91 116.764 119.881 116.425" fill="#EF7E29"/>
<path d="M118.855 118.712C118.879 118.64 120.255 117.588 119.633 116.38C119.347 115.826 118.798 115.859 118.516 116.112C118.301 116.304 118.38 116.839 118.461 117.075C118.594 117.465 118.855 118.712 118.855 118.712" fill="#FFB27D"/>
<path d="M119.156 117.957C118.719 116.33 116.994 115.378 115.3 115.831C114.868 115.947 114.479 116.145 114.147 116.4L113.481 116.884L113.562 116.987C113.004 117.716 112.777 118.666 113.027 119.598C113.464 121.225 115.191 122.177 116.883 121.724C116.989 121.695 117.092 121.661 117.193 121.624L117.27 121.723L118.026 121.164L118.025 121.163C118.997 120.42 119.483 119.172 119.156 117.957" fill="#EF7E29"/>
<path d="M112.394 120.058C111.957 118.431 112.976 116.744 114.668 116.291C116.361 115.837 118.087 116.789 118.524 118.416C118.961 120.043 117.943 121.73 116.25 122.183C114.558 122.636 112.832 121.685 112.394 120.058" fill="#F99746"/>
<path d="M116.465 118.843C116.324 118.316 115.763 118.006 115.213 118.154C115.073 118.191 114.946 118.255 114.838 118.339L114.622 118.496L114.649 118.529C114.468 118.766 114.394 119.074 114.475 119.377C114.617 119.905 115.177 120.214 115.727 120.066C115.761 120.057 115.794 120.046 115.827 120.034L115.853 120.066L116.098 119.884C116.413 119.643 116.571 119.238 116.465 118.843" fill="#EF7E29"/>
<path d="M114.27 119.526C114.128 118.998 114.458 118.45 115.007 118.303C115.558 118.156 116.118 118.464 116.26 118.993C116.401 119.522 116.071 120.068 115.522 120.216C114.972 120.363 114.412 120.054 114.27 119.526" fill="#F99746"/>
<path d="M149.003 104.123C149.003 104.123 145.581 104.322 145.21 105.734C144.616 107.986 144.062 113.233 144.062 113.233L140.608 108.957L139.366 109.555C139.366 109.555 142.312 117.464 144.798 117.097C147.285 116.729 149.003 104.123 149.003 104.123" fill="#F4A671"/>
<path d="M152.519 93.5615C152.519 93.5615 152.966 91.7786 155.588 92.3354C155.588 92.3354 154.333 92.1776 153.988 92.661C153.988 92.661 154.984 92.2057 155.606 92.5866C156.23 92.9675 156.332 94.2489 156.239 94.6388C156.146 95.0298 155.458 96.1906 155.003 96.1906C154.547 96.1906 154.008 95.7906 154.008 95.7906L152.519 93.5615" fill="#2C3A64"/>
<path d="M147.804 95.4006C147.804 95.4006 151.125 91.4158 152.882 93.9655C152.882 93.9655 154.194 94.5092 154.668 96.7383C155.152 99.0126 153.637 100.741 152.854 100.314C152.352 100.041 151.972 100.918 151.972 100.918L147.804 95.4006" fill="#2C3A64"/>
<path d="M148.848 104.141C148.835 104.147 150.068 104.786 150.996 104.533C151.868 104.296 152.974 104.003 152.962 104C152.593 103.927 151.951 102.582 151.958 100.404L151.791 100.436L148.982 100.991C148.982 100.991 149.047 101.875 149.049 102.706C149.05 103.404 149.007 104.067 148.848 104.141Z" fill="#FFB27D"/>
<path d="M148.982 100.992C148.982 100.992 149.047 101.875 149.049 102.706C150.62 102.662 151.451 101.23 151.791 100.436L148.982 100.992Z" fill="#F4A671"/>
<path d="M152.082 100.131C152.082 100.131 152.905 98.8308 153.103 97.7192C153.244 96.9263 152.839 93.9847 149.88 94.4088C149.88 94.4088 149.021 94.4932 148.213 95.0379C147.57 95.471 146.643 96.4067 147.679 98.9735L147.949 99.8408L152.082 100.131Z" fill="#2C3A64"/>
<path d="M148.458 101.779C148.458 101.779 152.176 101.841 152.179 99.5272C152.181 97.2137 152.663 95.663 150.288 95.5263C147.915 95.3896 147.453 96.272 147.264 97.0438C147.075 97.8157 147.49 101.704 148.458 101.779Z" fill="#FFB27D"/>
<path d="M148.595 95.47C148.595 95.47 149.613 98.1835 151.176 98.5855C152.739 98.9865 153.416 98.5684 153.416 98.5684C153.416 98.5684 152.217 97.6177 151.969 95.9574C151.969 95.9574 149.364 94.1776 148.595 95.47" fill="#2C3A64"/>
<path d="M148.847 95.6901C148.847 95.6901 148.087 96.2961 147.902 96.8851C147.716 97.474 147.633 98.687 147.279 98.6458C147.279 98.6458 146.512 96.8006 147.374 95.7575C148.288 94.6509 148.847 95.6901 148.847 95.6901Z" fill="#2C3A64"/>
<path d="M145.975 120.809C147.866 114.772 145.794 113.46 145.991 110.439C146.188 107.418 148.53 104.169 148.53 104.169C148.53 104.169 151.366 103.883 152.854 103.983C154.178 104.073 156.445 108.186 155.879 111.984C155.81 112.455 155.696 112.921 155.532 113.374C154.836 115.297 154.477 116.081 154.494 116.807C154.516 117.727 155.14 118.552 156.444 121.473C157.164 123.087 144.045 126.975 145.975 120.809" fill="#FFB27D"/>
<path d="M150.87 134.391C150.344 137.366 149.957 139.599 149.957 139.599C150.943 143.634 149.461 148.809 148.241 152.066C147.961 152.809 147.696 153.453 147.476 153.961L147.475 153.965L147.473 153.97L147.467 153.983H147.466C147.461 153.998 147.454 154.012 147.448 154.027L147.446 154.032C147.126 154.769 146.912 155.198 146.912 155.198L145.111 155.28C145.111 155.28 145.249 154.506 145.403 153.2L145.404 153.187C145.453 152.766 145.505 152.291 145.553 151.767C145.827 148.805 146.017 144.341 145.377 139.846C143.814 128.867 145.879 121.511 145.879 121.511L152.49 123.641L152.798 123.74C152.21 126.85 151.455 131.08 150.87 134.391" fill="#FFB27D"/>
<path d="M152.764 103.928C152.764 103.928 155.942 104.253 156.314 105.07C157.514 107.708 158.713 116.606 159.048 117.386C159.383 118.167 160.405 122.457 161.28 124.576L160.164 124.909C160.164 124.909 156.481 118.807 156.146 117.219C155.812 115.631 153.975 109.171 153.975 109.171L152.764 103.928Z" fill="#FFB27D"/>
<path d="M155.269 111.22L155.313 113.976C155.313 113.976 152.89 113.273 150.302 113.059C149.672 113.006 149.031 112.983 148.414 113.006C147.649 113.033 146.92 113.134 146.289 113.337C146.289 113.337 145.879 111.553 145.469 109.435C145.455 109.359 145.443 109.283 145.434 109.208C145.198 107.193 146.99 105.547 146.237 104.741C146.237 104.741 146.892 104.383 148.53 104.169C148.53 104.169 147.275 106.379 147.386 106.937C147.497 107.494 152.352 106.992 152.686 106.686C153.021 106.379 153.552 104.033 153.552 104.033C153.552 104.033 155.271 104.221 156.112 104.831C156.112 104.831 155.543 105.54 155.187 106.389C155.082 106.64 154.996 106.901 154.946 107.16C154.817 107.854 154.472 109.175 155.253 110.215L155.269 111.22" fill="white"/>
<path d="M152.129 127.25C151.541 130.361 151.455 131.081 150.87 134.391C147.243 128.066 147.776 126.415 147.776 126.415L152.129 127.25Z" fill="#F4A671"/>
<path d="M163.515 153.127C163.511 153.243 163.506 153.356 163.501 153.465C163.448 154.525 163.358 155.171 163.358 155.171L161.622 154.569C161.622 154.569 161.54 154.319 161.396 153.888C161.338 153.713 161.269 153.507 161.19 153.276L161.188 153.271C161.046 152.85 160.873 152.347 160.678 151.787C159.496 148.403 157.485 142.986 156.314 141.74C152.964 138.175 148.033 122.629 148.033 122.629L154.696 120.47C155.684 121.426 156.486 123.216 157.133 125.325C158.765 130.643 159.399 137.984 159.485 139.046V139.049C159.491 139.131 159.535 139.202 159.59 139.263C162.708 142.728 163.438 147.775 163.526 151.251C163.543 151.947 163.536 152.581 163.515 153.127" fill="#FFB27D"/>
<path d="M150.6 127.811L149.444 127.669C148.885 127.483 148.338 127.358 147.831 127.273C146.193 126.999 144.949 127.158 144.949 127.158C145.451 121.794 146.179 120.082 146.179 120.082L148.595 124.306L150.6 127.811" fill="#632164" fill-opacity="0.9"/>
<path d="M150.6 127.811L149.444 127.669C148.885 127.483 148.338 127.358 147.831 127.273C147.758 126.243 148.172 125.14 148.595 124.306L150.6 127.811Z" fill="#233862"/>
<path d="M146.179 120.082C146.179 120.082 147.776 121.287 149.395 121.176C151.013 121.064 155.737 119.987 155.737 119.987C155.737 119.987 156.613 121.257 157.225 123.777C157.857 126.378 157.857 128.309 157.857 128.309C157.857 128.309 152.315 127.585 150.083 128.756L146.179 120.082" fill="#632164" fill-opacity="0.9"/>
<path d="M148.707 95.7815C148.707 95.7815 149.432 98.6236 151.403 99.5342C151.403 99.5342 149.432 97.7875 149.264 95.9122C149.097 94.0358 148.707 95.7815 148.707 95.7815Z" fill="#2C3A64"/>
<path d="M165.197 125.286C164.92 124.257 163.829 123.656 162.759 123.943C162.485 124.016 162.239 124.141 162.029 124.302L161.608 124.608L161.659 124.673C161.307 125.134 161.163 125.736 161.321 126.325C161.598 127.354 162.688 127.955 163.759 127.668C163.826 127.65 163.891 127.629 163.955 127.605L164.004 127.668L164.482 127.314V127.313C165.096 126.844 165.403 126.055 165.197 125.286Z" fill="#EF7E29"/>
<path d="M160.921 126.615C160.645 125.587 161.289 124.52 162.358 124.233C163.429 123.947 164.521 124.549 164.797 125.577C165.073 126.606 164.429 127.672 163.36 127.959C162.289 128.245 161.197 127.644 160.921 126.615Z" fill="#F99746"/>
<path d="M163.232 126.079C163.212 125.849 162.932 125.622 162.631 125.734C162.509 125.778 159.283 127.794 159.283 127.794L159.974 128.647L163.104 126.416C163.104 126.416 163.252 126.312 163.232 126.079Z" fill="#EF7E29"/>
<path d="M137.013 106.376C137.289 105.347 138.381 104.746 139.451 105.033C139.725 105.106 139.97 105.231 140.18 105.392L140.601 105.698L140.55 105.763C140.903 106.224 141.047 106.826 140.888 107.415C140.612 108.444 139.521 109.045 138.45 108.758C138.384 108.74 138.318 108.719 138.255 108.695L138.205 108.758L137.728 108.404V108.403C137.114 107.934 136.807 107.145 137.013 106.376" fill="#EF7E29"/>
<path d="M141.289 107.705C141.564 106.677 140.921 105.61 139.851 105.323C138.78 105.037 137.689 105.639 137.413 106.667C137.137 107.696 137.78 108.762 138.851 109.049C139.92 109.336 141.012 108.734 141.289 107.705Z" fill="#F99746"/>
<path d="M138.977 107.169C138.997 106.939 139.277 106.712 139.578 106.824C139.7 106.868 142.926 108.884 142.926 108.884L142.235 109.738L139.105 107.506C139.105 107.506 138.957 107.402 138.977 107.169Z" fill="#EF7E29"/>
<path d="M139.373 109.562C139.373 109.562 138.222 108.136 139.051 107.4C139.879 106.665 140.954 106.88 140.984 107.309C141.015 107.738 140.615 108.964 140.615 108.964L139.373 109.562Z" fill="#F4A671"/>
<path d="M161.2 124.39C161.2 124.39 161.54 125.189 161.894 125.412C162.247 125.634 162.749 126.173 162.656 126.601C162.563 127.028 162.47 127.696 162.023 127.696C161.578 127.696 160.536 125.727 160.405 125.356C160.276 124.984 160.164 124.909 160.164 124.909L161.2 124.39" fill="#FFB27D"/>
<path d="M162.734 127.133C162.433 126.013 161.246 125.359 160.081 125.67C159.783 125.751 159.517 125.886 159.288 126.062L158.829 126.394L158.886 126.466C158.502 126.967 158.345 127.621 158.518 128.261C158.818 129.381 160.006 130.035 161.17 129.723C161.242 129.704 161.314 129.681 161.383 129.655L161.437 129.723L161.956 129.338V129.337C162.624 128.827 162.958 127.969 162.734 127.133Z" fill="#EF7E29"/>
<path d="M158.083 128.578C157.782 127.459 158.482 126.298 159.647 125.987C160.811 125.675 161.998 126.33 162.299 127.448C162.599 128.568 161.9 129.728 160.735 130.04C159.57 130.352 158.383 129.697 158.083 128.578" fill="#F99746"/>
<path d="M160.882 127.743C160.785 127.38 160.399 127.167 160.021 127.268C159.924 127.294 159.838 127.338 159.763 127.395L159.615 127.503L159.633 127.526C159.509 127.689 159.457 127.901 159.514 128.109C159.611 128.472 159.997 128.685 160.375 128.584C160.398 128.578 160.421 128.57 160.444 128.562L160.462 128.584L160.63 128.459C160.847 128.292 160.956 128.014 160.882 127.743" fill="#EF7E29"/>
<path d="M159.373 128.212C159.275 127.849 159.502 127.472 159.88 127.371C160.258 127.269 160.644 127.482 160.741 127.845C160.839 128.209 160.612 128.586 160.233 128.686C159.856 128.788 159.469 128.576 159.373 128.212Z" fill="#F99746"/>
<path d="M139.475 108.222C139.776 107.103 140.964 106.449 142.128 106.76C142.426 106.841 142.693 106.976 142.921 107.152L143.38 107.484L143.324 107.556C143.708 108.057 143.864 108.711 143.692 109.352C143.392 110.471 142.204 111.125 141.04 110.813C140.967 110.794 140.895 110.771 140.827 110.745L140.773 110.813L140.253 110.428C139.585 109.917 139.251 109.059 139.475 108.222" fill="#EF7E29"/>
<path d="M144.127 109.668C144.427 108.549 143.727 107.388 142.563 107.077C141.398 106.765 140.211 107.419 139.911 108.538C139.61 109.658 140.311 110.817 141.475 111.13C142.639 111.441 143.826 110.787 144.127 109.668Z" fill="#F99746"/>
<path d="M141.327 108.832C141.424 108.47 141.81 108.257 142.188 108.358C142.285 108.384 142.371 108.427 142.446 108.485L142.595 108.593L142.577 108.616C142.701 108.779 142.752 108.991 142.696 109.199C142.599 109.562 142.212 109.775 141.835 109.674C141.811 109.668 141.788 109.66 141.766 109.652L141.748 109.674L141.579 109.549C141.363 109.382 141.254 109.104 141.327 108.832Z" fill="#EF7E29"/>
<path d="M142.837 109.302C142.935 108.939 142.707 108.562 142.329 108.461C141.952 108.359 141.565 108.572 141.469 108.935C141.371 109.299 141.598 109.676 141.976 109.776C142.354 109.878 142.74 109.666 142.837 109.302Z" fill="#F99746"/>
<path d="M146.032 120.508C146.032 120.508 147.481 121.568 149.016 121.611C150.551 121.654 155.946 120.336 155.946 120.336L155.723 119.917C155.723 119.917 149.809 121.496 148.423 121.028C147.036 120.561 146.194 120.006 146.194 120.006L146.032 120.508" fill="#233862"/>
<path d="M147.322 156.922C146.667 156.931 145.125 156.755 144.509 156.922L142.028 156.923C141.451 156.568 141.217 156.157 142.749 155.968C144.959 155.695 145.36 153.48 145.403 153.2L145.404 153.187C145.406 153.176 145.406 153.171 145.406 153.171L147.476 153.961L147.475 153.965L147.473 153.97L147.467 153.983H147.466C147.462 153.994 147.456 154.009 147.448 154.027L147.446 154.032C147.373 154.223 147.209 154.774 147.438 155.429C147.634 155.992 147.977 156.913 147.322 156.922Z" fill="#FFB27D"/>
<path d="M163.582 156.922C162.926 156.931 161.384 156.755 160.768 156.922L158.288 156.923C157.71 156.568 157.489 156.237 159.008 155.968C161.243 155.573 161.495 154.554 161.397 153.888C161.347 153.555 161.211 153.31 161.19 153.276L161.188 153.271L163.515 153.127C163.515 153.127 163.506 153.258 163.501 153.465C163.488 153.952 163.498 154.857 163.697 155.429C163.893 155.992 164.237 156.913 163.582 156.922" fill="#FFB27D"/>
<path d="M147.446 154.032C147.373 154.223 147.209 154.774 147.438 155.429C147.634 155.992 147.977 156.913 147.322 156.922C146.667 156.931 145.125 156.755 144.509 156.922L142.028 156.923C141.451 156.568 141.217 156.157 142.749 155.968C144.959 155.695 145.36 153.48 145.403 153.2L145.404 153.187C145.453 152.766 145.505 152.291 145.553 151.767C145.553 151.767 146.576 152.524 148.241 152.065V152.066C147.961 152.809 147.696 153.453 147.476 153.961L147.475 153.965L147.473 153.97L147.467 153.983H147.466C147.461 153.998 147.454 154.012 147.448 154.027L147.446 154.032" fill="#632164" fill-opacity="0.9"/>
<path d="M163.582 156.922C162.926 156.931 161.384 156.755 160.768 156.922L158.288 156.923C157.71 156.568 157.489 156.237 159.008 155.968C161.243 155.573 161.495 154.554 161.397 153.888C161.338 153.713 161.269 153.507 161.19 153.276L161.188 153.271C161.046 152.85 160.873 152.347 160.678 151.787C161.315 151.793 162.481 151.726 163.526 151.251C163.543 151.947 163.536 152.581 163.515 153.127C163.511 153.243 163.506 153.356 163.501 153.465C163.488 153.952 163.498 154.857 163.697 155.429C163.893 155.992 164.237 156.913 163.582 156.922" fill="#632164" fill-opacity="0.9"/>
<path d="M148.016 100.423C148.016 100.423 148.113 100.636 148.155 100.742C148.197 100.848 148.817 100.853 149.014 100.734C149.176 100.636 149.376 100.361 149.365 100.372C149.365 100.372 148.295 100.347 148.016 100.423" fill="white"/>
<path d="M73.4471 134.169C72.8836 134.782 72.0384 135.414 73.3821 136.816C75.1049 138.613 77.7697 146.356 77.7697 146.356C77.6784 146.653 77.7722 147.063 77.5614 147.183C77.2208 147.379 76.3507 146.783 76.3507 146.783C76.3507 146.783 68.4375 138.597 67.7956 136.755C67.3216 135.397 69.7447 128.812 71.1947 125.362C71.7083 124.14 72.0999 123.311 72.1972 123.246C72.2122 123.236 72.2272 123.227 72.2422 123.218C73.0949 122.678 73.8971 122.748 74.6138 123.162C74.7667 123.25 74.9161 123.354 75.0609 123.471C76.8312 124.906 77.9686 128.308 77.8506 129.016C77.7687 129.508 76.9051 130.552 75.9576 131.578C75.7607 131.791 75.5604 132.004 75.3627 132.21C74.501 133.112 73.6888 133.905 73.4471 134.169" fill="#F99746"/>
<path d="M75.9575 131.578C75.7606 131.791 75.5603 132.004 75.3626 132.21L71.1946 125.362C71.7082 124.14 72.0998 123.311 72.1971 123.246C72.2121 123.236 72.2271 123.227 72.2421 123.218L74.6137 123.162L75.0424 123.152L75.0608 123.471L75.9575 131.578Z" fill="#ED7D2B"/>
<path d="M73.5984 107.756C73.5984 107.756 74.4851 109.921 74.2551 111.208C74.0251 112.497 70.973 118.913 69.8604 120.011C68.7478 121.109 61.3716 116.438 61.3716 116.438L62.0974 115.745C62.0974 115.745 67.9323 117.228 68.2409 116.763C68.5498 116.298 70.0352 107.155 73.5984 107.756" fill="#FFB27D"/>
<path d="M73.4235 124.719C73.4235 124.719 74.9371 132.278 78.7562 137.596C82.4469 142.735 84.3667 150.611 84.3667 150.611C84.3667 150.611 84.6117 150.802 85.0938 150.597C85.576 150.393 85.8992 150.641 85.9963 150.407C85.9963 150.407 85.2992 137.974 83.3841 135.253C82.302 133.715 81.725 128.069 81.7618 126.534C81.7986 124.997 81.1255 123.113 81.1255 123.113L73.4235 124.719" fill="#F99746"/>
<path d="M85.9609 152.64L85.068 152.647C84.7684 152.601 84.547 152.517 84.2399 152.479C83.7736 152.421 83.5605 152.613 83.5181 152.658L83.51 152.667L79.7167 152.693C79.6203 152.558 79.7097 152.242 79.7978 152.009C79.8572 151.851 79.9881 151.731 80.1507 151.683C80.5521 151.563 81.3444 151.454 82.066 150.792C82.472 150.42 84.0294 149.422 84.0294 149.422L84.0377 149.42C84.0721 149.421 84.236 149.47 84.9517 150.066C85.3218 150.372 85.9435 149.621 85.9435 149.621C85.9435 149.621 86.0618 149.717 86.151 149.898C86.2226 150.041 86.2756 150.237 86.2365 150.479C86.1823 150.82 86.3694 151.454 86.5182 151.882C86.6084 152.141 86.6842 152.325 86.6842 152.325C86.6842 152.325 86.7284 152.539 85.9609 152.64" fill="#233862"/>
<path d="M86.151 149.898C85.9389 150.05 85.491 150.348 85.1927 150.389C84.7902 150.444 84.0294 149.422 84.0294 149.422L84.0377 149.42C84.0721 149.421 84.236 149.47 84.9517 150.066C85.3218 150.372 85.9435 149.621 85.9435 149.621C85.9435 149.621 86.0618 149.717 86.151 149.898Z" fill="#233862"/>
<path d="M85.9609 152.64L85.068 152.647C84.7684 152.601 84.547 152.517 84.2399 152.479C83.7736 152.421 83.5605 152.613 83.5181 152.658L83.51 152.667L79.7167 152.693C79.6203 152.558 79.7097 152.242 79.7978 152.009C79.9123 151.906 79.9487 152.453 80.0129 152.539C80.0772 152.625 83.1075 152.549 83.2817 152.42C83.4557 152.293 83.9793 152.067 84.7124 152.235C85.3506 152.383 86.2866 151.987 86.5182 151.882C86.6084 152.141 86.6842 152.325 86.6842 152.325C86.6842 152.325 86.7284 152.539 85.9609 152.64" fill="#233862"/>
<path d="M81.3572 118.36C81.3603 114.122 80.5837 108.006 79.5221 107.536C78.6208 107.137 76.6537 106.566 74.6263 106.597C73.026 106.621 69.6154 107.369 69.2685 110.009C69.0488 111.682 68.9601 113.058 68.9601 113.058C68.9601 113.058 69.3269 114.126 70.3382 114.411C70.464 114.884 70.5218 115.352 70.6724 115.748C72.3521 120.166 71.5269 124.587 71.5269 124.587C73.0731 125.871 80.7673 125.119 81.5426 124.614C82.8055 123.792 81.354 122.598 81.3572 118.36" fill="#2A4E96"/>
<path d="M79.513 147.417L78.8724 148.039C78.625 148.212 78.4062 148.305 78.1583 148.489C77.7814 148.769 77.7606 149.056 77.7606 149.117L77.7608 149.129L75.0394 151.768C74.8761 151.737 74.7219 151.446 74.6244 151.218C74.5578 151.063 74.5691 150.886 74.6531 150.738C74.8606 150.375 75.3573 149.749 75.4202 148.772C75.4562 148.223 75.89 146.427 75.89 146.427L75.8945 146.419C75.9196 146.396 76.072 146.319 77.0011 146.254C77.481 146.22 77.4097 145.248 77.4097 145.248C77.4097 145.248 77.562 145.236 77.7514 145.305C77.9018 145.358 78.0759 145.464 78.2155 145.666C78.413 145.95 78.9865 146.278 79.3904 146.484C79.6352 146.609 79.8172 146.69 79.8172 146.69C79.8172 146.69 79.9972 146.813 79.513 147.417" fill="#233862"/>
<path d="M77.7514 145.305C77.7031 145.561 77.5865 146.086 77.3994 146.322C77.1471 146.64 75.89 146.427 75.89 146.427L75.8945 146.419C75.9196 146.396 76.072 146.319 77.0011 146.254C77.481 146.22 77.4098 145.248 77.4098 145.248C77.4098 145.248 77.562 145.236 77.7514 145.305" fill="#233862"/>
<path d="M79.513 147.417L78.8724 148.039C78.6249 148.212 78.4062 148.305 78.1582 148.489C77.7814 148.769 77.7606 149.056 77.7606 149.117L77.7608 149.129L75.0394 151.768C74.8761 151.737 74.7219 151.446 74.6244 151.218C74.6357 151.065 75.0403 151.434 75.1466 151.452C75.2531 151.471 77.3889 149.322 77.4258 149.109C77.4626 148.896 77.6842 148.371 78.3312 147.987C78.8942 147.653 79.296 146.72 79.3904 146.484C79.6351 146.609 79.8171 146.69 79.8171 146.69C79.8171 146.69 79.9972 146.813 79.513 147.417Z" fill="#233862"/>
<path d="M77.3165 108.096C77.3165 108.096 79.6576 108.07 80.7716 108.758C81.8855 109.447 86.7325 114.645 87.3444 116.084C87.9562 117.521 82.3313 121.621 82.3313 121.621L81.5383 120.36C81.5383 120.36 84.0442 116.847 83.7249 116.389C83.4056 115.932 75.4433 111.182 77.3165 108.096" fill="#FFB27D"/>
<path d="M81.8336 120.166L82.7679 120.884C82.7679 120.884 81.9462 122.656 81.4976 122.823L81.4512 122.832C80.9691 122.929 79.7715 122.147 79.5715 121.34C79.5548 121.256 79.5586 121.179 79.5827 121.107C79.7677 120.618 80.8901 120.341 81.4768 120.227C81.6909 120.186 81.8336 120.166 81.8336 120.166" fill="#FFB27D"/>
<path d="M62.7414 115.902L62.2735 116.983C62.2735 116.983 60.3519 116.623 60.0801 116.229L60.0596 116.187C59.8478 115.744 60.3121 114.392 61.0466 114C61.1233 113.964 61.1997 113.948 61.2757 113.954C61.7952 114.013 62.3403 115.031 62.5946 115.571C62.6873 115.769 62.7414 115.902 62.7414 115.902" fill="#FFB27D"/>
<path d="M76.4307 106.715C76.4307 106.715 78.6017 106.812 80.1603 107.778C80.8781 108.224 83.6354 110.832 83.6354 110.832C83.6354 110.832 83.3296 113.559 80.0455 114.299C76.7029 115.05 76.1656 109.471 76.1656 109.471L76.4307 106.715" fill="#2A4E96"/>
<path d="M75.8356 106.754C75.9401 106.907 75.943 107.107 75.8442 107.264C75.553 107.725 74.7368 108.523 72.6111 108.377C71.8828 108.327 71.7158 107.777 72.1767 107.211C72.2889 107.074 72.2509 106.282 72.2389 105.964C72.1967 105.23 72.2241 104.818 72.2241 104.818L73.7304 103.787L75.1592 102.802C74.9241 105.108 75.5345 106.314 75.8356 106.754" fill="#FFB27D"/>
<path d="M75.1071 103.959C75.1071 103.959 74.0558 105.604 72.2389 105.964C72.1967 105.23 72.2241 104.818 72.2241 104.818L73.7303 103.787L75.1071 103.959" fill="#ED985F"/>
<path d="M71.5746 104.725C71.5746 104.725 75.0761 105.537 75.5526 103.386C76.0291 101.235 76.802 99.89 74.5865 99.281C72.3712 98.6709 71.7535 99.3975 71.4167 100.077C71.0801 100.757 70.6761 104.458 71.5746 104.725" fill="#FFB27D"/>
<path d="M77.1233 99.1875C77.1579 99.1523 77.234 99.1282 77.3995 99.1292C77.3995 99.1292 77.2733 99.0387 77.0972 99.0226C77.0779 98.7915 76.9828 98.3774 76.5945 98.2528C76.5945 98.2528 76.7992 98.3805 76.8108 98.6257C76.3847 98.1262 75.4277 97.7202 72.7007 97.7543C69.1067 97.7996 70.1333 100.163 70.5781 100.467C71.0228 100.77 72.2375 100.1 73.0953 100.226C73.9531 100.351 74.0346 101.607 74.3158 101.796C74.5969 101.986 74.502 101.677 74.9097 101.524C75.3174 101.372 75.3116 102.03 75.169 102.448C75.0264 102.866 75.5329 103.464 75.5329 103.464C75.5329 103.464 75.533 103.464 76.1217 102.909C76.7106 102.354 77.3948 99.8849 77.1803 99.3342C77.1614 99.286 77.1428 99.2367 77.1233 99.1875" fill="#2C3A64"/>
<path d="M71.2736 103.364C71.2736 103.364 71.3687 103.683 71.7236 103.725C72.0785 103.766 72.3106 103.513 72.3106 103.513C72.3106 103.513 71.7288 103.243 71.2736 103.364Z" fill="white"/>
<path d="M313.648 157.294V157.426C313.648 157.616 313.492 157.772 313.303 157.772H14.6535C14.4631 157.772 14.3086 157.616 14.3086 157.426V157.294C14.3086 157.104 14.4631 156.948 14.6535 156.948H313.303C313.492 156.948 313.648 157.104 313.648 157.294Z" fill="#2E3552"/>
<path d="M229.168 120.519V142.382H228.958V120.528C228.992 120.526 229.028 120.524 229.063 120.523C229.098 120.521 229.133 120.52 229.168 120.519Z" fill="#632164"/>
<path d="M241.747 150.941C238.565 154.203 234.335 156 229.836 156C225.337 156 221.106 154.203 217.925 150.941C214.743 147.679 212.991 143.34 212.991 138.726C212.991 134.112 214.743 129.775 217.925 126.512C220.899 123.462 224.788 121.693 228.958 121.475C228.993 121.473 229.029 121.471 229.063 121.47C229.098 121.468 229.134 121.466 229.168 121.465C229.39 121.456 229.613 121.452 229.836 121.452C234.335 121.452 238.565 123.249 241.747 126.512C244.928 129.775 246.68 134.112 246.68 138.726C246.68 143.34 244.928 147.679 241.747 150.941ZM246.207 131.634C245.313 129.464 244.032 127.515 242.4 125.842C240.769 124.169 238.868 122.855 236.753 121.938C234.561 120.987 232.235 120.506 229.836 120.506C229.613 120.506 229.39 120.51 229.168 120.519C229.133 120.52 229.098 120.521 229.063 120.523C229.028 120.524 228.992 120.526 228.958 120.528C226.869 120.63 224.842 121.104 222.92 121.938C220.804 122.855 218.903 124.169 217.272 125.842C215.639 127.515 214.359 129.464 213.464 131.634C212.537 133.88 212.067 136.267 212.067 138.726C212.067 141.186 212.537 143.572 213.464 145.82C214.359 147.989 215.639 149.938 217.272 151.611C218.903 153.284 220.804 154.598 222.92 155.516C225.11 156.465 227.438 156.948 229.836 156.948C232.235 156.948 234.561 156.465 236.753 155.516C238.868 154.598 240.769 153.284 242.4 151.611C244.032 149.938 245.313 147.989 246.207 145.82C247.134 143.572 247.604 141.186 247.604 138.726C247.604 136.267 247.134 133.88 246.207 131.634Z" fill="#632164"/>
<path d="M223.507 153.536C223.475 154.986 223.451 155.962 223.451 155.962C223.413 156.521 222.937 156.945 222.391 156.906L218.707 156.641C218.162 156.602 217.749 156.114 217.787 155.555C217.787 155.555 217.887 154.576 218.028 153.134C218.055 152.859 218.084 152.575 218.113 152.275C218.425 149.064 218.863 144.373 219.014 142.283C219.154 140.235 219.339 135.432 219.449 132.473C219.461 132.172 219.471 131.895 219.48 131.637C219.515 130.636 219.535 129.989 219.535 129.989C219.572 129.43 220.048 129.006 220.593 129.045L224.277 129.309C224.822 129.349 225.236 129.837 225.198 130.396C225.198 130.396 225.121 131.031 225.004 132.017C224.977 132.274 224.94 132.566 224.911 132.875C224.566 135.816 224.031 140.576 223.89 142.634C223.748 144.716 223.611 149.427 223.525 152.656C223.52 152.966 223.517 153.26 223.507 153.536" fill="#ED7D2B"/>
<path d="M221.896 153.42C221.864 154.871 221.84 155.846 221.84 155.846C221.802 156.405 221.326 156.829 220.78 156.79L218.707 156.641C218.162 156.602 217.749 156.114 217.787 155.555C217.787 155.555 217.887 154.576 218.028 153.134C218.055 152.859 218.084 152.575 218.113 152.275C218.425 149.064 218.863 144.373 219.014 142.283C219.154 140.235 219.339 135.432 219.449 132.473C219.461 132.172 219.471 131.895 219.48 131.637C219.515 130.636 219.535 129.989 219.535 129.989C219.572 129.43 220.048 129.006 220.593 129.045L222.666 129.194C223.211 129.233 223.625 129.721 223.587 130.28C223.587 130.28 223.51 130.914 223.392 131.901C223.366 132.159 223.329 132.45 223.3 132.759C222.955 135.7 222.42 140.461 222.279 142.517C222.136 144.599 222 149.312 221.914 152.539C221.909 152.85 221.906 153.144 221.896 153.42" fill="#F99746"/>
<path d="M225.004 132.017C224.977 132.274 224.94 132.566 224.911 132.875L219.524 132.487C219.498 132.486 219.473 132.484 219.449 132.473C219.461 132.172 219.471 131.895 219.48 131.637C219.516 131.622 219.549 131.625 219.582 131.627L225.004 132.017" fill="#F9DDBF"/>
<path d="M218.028 153.134C218.044 153.143 218.061 153.145 218.079 153.146L223.507 153.536C223.517 153.26 223.52 152.966 223.525 152.656L218.138 152.268L218.113 152.275L218.028 153.134" fill="#F9DDBF"/>
<path d="M227.907 132.524C227.848 132.524 227.801 132.476 227.801 132.416V120.617C227.801 120.558 227.848 120.51 227.907 120.51C227.965 120.51 228.011 120.558 228.011 120.617V132.416C228.011 132.476 227.965 132.524 227.907 132.524Z" fill="#632164"/>
<path d="M227.858 134.51C227.634 134.51 227.451 134.326 227.451 134.103V132.652C227.451 132.429 227.634 132.246 227.858 132.246C228.083 132.246 228.266 132.429 228.266 132.652V134.103C228.266 134.326 228.083 134.51 227.858 134.51Z" fill="#F99746"/>
<path d="M229.063 144.01C228.839 144.01 228.655 143.827 228.655 143.602V142.152C228.655 141.928 228.839 141.745 229.063 141.745C229.287 141.745 229.47 141.928 229.47 142.152V143.602C229.47 143.827 229.287 144.01 229.063 144.01Z" fill="#F99746"/>
<path d="M18.7788 106.662C18.8671 106.341 18.9588 106.022 19.054 105.704C19.1853 105.264 19.3235 104.824 19.4675 104.385C19.9333 104.409 20.4118 104.485 20.8275 104.654C20.8275 104.654 19.5605 105.735 18.7788 106.662" fill="#632164" fill-opacity="0.7"/>
<path d="M30.6471 111.574C29.7018 113.732 28.2117 113.992 27.6798 113.747C27.1467 113.502 24.3326 111.178 24.1096 111.607C23.8855 112.035 25.3314 114.17 26.6705 114.698C26.6705 114.698 23.1398 116.662 21.7078 115.268C20.2747 113.875 20.5673 112.53 19.6661 111.685C18.766 110.838 17.8555 110.532 18.1273 111.176C18.4002 111.821 20.1655 112.953 20.4106 114.235C20.6545 115.517 20.9565 116.427 19.2782 115.565C18.6661 115.251 17.9542 114.751 17.3143 114.168C17.442 113.096 17.6034 112.024 17.7986 110.956C17.8974 110.411 18.0053 109.87 18.125 109.328C18.1633 109.143 18.2051 108.957 18.248 108.77C18.3131 108.483 18.3817 108.195 18.4513 107.909C19.2713 107.723 21.5 104.648 21.5 104.648C21.5 104.648 25.5486 105.592 26.6043 106.623C26.6043 106.623 22.3269 108.229 22.9784 108.631C23.6289 109.032 28.1571 107.565 28.1571 107.565C28.1571 107.565 31.5948 109.417 30.6471 111.574" fill="#632164" fill-opacity="0.7"/>
<path d="M28.8296 111.027C23.2421 109.343 20.0018 109.079 18.125 109.328C18.1633 109.143 18.2051 108.957 18.2481 108.77C22.2839 108.565 28.6112 110.945 28.8296 111.027Z" fill="#632164" fill-opacity="0.7"/>
<path d="M46.8661 98.7041C45.4677 102.113 43.1484 102.578 42.3076 102.215C41.4655 101.85 36.9779 98.3242 36.6446 99.0025C36.3112 99.6809 38.6514 102.962 40.7652 103.74C40.7652 103.74 35.3182 106.945 33.0268 104.817C30.7343 102.691 31.1407 100.576 29.6994 99.288C28.2593 98.0006 26.8249 97.5563 27.2744 98.5533C27.7251 99.5503 30.5264 101.255 30.9584 103.251C31.3892 105.246 31.8957 106.659 29.2384 105.371C26.5811 104.087 22.6858 100.641 23.213 98.2448C23.2362 98.1413 23.2583 98.0418 23.2793 97.9473L23.2804 97.9443C23.7414 95.8509 23.7414 95.8509 23.7414 95.8509C23.7414 95.8509 23.6648 95.672 23.5614 95.3675V95.3654C24.4035 93.9424 25.3373 92.5394 26.3697 91.1615C26.4266 91.0841 26.4847 91.0078 26.5427 90.9314C27.3244 89.9003 28.1617 88.8842 29.0559 87.8832C29.8039 87.8983 30.5774 87.9978 31.2487 88.2521C31.2487 88.2521 26.4753 92.5293 27.3267 93.3685C28.1792 94.2067 32.3021 88.2179 32.3021 88.2179C32.3021 88.2179 38.6678 89.5415 40.3564 91.1133C40.3564 91.1133 33.7295 93.7886 34.7619 94.3906C35.7944 94.9936 42.8197 92.5313 42.8197 92.5313C42.8197 92.5313 48.2655 95.2961 46.8661 98.7041" fill="#632164" fill-opacity="0.7"/>
<path d="M43.9962 97.9152C26.2884 93.04 23.6673 96.8017 23.2805 97.9444L23.2793 97.9474C23.2178 98.1313 23.213 98.2449 23.213 98.2449C22.9181 98.2077 22.4094 98.3494 21.8345 98.5685C22.0796 98.066 22.3363 97.5655 22.6033 97.067C23.3641 96.3756 23.7415 95.851 23.7415 95.851C28.4939 92.5234 43.4632 97.7273 43.9962 97.9152Z" fill="#632164" fill-opacity="0.7"/>
<path d="M301.388 150.238L301.404 155.741C301.406 156.392 300.874 156.927 300.222 156.929L297.964 156.935C297.274 156.937 296.708 156.375 296.706 155.687L296.69 150.253C296.687 149.327 297.246 148.526 298.044 148.17C298.149 148.124 298.215 148.015 298.199 147.901C298.195 147.869 298.193 147.835 298.192 147.8V147.51L299.87 147.505L299.871 147.795C299.871 147.835 299.868 147.872 299.863 147.908C299.846 148.01 299.899 148.113 299.994 148.154C300.809 148.499 301.385 149.304 301.388 150.238" fill="#FFA969"/>
<path d="M301.388 150.239L301.404 155.741C301.406 156.392 300.874 156.927 300.222 156.929L298.802 156.933C298.113 156.935 297.547 156.373 297.545 155.685L297.529 150.25C297.526 149.325 298.085 148.523 298.883 148.168C298.922 148.151 298.955 148.125 298.981 148.094C299.025 148.041 299.049 147.97 299.038 147.899C299.034 147.866 299.031 147.833 299.031 147.798L299.03 147.508L299.87 147.505L299.871 147.795C299.871 147.835 299.868 147.872 299.863 147.908C299.846 148.01 299.899 148.113 299.994 148.154C300.809 148.499 301.385 149.304 301.388 150.239" fill="#EF7E29"/>
<path d="M300.457 150.242L300.473 155.743C300.475 156.394 299.943 156.93 299.291 156.931L298.802 156.933C298.113 156.935 297.547 156.373 297.545 155.685L297.529 150.25C297.526 149.325 298.085 148.523 298.883 148.168C298.922 148.151 298.955 148.125 298.981 148.094C299.002 148.121 299.03 148.142 299.065 148.156C299.879 148.501 300.454 149.307 300.457 150.242" fill="#F99746"/>
<path d="M301.398 153.939L296.701 153.953L296.691 150.724L301.389 150.71L301.398 153.939" fill="#F9DDBF"/>
<path d="M299.961 147.04L298.096 147.049L298.098 147.49L299.963 147.481L299.961 147.04Z" fill="#2C3A64"/>
<path d="M245.499 105.069C245.538 104.395 245.441 103.758 245.441 103.758C244.932 105.054 244.232 105.711 243.735 106.035C243.572 106.074 243.442 106.09 243.377 106.074C243.102 106.007 242.839 105.92 242.589 105.816C243.324 105.25 244.038 104.353 244.081 104.297C243.42 104.905 242.617 105.322 242.062 105.564C240.694 104.822 239.756 103.609 239.248 102.809C242.758 101.702 243.791 99.5041 243.791 99.5041C240.671 101.991 239.289 102.112 238.805 102.027C238.799 102.014 238.796 102.008 238.796 102.008C243.49 100.765 244.79 95.2871 246.374 93.3666C247.957 91.446 249.88 92.9143 249.88 92.9143C249.88 92.9143 249.676 99.7091 245.499 105.069Z" fill="#A9453D"/>
<path d="M253.68 103.465C253.68 103.465 256.747 105.093 256.492 106.551C256.087 108.875 254.378 113.943 254.378 113.943L259.367 111.461L260.26 112.536C260.26 112.536 254.2 118.578 252.066 117.19C249.93 115.802 253.68 103.465 253.68 103.465" fill="#F4A671"/>
<path d="M260.25 112.539C260.25 112.539 261.914 111.712 261.461 110.685C261.009 109.657 259.928 109.401 259.719 109.784C259.509 110.166 259.358 111.465 259.358 111.465L260.25 112.539Z" fill="#C0783D"/>
<path d="M254.426 94.5805C254.426 94.5805 251.062 90.5424 249.281 93.1263C249.281 93.1263 247.952 93.677 247.471 95.9363C246.981 98.2408 248.516 99.9935 249.309 99.5603C249.818 99.2829 250.203 100.172 250.203 100.172L254.426 94.5805Z" fill="#A9453D"/>
<path d="M253.37 103.439C253.382 103.444 252.132 104.092 251.192 103.836C250.308 103.594 249.188 103.298 249.2 103.296C249.574 103.222 250.225 101.859 250.217 99.6499L250.386 99.684L253.233 100.247C253.233 100.247 253.167 101.141 253.166 101.983C253.164 102.692 253.207 103.362 253.37 103.439" fill="#FFB27D"/>
<path d="M253.233 100.247C253.233 100.247 253.168 101.141 253.167 101.983C251.574 101.939 250.731 100.488 250.386 99.684L253.233 100.247" fill="#F4A671"/>
<path d="M250.092 99.3744C250.092 99.3744 249.258 98.0568 249.057 96.9302C248.914 96.1262 249.325 93.1454 252.323 93.5745C252.323 93.5745 253.195 93.661 254.013 94.2127C254.664 94.6519 255.604 95.6006 254.553 98.2016L254.28 99.0799L250.092 99.3744" fill="#A9453D"/>
<path d="M253.764 101.045C253.764 101.045 249.996 101.107 249.994 98.7624C249.991 96.4177 249.503 94.8469 251.909 94.7082C254.315 94.5695 254.784 95.463 254.975 96.2459C255.166 97.0278 254.745 100.968 253.764 101.045Z" fill="#FFB27D"/>
<path d="M253.625 94.651C253.625 94.651 252.593 97.4007 251.01 97.8077C249.426 98.2147 248.74 97.7906 248.74 97.7906C248.74 97.7906 249.955 96.8268 250.206 95.1444C250.206 95.1444 252.846 93.3415 253.625 94.651Z" fill="#A9453D"/>
<path d="M253.37 94.874C253.37 94.874 254.14 95.4881 254.328 96.0851C254.516 96.682 254.6 97.9111 254.959 97.8689C254.959 97.8689 255.736 95.9996 254.862 94.9424C253.936 93.8208 253.37 94.874 253.37 94.874" fill="#A9453D"/>
<path d="M245.672 121.002C246.993 118.042 247.625 117.205 247.647 116.274C247.653 116.02 247.635 115.639 247.579 115.169C247.51 114.585 247.384 113.864 247.176 113.079H247.175C247.174 113.073 247.172 113.063 247.169 113.054C247.152 112.986 247.118 112.834 247.074 112.617C246.712 110.833 245.75 104.593 249.206 103.287C249.241 103.283 249.276 103.281 249.309 103.278C250.817 103.176 253.692 103.467 253.692 103.467C253.692 103.467 254.223 104.203 254.805 105.305C255.451 106.53 256.159 108.207 256.265 109.819C256.371 111.467 255.814 112.612 255.574 114.271C255.367 115.698 255.394 117.502 256.28 120.33C258.237 126.578 244.941 122.638 245.672 121.002" fill="#FFB27D"/>
<path d="M253.513 94.9665C253.513 94.9665 252.777 97.8468 250.78 98.7694C250.78 98.7694 252.777 96.9996 252.947 95.0981C253.117 93.1977 253.513 94.9665 253.513 94.9665" fill="#A9453D"/>
<path d="M255.574 114.272C255.574 114.272 250.557 115.707 247.579 115.169C247.51 114.585 247.384 113.865 247.176 113.079H247.175C247.174 113.073 247.172 113.064 247.169 113.054C247.152 112.986 247.118 112.834 247.074 112.617C248.024 112.062 249.144 111.665 249.144 111.665L255.574 114.272" fill="#F4A671"/>
<path d="M256.234 110.991C256.11 112.08 255.753 113.032 255.574 114.272C252.125 114.723 248.361 113.507 247.176 113.079H247.175C247.174 113.073 247.172 113.064 247.169 113.054C247.011 112.421 245.331 104.752 249.206 103.287C249.706 103.45 250.075 104.003 250.756 104.267C252.146 104.803 253.748 104.956 254.848 104.852C255.296 105.702 255.73 107.221 256.017 108.334C256.143 108.825 256.233 109.326 256.265 109.819C256.292 110.237 256.277 110.621 256.234 110.991" fill="#632164" fill-opacity="0.7"/>
<path d="M253.37 103.439C253.37 103.439 254.252 103.4 254.535 103.588C254.818 103.777 256.251 105.453 256.326 105.679C256.326 105.679 254.554 105.528 254.385 105.641C254.385 105.641 255.03 105.265 253.37 103.439" fill="#632164" fill-opacity="0.7"/>
<path d="M267.503 105.979C267.503 105.979 270.331 104.775 270.444 105.151C270.556 105.528 270.783 107.222 270.18 107.448C269.576 107.674 267.39 107.448 267.39 107.448L267.503 105.979Z" fill="#C0783D"/>
<path d="M261.28 155.619L259.898 155.199C259.898 155.199 253.505 147.844 254.941 140.121C254.957 140.039 254.957 139.954 254.919 139.88L254.918 139.878C254.642 139.331 253.452 136.95 252.217 133.996C251.626 132.581 251.024 131.034 250.508 129.493C250.203 128.584 249.927 127.676 249.701 126.8L249.696 126.78L249.694 126.77C249.138 124.606 248.886 122.634 249.235 121.285L256.138 119.639C256.138 119.639 256.825 122.422 257.553 126.021C258.573 131.063 259.675 137.704 259.085 140.534C258.561 143.045 261.28 155.619 261.28 155.619Z" fill="#FFB27D"/>
<path d="M258.691 111.792C258.691 111.792 259.284 112.448 259.468 113.303C259.468 113.303 260.245 112.548 260.292 112.53C260.337 112.512 261.019 112.131 261.316 111.694C261.613 111.256 261.811 110.893 261.416 110.234C261.019 109.575 259.888 109.387 259.756 109.519C259.625 109.651 259.266 111.289 259.266 111.289C259.266 111.289 259.226 111.412 258.691 111.792" fill="#632164" fill-opacity="0.9"/>
<path d="M252.217 133.996C251.626 132.581 251.024 131.034 250.508 129.493C250.203 128.584 249.927 127.676 249.701 126.8L249.696 126.78L249.694 126.77L250.216 126.712L255.515 126.128C255.515 126.128 255.549 126.527 255.595 127.19C255.706 128.797 254.003 131.56 252.217 133.996Z" fill="#F4A671"/>
<path d="M255.223 121.492L252.118 128.382C252.102 128.374 252.086 128.367 252.071 128.359C250.31 133.192 247.784 139.433 245.804 141.541C244.047 143.411 239.805 155.557 239.805 155.557L238.664 155.152C238.664 155.152 237.227 144.873 242.483 139.031C242.54 138.968 242.584 138.897 242.591 138.814V138.811C242.636 138.247 242.833 135.94 243.249 133.096C243.35 132.406 243.463 131.684 243.59 130.949C243.775 129.881 243.989 128.783 244.234 127.706C244.238 127.688 244.242 127.671 244.246 127.654C244.256 127.393 244.281 126.958 244.343 126.39C244.427 125.615 244.579 124.595 244.855 123.44C244.864 123.406 244.871 123.372 244.88 123.337C245.501 120.783 246.387 119.497 246.387 119.497C246.387 119.497 251.11 120.8 252.75 120.913C254.389 121.026 255.223 121.492 255.223 121.492" fill="#FFB27D"/>
<path d="M257.553 126.021C257.315 126.395 256.543 126.817 255.595 127.19L255.583 127.195C254.483 127.625 253.146 127.99 252.128 128.139C251.265 128.264 250.629 128.235 250.558 127.959C250.003 125.795 248.886 122.634 249.235 121.285L256.138 119.639C256.138 119.639 256.825 122.423 257.553 126.021Z" fill="#F99746"/>
<path d="M238.592 157.101H239.386C239.651 157.058 239.848 156.982 240.12 156.946C240.534 156.892 240.724 157.061 240.762 157.101L240.769 157.108H244.139C244.225 156.987 244.143 156.707 244.064 156.501C244.01 156.361 243.893 156.254 243.748 156.213C243.391 156.11 242.686 156.017 242.04 155.434C241.678 155.107 240.287 154.229 240.287 154.229L240.28 154.228C240.25 154.228 240.104 154.273 239.472 154.806C239.145 155.082 238.589 154.417 238.589 154.417C238.589 154.417 238.484 154.504 238.406 154.665C238.343 154.792 238.297 154.967 238.333 155.182C238.384 155.485 238.222 156.048 238.092 156.43C238.013 156.66 237.947 156.824 237.947 156.824C237.947 156.824 237.91 157.015 238.592 157.101" fill="#632164"/>
<path d="M238.406 154.665C238.595 154.798 238.995 155.061 239.26 155.096C239.618 155.142 240.287 154.229 240.287 154.229L240.28 154.228C240.25 154.228 240.104 154.273 239.472 154.806C239.145 155.082 238.589 154.417 238.589 154.417C238.589 154.417 238.484 154.504 238.406 154.665Z" fill="#A9453D"/>
<path d="M238.592 157.101H239.386C239.651 157.058 239.848 156.982 240.12 156.946C240.534 156.892 240.724 157.061 240.762 157.101L240.769 157.108H244.139C244.225 156.987 244.143 156.707 244.064 156.501C243.961 156.41 243.932 156.896 243.876 156.973C243.819 157.05 241.127 157.001 240.971 156.889C240.816 156.776 240.349 156.578 239.699 156.733C239.132 156.868 238.298 156.522 238.092 156.43C238.013 156.66 237.947 156.824 237.947 156.824C237.947 156.824 237.91 157.015 238.592 157.101" fill="#A9453D"/>
<path d="M259.287 157.101H260.08C260.346 157.058 260.542 156.982 260.815 156.946C261.229 156.892 261.42 157.061 261.457 157.101L261.465 157.108H264.835C264.919 156.987 264.838 156.707 264.758 156.501C264.705 156.361 264.587 156.254 264.443 156.213C264.085 156.11 263.381 156.017 262.736 155.434C262.373 155.107 260.983 154.229 260.983 154.229L260.976 154.228C260.945 154.228 260.8 154.273 260.168 154.806C259.841 155.082 259.283 154.417 259.283 154.417C259.283 154.417 259.179 154.504 259.101 154.665C259.038 154.792 258.993 154.967 259.029 155.182C259.079 155.485 258.916 156.048 258.787 156.43C258.709 156.66 258.642 156.824 258.642 156.824C258.642 156.824 258.604 157.015 259.287 157.101" fill="#632164"/>
<path d="M259.101 154.665C259.29 154.798 259.69 155.061 259.956 155.096C260.313 155.142 260.983 154.229 260.983 154.229L260.976 154.228C260.945 154.228 260.8 154.273 260.168 154.806C259.841 155.082 259.283 154.417 259.283 154.417C259.283 154.417 259.179 154.504 259.101 154.665Z" fill="#A9453D"/>
<path d="M259.287 157.101H260.08C260.346 157.058 260.542 156.982 260.815 156.946C261.229 156.892 261.42 157.061 261.457 157.101L261.465 157.108H264.835C264.919 156.987 264.838 156.707 264.758 156.501C264.656 156.41 264.628 156.896 264.57 156.973C264.514 157.05 261.821 157.001 261.666 156.889C261.51 156.776 261.044 156.578 260.393 156.733C259.828 156.868 258.994 156.522 258.787 156.43C258.709 156.66 258.642 156.824 258.642 156.824C258.642 156.824 258.604 157.015 259.287 157.101Z" fill="#A9453D"/>
<path d="M256.233 110.991C250.29 110.705 247.773 108.333 247.773 108.333L256.017 108.334C256.143 108.825 256.232 109.326 256.265 109.819C256.292 110.237 256.277 110.621 256.233 110.991Z" fill="#632164"/>
<path d="M267.39 107.448C267.39 107.448 262.611 109.02 259.135 109.105C256.209 109.176 251.153 109.536 248.461 108.646C247.953 108.478 247.596 108.259 247.448 107.975C246.515 106.196 248.052 104.357 248.052 104.357C248.052 104.357 248.92 104.446 250.226 104.57C253.524 104.887 257.771 105.852 259.776 105.791C262.574 105.707 265.129 105.904 267.504 105.979L267.39 107.448" fill="#FFB27D"/>
<path d="M248.461 108.646C247.953 108.478 247.596 108.259 247.448 107.975C246.515 106.196 248.052 104.357 248.052 104.357C248.052 104.357 248.92 104.446 250.226 104.57C249.922 104.885 248.313 106.652 248.461 108.646" fill="#632164" fill-opacity="0.7"/>
<path d="M266.75 105.951C266.75 105.951 266.876 106.999 266.515 107.72C266.515 107.72 267.327 107.468 267.399 107.472C267.469 107.475 269.105 107.605 269.685 107.542C270.265 107.479 270.567 107.523 270.623 106.479C270.679 105.434 270.651 105.01 270.453 105C270.256 104.991 269.304 105.161 267.551 105.914C267.551 105.914 267.447 105.965 266.75 105.951Z" fill="#632164" fill-opacity="0.9"/>
<path d="M246.387 119.497C246.387 119.497 244.624 121.617 244.246 127.654C244.246 127.654 246.619 128.138 247.128 127.987C247.637 127.836 248.523 125.671 248.523 125.671C248.523 125.671 248.033 127.799 248.504 128.194C248.975 128.589 251.953 128.947 251.953 128.947L255.497 121.077C255.497 121.077 250.567 120.513 246.387 119.497Z" fill="#F99746"/>
<path d="M246.176 119.656C246.176 119.656 250.502 121.831 253.47 121.181C256.439 120.532 256.28 120.33 256.28 120.33L255.789 118.583C255.789 118.583 254.234 119.458 252.17 119.374C250.105 119.289 247.052 117.962 247.052 117.962L246.176 119.656" fill="#EF7E29"/>
</svg>
