<svg width="311" height="293" viewBox="0 0 311 293" fill="none" xmlns="http://www.w3.org/2000/svg">
<path d="M45.766 142.619C-14.8433 177.021 -14.8427 232.796 45.7667 267.198C106.377 301.6 204.643 301.601 265.253 267.199C325.862 232.797 325.862 177.021 265.253 142.619C204.643 108.217 106.375 108.217 45.766 142.619Z" fill="#F5F5F5" fill-opacity="0.3"/>
<path d="M283.45 202.755C299.258 211.882 299.257 226.679 283.449 235.806C267.642 244.933 242.012 244.933 226.204 235.806C210.396 226.679 210.396 211.882 226.204 202.755C242.012 193.629 267.642 193.629 283.45 202.755Z" fill="#E1E1E1"/>
<path d="M10.8628 192.186L165.28 281.339L237.2 239.816L82.7825 150.663L10.8628 192.186Z" fill="#E1E1E1"/>
<path d="M190.583 175.91L188.229 174.55C186.631 173.628 186.632 172.133 188.229 171.211L193.475 168.182L174.485 157.218L169.239 160.247C167.642 161.169 165.051 161.169 163.455 160.247L161.1 158.888C159.503 157.965 159.503 156.47 161.1 155.548L177.018 146.358C178.616 145.435 181.205 145.435 182.802 146.357L185.158 147.717C186.755 148.639 186.755 150.134 185.158 151.056L179.364 154.401L198.353 165.365L204.147 162.02C205.744 161.098 208.333 161.098 209.931 162.02L212.286 163.379C213.883 164.302 213.883 165.797 212.286 166.719L196.366 175.91C194.769 176.832 192.18 176.832 190.583 175.91Z" fill="#E1E1E1"/>
<path d="M129.213 149.25C133.426 151.683 133.426 155.626 129.213 158.058C125.001 160.49 118.17 160.49 113.958 158.058C109.746 155.626 109.746 151.683 113.958 149.25C118.17 146.818 125.001 146.818 129.213 149.25Z" fill="#E1E1E1"/>
<path d="M10.8628 188.307L165.28 277.459L237.2 235.936L82.7825 146.784L10.8628 188.307Z" fill="black"/>
<g opacity="0.699997">
<path d="M10.8628 188.307L165.28 277.459L237.2 235.936L82.7825 146.784L10.8628 188.307Z" fill="white"/>
</g>
<g opacity="0.100006">
<path d="M173.007 244.862C176.388 246.743 178.893 249.928 182.68 250.999C186.507 252.081 190.7 251.878 194.383 250.362C195.991 249.7 197.582 248.718 198.36 247.162C199.139 245.607 198.775 243.392 197.226 242.601C196.833 242.4 196.386 242.296 196.036 242.026C195.687 241.756 195.472 241.223 195.74 240.871C196.072 240.434 196.758 240.649 197.258 240.877C201.823 242.954 207.425 242.57 211.664 239.888C212.891 239.112 214.081 238.03 214.31 236.597C214.521 235.273 213.835 233.931 212.847 233.024C210.845 231.188 207.999 230.68 205.471 229.985C202.618 229.2 199.766 228.415 196.913 227.63C192.395 226.386 188.068 223.902 183.773 221.969C177.324 219.067 170.713 216.053 165.77 210.995C162.429 207.574 159.849 203.228 155.656 200.929C149.966 197.81 142.899 198.942 136.765 197.342C130.309 195.656 123.929 193.901 117.617 191.561C104.423 186.671 91.7287 180.43 79.8052 172.956C82.9968 166.678 85.2255 159.91 86.3886 152.963C82.1926 151.496 78.1316 155.124 73.9929 156.745C70.7539 158.015 67.5129 157.967 64.2764 157.469L50.5359 165.402C51.1049 167.42 52.021 169.382 52.65 171.396C53.6063 174.457 53.7071 178.253 51.317 180.393C49.9411 181.624 48.0351 182.027 46.2239 182.386C43.6975 182.884 41.1717 183.384 38.6453 183.883C36.485 184.31 33.9975 184.993 33.1551 187.028C32.1257 189.517 34.3149 192.169 36.6102 193.578C40.8879 196.202 45.9862 197.049 50.7005 198.769C61.7533 202.802 70.4042 211.502 80.6983 217.199C87.8271 221.143 95.7607 223.626 103.867 224.449C112.262 225.302 120.825 224.398 129.107 226.012C135.615 227.28 142.242 229.058 148.623 230.979C151.289 231.782 153.914 232.755 156.386 234.045C158.615 235.209 160.657 235.993 162.283 238.048C163.458 239.533 164.505 241.198 166.108 242.206C167.707 243.212 169.663 243.436 171.426 244.115C171.974 244.326 172.499 244.579 173.007 244.862Z" fill="black"/>
</g>
<g opacity="0.0500031">
<path d="M173.007 244.862C176.388 246.743 178.893 249.928 182.68 250.999C186.507 252.081 190.7 251.878 194.383 250.362C195.991 249.7 197.582 248.718 198.36 247.162C199.139 245.607 198.775 243.392 197.226 242.601C196.833 242.4 196.386 242.296 196.036 242.026C195.687 241.756 195.472 241.223 195.74 240.871C196.072 240.434 196.758 240.649 197.258 240.877C201.823 242.954 207.425 242.57 211.664 239.888C212.891 239.112 214.081 238.03 214.31 236.597C214.521 235.273 213.835 233.931 212.847 233.024C210.845 231.188 207.999 230.68 205.471 229.985C202.618 229.2 199.766 228.415 196.913 227.63C192.395 226.386 188.068 223.902 183.773 221.969C177.324 219.067 170.713 216.053 165.77 210.995C162.429 207.574 159.849 203.228 155.656 200.929C149.966 197.81 142.899 198.942 136.765 197.342C130.309 195.656 123.929 193.901 117.617 191.561C104.423 186.671 91.7287 180.43 79.8052 172.956C82.9968 166.678 85.2255 159.91 86.3886 152.963C82.1926 151.496 78.1316 155.124 73.9929 156.745C70.7539 158.015 67.5129 157.967 64.2764 157.469L50.5359 165.402C51.1049 167.42 52.021 169.382 52.65 171.396C53.6063 174.457 53.7071 178.253 51.317 180.393C49.9411 181.624 48.0351 182.027 46.2239 182.386C43.6975 182.884 41.1717 183.384 38.6453 183.883C36.485 184.31 33.9975 184.993 33.1551 187.028C32.1257 189.517 34.3149 192.169 36.6102 193.578C40.8879 196.202 45.9862 197.049 50.7005 198.769C61.7533 202.802 70.4042 211.502 80.6983 217.199C87.8271 221.143 95.7607 223.626 103.867 224.449C112.262 225.302 120.825 224.398 129.107 226.012C135.615 227.28 142.242 229.058 148.623 230.979C151.289 231.782 153.914 232.755 156.386 234.045C158.615 235.209 160.657 235.993 162.283 238.048C163.458 239.533 164.505 241.198 166.108 242.206C167.707 243.212 169.663 243.436 171.426 244.115C171.974 244.326 172.499 244.579 173.007 244.862Z" fill="black"/>
</g>
<path d="M10.8628 188.307V189.707L165.28 278.86V277.459L10.8628 188.307Z" fill="black"/>
<g opacity="0.5">
<path d="M10.8628 188.307V189.707L165.28 278.86V277.459L10.8628 188.307Z" fill="white"/>
</g>
<path d="M165.28 277.459L237.2 235.936V237.337L165.28 278.86V277.459Z" fill="black"/>
<g opacity="0.399994">
<path d="M165.28 277.459L237.2 235.936V237.337L165.28 278.86V277.459Z" fill="white"/>
</g>
<path d="M129.179 140.344C128.936 139.259 128.378 138.099 127.917 137.086C127.863 136.967 127.805 136.849 127.745 136.73C126.737 134.739 126.742 132.383 127.835 130.437C127.873 130.37 127.91 130.302 127.946 130.236C128.627 129 128.92 127.939 128.922 126.53C128.926 125.457 128.223 123.851 126.807 123.028C126.5 122.846 126.17 122.687 125.826 122.551C125.188 122.293 124.759 121.687 124.761 120.997L124.769 119.078L118.628 119.055L118.62 120.972C118.618 121.663 118.184 122.266 117.544 122.519C117.199 122.653 116.868 122.809 116.559 122.988C115.137 123.801 114.421 125.401 114.417 126.474C114.408 127.882 114.693 128.946 115.364 130.187C115.398 130.25 115.431 130.312 115.466 130.375C116.55 132.332 116.541 134.693 115.518 136.683C115.457 136.802 115.399 136.919 115.345 137.037C114.875 138.047 114.304 139.202 114.057 140.286C113.818 141.337 113.761 142.466 113.757 143.59L113.722 152.525C113.717 153.686 114.478 154.847 116.004 155.735C117.252 156.46 118.82 156.895 120.442 157.031C121.179 157.095 121.927 157.097 122.66 157.039C124.279 156.908 125.834 156.489 127.079 155.778C128.612 154.902 129.382 153.748 129.386 152.59L129.411 146.127C129.414 145.323 129.446 144.481 129.449 143.639C129.453 142.518 129.409 141.393 129.179 140.344Z" fill="black"/>
<g opacity="0.300003">
<path d="M129.179 140.344C128.936 139.259 128.378 138.099 127.917 137.086C127.863 136.967 127.805 136.849 127.745 136.73C126.737 134.739 126.742 132.383 127.835 130.437C127.873 130.37 127.91 130.302 127.946 130.236C128.627 129 128.92 127.939 128.922 126.53C128.926 125.457 128.223 123.851 126.807 123.028C126.5 122.846 126.17 122.687 125.826 122.551C125.188 122.293 124.759 121.687 124.761 120.997L124.769 119.078L118.628 119.055L118.62 120.972C118.618 121.663 118.184 122.266 117.544 122.519C117.199 122.653 116.868 122.809 116.559 122.988C115.137 123.801 114.421 125.401 114.417 126.474C114.408 127.882 114.693 128.946 115.364 130.187C115.398 130.25 115.431 130.312 115.466 130.375C116.55 132.332 116.541 134.693 115.518 136.683C115.457 136.802 115.399 136.919 115.345 137.037C114.875 138.047 114.304 139.202 114.057 140.286C113.818 141.337 113.761 142.466 113.757 143.59L113.722 152.525C113.717 153.686 114.478 154.847 116.004 155.735C117.252 156.46 118.82 156.895 120.442 157.031C121.179 157.095 121.927 157.097 122.66 157.039C124.279 156.908 125.834 156.489 127.079 155.778C128.612 154.902 129.382 153.748 129.386 152.59L129.411 146.127C129.414 145.323 129.446 144.481 129.449 143.639C129.453 142.518 129.409 141.393 129.179 140.344Z" fill="black"/>
</g>
<g opacity="0.100006">
<path d="M127.835 130.437C127.873 130.369 127.91 130.303 127.946 130.236C128.532 129.173 128.829 128.237 128.902 127.101C128.76 127.545 128.564 127.975 128.32 128.37C127.616 129.509 126.59 130.41 125.552 131.257C124.501 132.116 123.331 133.093 123.2 134.444C123.074 135.753 123.996 136.941 125.047 137.733C126.096 138.523 127.325 139.08 128.268 139.995C128.679 140.394 129.022 140.852 129.338 141.331C129.299 140.997 129.249 140.667 129.179 140.344C128.936 139.259 128.378 138.099 127.917 137.086C127.863 136.968 127.805 136.849 127.745 136.73C126.737 134.739 126.742 132.383 127.835 130.437Z" fill="black"/>
</g>
<path d="M117.59 121.196L117.586 122.228C117.58 122.843 117.987 123.464 118.802 123.941C120.426 124.887 123.066 124.898 124.701 123.964C125.108 123.731 125.416 123.461 125.619 123.171C125.823 122.884 125.926 122.577 125.927 122.268L125.931 121.22C125.932 121.127 125.924 121.033 125.899 120.941C125.801 120.418 125.405 119.91 124.719 119.511C124.698 119.498 124.678 119.486 124.658 119.478C123.026 118.564 120.43 118.567 118.82 119.488C118.13 119.882 117.727 120.386 117.624 120.904C117.599 121.001 117.59 121.099 117.59 121.196Z" fill="black"/>
<g opacity="0.100006">
<path d="M117.59 121.196L117.586 122.228C117.58 122.843 117.987 123.464 118.802 123.941C120.426 124.887 123.066 124.898 124.701 123.964C125.108 123.731 125.416 123.461 125.619 123.171C125.823 122.884 125.926 122.577 125.927 122.268L125.931 121.22C125.932 121.127 125.924 121.033 125.899 120.941C125.801 120.418 125.405 119.91 124.719 119.511C124.698 119.498 124.678 119.486 124.658 119.478C123.026 118.564 120.43 118.567 118.82 119.488C118.13 119.882 117.727 120.386 117.624 120.904C117.599 121.001 117.59 121.099 117.59 121.196Z" fill="black"/>
</g>
<g opacity="0.199997">
<path d="M124.703 122.917C126.336 121.983 126.341 120.459 124.717 119.512C123.092 118.565 120.451 118.555 118.819 119.489C117.187 120.423 117.181 121.947 118.806 122.894C120.431 123.841 123.071 123.851 124.703 122.917Z" fill="black"/>
</g>
<path d="M117.595 119.991L117.593 120.612C117.592 120.71 117.6 120.807 117.624 120.904C117.723 121.423 118.122 121.93 118.809 122.33C119.536 122.754 120.466 122.989 121.413 123.033C122.591 123.094 123.803 122.868 124.708 122.349C125.113 122.116 125.418 121.85 125.626 121.559C125.768 121.361 125.858 121.151 125.899 120.94C125.924 120.847 125.933 120.751 125.933 120.657L125.935 120.016C125.938 119.396 125.536 118.779 124.724 118.306C124.65 118.266 124.578 118.225 124.501 118.188C122.864 117.359 120.383 117.39 118.824 118.283C118.004 118.754 117.593 119.372 117.595 119.991Z" fill="black"/>
<g opacity="0.100006">
<path d="M117.595 119.991L117.593 120.612C117.592 120.71 117.6 120.807 117.624 120.904C117.723 121.423 118.122 121.93 118.809 122.33C119.536 122.754 120.466 122.989 121.413 123.033C122.591 123.094 123.803 122.868 124.708 122.349C125.113 122.116 125.418 121.85 125.626 121.559C125.768 121.361 125.858 121.151 125.899 120.94C125.924 120.847 125.933 120.751 125.933 120.657L125.935 120.016C125.938 119.396 125.536 118.779 124.724 118.306C124.65 118.266 124.578 118.225 124.501 118.188C122.864 117.359 120.383 117.39 118.824 118.283C118.004 118.754 117.593 119.372 117.595 119.991Z" fill="black"/>
</g>
<path d="M117.595 119.971C117.59 121.294 119.452 122.375 121.756 122.384C124.059 122.393 125.93 121.327 125.936 120.003C125.94 118.679 124.078 117.598 121.775 117.59C119.471 117.581 117.6 118.647 117.595 119.971Z" fill="black"/>
<path d="M120.33 117.511L120.321 119.671C120.321 119.705 120.324 119.738 120.332 119.772C120.366 119.952 120.505 120.128 120.743 120.266C120.995 120.413 121.317 120.494 121.645 120.509C122.054 120.53 122.473 120.453 122.787 120.273C122.928 120.192 123.033 120.1 123.105 119.999C123.155 119.93 123.185 119.858 123.2 119.785C123.209 119.753 123.212 119.719 123.212 119.687L123.22 117.52C123.221 117.305 123.081 117.091 122.8 116.927C122.774 116.913 122.749 116.899 122.723 116.886C122.156 116.599 121.296 116.61 120.756 116.92C120.472 117.083 120.33 117.297 120.33 117.511Z" fill="black"/>
<g opacity="0.100006">
<path d="M120.33 117.511L120.321 119.671C120.321 119.705 120.324 119.738 120.332 119.772C120.366 119.952 120.505 120.128 120.743 120.266C120.995 120.413 121.317 120.494 121.645 120.509C122.054 120.53 122.473 120.453 122.787 120.273C122.928 120.192 123.033 120.1 123.105 119.999C123.155 119.93 123.185 119.858 123.2 119.785C123.209 119.753 123.212 119.719 123.212 119.687L123.22 117.52C123.221 117.305 123.081 117.091 122.8 116.927C122.774 116.913 122.749 116.899 122.723 116.886C122.156 116.599 121.296 116.61 120.756 116.92C120.472 117.083 120.33 117.297 120.33 117.511Z" fill="black"/>
</g>
<path d="M120.33 117.504C120.328 117.963 120.973 118.337 121.772 118.341C122.57 118.343 123.218 117.974 123.22 117.515C123.222 117.056 122.576 116.682 121.778 116.679C120.98 116.676 120.331 117.045 120.33 117.504Z" fill="black"/>
<g opacity="0.5">
<path d="M121.262 117.508C121.261 117.671 121.49 117.803 121.774 117.805C122.057 117.806 122.287 117.674 122.288 117.512C122.289 117.349 122.059 117.216 121.776 117.215C121.493 117.214 121.262 117.345 121.262 117.508Z" fill="black"/>
</g>
<g opacity="0.300003">
<path d="M121.262 117.508C121.261 117.671 121.49 117.803 121.774 117.805C122.057 117.806 122.287 117.674 122.288 117.512C122.289 117.349 122.059 117.216 121.776 117.215C121.493 117.214 121.262 117.345 121.262 117.508Z" fill="black"/>
</g>
<path d="M180.905 137.693C179.654 133.602 174.541 130.216 169.758 131.556L169.76 131.557C169.073 131.743 168.352 132.046 167.607 132.475C162.971 135.15 159.212 141.66 159.212 147.016C159.212 148.017 159.344 148.906 159.587 149.674L159.586 149.672C160.837 153.764 165.951 157.13 170.732 155.791L170.731 155.79C171.417 155.603 172.137 155.301 172.879 154.872C177.516 152.195 181.275 145.685 181.274 140.331C181.274 139.339 181.145 138.456 180.905 137.693Z" fill="black"/>
<path d="M172.879 154.872C177.516 152.195 181.274 145.685 181.274 140.331C181.274 134.977 177.516 132.805 172.879 135.48C168.243 138.155 164.484 144.664 164.484 150.021C164.484 155.377 168.243 157.548 172.879 154.872Z" fill="black"/>
<path d="M172.879 141.419C174.663 140.39 176.108 141.224 176.108 143.284C176.108 145.343 174.663 147.847 172.879 148.876C171.096 149.905 169.651 149.071 169.651 147.011C169.651 144.953 171.096 142.449 172.879 141.419Z" fill="black"/>
<path d="M173.984 144.509C173.984 145.213 173.492 146.07 172.881 146.426C172.597 146.592 172.334 146.617 172.139 146.524C172.108 146.511 172.083 146.495 172.058 146.478C171.88 146.35 171.774 146.113 171.774 145.786C171.774 145.081 172.27 144.224 172.881 143.868C173.165 143.703 173.424 143.677 173.619 143.771L173.7 143.817C173.878 143.94 173.984 144.178 173.984 144.509Z" fill="black"/>
<path d="M191.72 154.749C191.72 155.453 191.228 156.31 190.617 156.662C190.439 156.768 190.281 156.811 190.137 156.811C190.005 156.811 189.887 156.773 189.768 156.705L172.139 146.524C172.109 146.511 172.084 146.494 172.058 146.477C171.88 146.35 171.774 146.112 171.774 145.786C171.774 145.082 172.27 144.225 172.881 143.868C173.165 143.703 173.424 143.677 173.62 143.771L173.7 143.817L191.329 153.994C191.579 154.137 191.72 154.354 191.72 154.749Z" fill="black"/>
<path d="M209.025 153.924C207.774 149.832 202.66 146.447 197.879 147.786L197.881 147.787C197.193 147.973 196.472 148.276 195.728 148.706C191.091 151.38 187.332 157.89 187.332 163.246C187.332 164.247 187.464 165.137 187.708 165.904L187.706 165.903C188.958 169.994 194.071 173.361 198.853 172.022L198.851 172.02C199.536 171.834 200.256 171.531 200.999 171.102C205.636 168.426 209.394 161.915 209.394 156.561C209.394 155.57 209.265 154.687 209.025 153.924Z" fill="black"/>
<path d="M200.999 171.102C205.635 168.426 209.394 161.915 209.394 156.561C209.394 151.208 205.635 149.036 200.999 151.711C196.363 154.385 192.604 160.895 192.604 166.251C192.604 171.607 196.363 173.779 200.999 171.102Z" fill="black"/>
<path d="M200.999 157.649C202.782 156.62 204.228 157.454 204.228 159.514C204.228 161.573 202.782 164.077 200.999 165.106C199.216 166.136 197.77 165.301 197.77 163.242C197.77 161.183 199.216 158.679 200.999 157.649" fill="black"/>
<path d="M202.104 160.739C202.104 161.443 201.612 162.301 201.001 162.657C200.717 162.823 200.453 162.848 200.258 162.755C200.229 162.742 200.203 162.725 200.178 162.708C200 162.581 199.894 162.343 199.894 162.016C199.894 161.312 200.39 160.455 201.001 160.099C201.285 159.933 201.544 159.908 201.739 160.001L201.819 160.048C201.998 160.171 202.104 160.409 202.104 160.739Z" fill="black"/>
<path d="M204.777 162.284C204.777 162.988 204.285 163.845 203.674 164.197C203.496 164.303 203.338 164.346 203.195 164.346C203.062 164.346 202.944 164.308 202.825 164.24L200.259 162.754C200.229 162.742 200.203 162.725 200.178 162.708C200 162.581 199.894 162.343 199.894 162.016C199.894 161.312 200.39 160.455 201.001 160.099C201.285 159.933 201.544 159.908 201.739 160.001L201.82 160.048L204.386 161.529C204.637 161.672 204.777 161.889 204.777 162.284Z" fill="black"/>
<g opacity="0.199997">
<path d="M204.777 162.276C204.777 162.981 204.285 163.838 203.674 164.194C203.39 164.36 203.126 164.385 202.931 164.292C202.902 164.279 202.876 164.262 202.851 164.245C202.673 164.118 202.566 163.88 202.566 163.554C202.566 162.849 203.062 161.992 203.674 161.636C203.958 161.47 204.217 161.445 204.412 161.538L204.492 161.585C204.671 161.708 204.777 161.946 204.777 162.276Z" fill="black"/>
</g>
<path d="M239.714 48.334C236.57 53.4468 230.699 65.61 228.9 68.1799C226.015 64.8362 220.212 57.4973 218.924 56.0161C217.286 54.1331 212.179 51.1094 212.179 51.1094L210.438 58.7855C210.438 58.7855 221.674 76.4198 225.045 79.7807C227.187 81.9179 229.654 83.2812 234.684 77.9557C239.37 72.9964 250.494 58.1783 250.494 58.1783L250.821 40.5631C245.433 40.1989 243.778 41.7255 239.714 48.334Z" fill="#FFAAA8"/>
<path d="M228.9 68.1799C230.104 69.5162 231.499 71.442 231.884 72.5972C231.884 72.5972 231.851 69.9581 229.654 66.9693L228.9 68.1799Z" fill="#FF9090"/>
<path d="M209.813 42.6126L205.309 40.0098C205.309 40.0098 205.309 64.0175 205.309 64.7986C205.309 65.5797 204.408 66.3602 204.408 66.3602L208.912 68.9597C208.912 68.9597 209.813 68.1793 209.813 67.3995V42.6126Z" fill="black"/>
<path d="M205.309 50.0153C205.309 50.0153 204.038 50.3466 203.592 52.3383C203.145 54.3299 202.98 58.1195 204.144 59.3426C205.309 60.5656 206.876 61.076 207.899 60.6058C209.813 59.7259 209.141 55.8197 207.574 54.9483C205.07 53.556 205.332 51.9582 205.332 51.9582L205.309 50.0153Z" fill="#FFAAA8"/>
<path d="M215.288 42.5689L213.389 44.9867L213.399 61.9176L215.449 65.1837L208.911 68.9595C209.48 68.4464 209.767 67.9255 209.813 67.3992V45.7296L215.288 42.5689Z" fill="black"/>
<path d="M215.45 65.184V66.2239L208.912 69.9998V68.9598L215.45 65.184Z" fill="black"/>
<path d="M208.912 69.9998L204.408 67.4002V66.3603L208.912 68.9598V69.9998Z" fill="black"/>
<g opacity="0.100006">
<path d="M208.912 69.9998L204.408 67.4002V66.3603L208.912 68.9598V69.9998Z" fill="black"/>
</g>
<path d="M210.02 31.6729L210.021 31.6736C210.785 31.2158 211.85 31.2725 213.027 31.9521L213.071 31.9765C215.399 33.3214 217.286 36.5907 217.286 39.2792V39.3293C217.286 40.7216 216.779 41.6838 215.967 42.102L215.968 42.1027L212.558 44.1101L206.87 33.5308L210.02 31.6729Z" fill="black"/>
<g opacity="0.800003">
<path d="M210.02 31.6729L210.021 31.6736C210.785 31.2158 211.85 31.2725 213.027 31.9521L213.071 31.9765C215.399 33.3214 217.286 36.5907 217.286 39.2792V39.3293C217.286 40.7216 216.779 41.6838 215.967 42.102L215.968 42.1027L212.558 44.1101L206.87 33.5308L210.02 31.6729Z" fill="#FAFAFA"/>
</g>
<g opacity="0.199997">
<path d="M215.967 42.1024L215.968 42.1031L212.558 44.1099L210.673 40.6034L216.894 37.0114C217.144 37.7767 217.287 38.5492 217.287 39.2796V39.329C217.287 40.7213 216.779 41.6842 215.967 42.1024Z" fill="black"/>
</g>
<path d="M202.659 34.2621L202.661 34.264C203.525 33.7674 204.69 33.7872 205.983 34.4195C206.118 34.4834 206.255 34.5571 206.396 34.6368C206.56 34.7316 206.719 34.8318 206.878 34.9424C207.143 35.1222 207.399 35.3198 207.65 35.5371C208.109 35.9297 208.544 36.3775 208.948 36.8675C210.029 38.1847 210.881 39.7944 211.331 41.4021C211.558 42.2141 211.682 43.0236 211.682 43.7974C211.682 45.4407 211.119 46.609 210.202 47.1768L213.458 45.301L213.454 45.2938C214.591 44.5713 215.374 43.2804 215.374 41.6642C215.374 40.9259 215.261 40.1514 215.052 39.3781C214.611 37.7343 213.746 36.0825 212.639 34.7363C212.236 34.2463 211.802 33.7964 211.343 33.4059C211.092 33.1885 210.835 32.989 210.571 32.8118C210.411 32.7005 210.249 32.5991 210.087 32.5055C209.95 32.4259 209.81 32.3547 209.67 32.2908C208.393 31.7099 207.061 31.7916 205.983 32.3527L205.981 32.3508L205.889 32.4015C205.852 32.4232 205.812 32.4456 205.774 32.47L202.659 34.2621Z" fill="black"/>
<g opacity="0.100006">
<path d="M213.458 45.3008L213.454 45.2942C214.591 44.571 215.374 43.2808 215.374 41.6639C215.374 40.9256 215.261 40.1518 215.053 39.3779L211.332 41.4025C211.558 42.2139 211.682 43.0233 211.682 43.7972C211.682 45.4404 211.118 46.6088 210.203 47.1765L213.458 45.3008Z" fill="black"/>
</g>
<path d="M201.107 37.6903C201.107 41.0631 203.473 45.1636 206.393 46.849C207.861 47.6979 209.191 47.7737 210.15 47.2079C210.167 47.1993 210.185 47.1882 210.203 47.177C211.118 46.6092 211.682 45.4409 211.682 43.7976C211.682 40.4242 209.316 36.3244 206.395 34.637C204.938 33.7966 203.617 33.7143 202.66 34.2642C201.701 34.8142 201.107 36.001 201.107 37.6903Z" fill="black"/>
<g opacity="0.199997">
<path d="M201.107 37.6903C201.107 41.0631 203.473 45.1636 206.393 46.849C207.861 47.6979 209.191 47.7737 210.15 47.2079C210.167 47.1993 210.185 47.1882 210.203 47.177C211.118 46.6092 211.682 45.4409 211.682 43.7976C211.682 40.4242 209.316 36.3244 206.395 34.637C204.938 33.7966 203.617 33.7143 202.66 34.2642C201.701 34.8142 201.107 36.001 201.107 37.6903Z" fill="black"/>
</g>
<path d="M184.894 36.8178C184.894 36.8178 190.228 39.5556 194.785 47.4471C195.679 48.9961 196.386 50.4747 196.946 51.8473C199.234 57.46 199.044 61.3267 199.044 61.3267C200.634 57.433 202.61 53.4009 205.909 50.314C207.95 48.4027 209.963 46.9228 209.963 46.9228L209.961 46.9189C210.834 46.4131 211.343 45.3119 211.343 43.7964C211.343 42.798 211.128 41.7336 210.745 40.6897C210.507 40.0285 210.201 39.3752 209.842 38.7528C208.916 37.1471 207.635 35.7462 206.225 34.9315C204.912 34.1735 203.705 34.0641 202.829 34.5673L202.827 34.5633C202.827 34.5633 200.539 35.5671 197.863 36.3791C193.541 37.6917 189.061 37.3875 184.894 36.8178Z" fill="black"/>
<g opacity="0.800003">
<path d="M184.894 36.8178C184.894 36.8178 190.228 39.5556 194.785 47.4471C195.679 48.9961 196.386 50.4747 196.946 51.8473C199.234 57.46 199.044 61.3267 199.044 61.3267C200.634 57.433 202.61 53.4009 205.909 50.314C207.95 48.4027 209.963 46.9228 209.963 46.9228L209.961 46.9189C210.834 46.4131 211.343 45.3119 211.343 43.7964C211.343 42.798 211.128 41.7336 210.745 40.6897C210.507 40.0285 210.201 39.3752 209.842 38.7528C208.916 37.1471 207.635 35.7462 206.225 34.9315C204.912 34.1735 203.705 34.0641 202.829 34.5673L202.827 34.5633C202.827 34.5633 200.539 35.5671 197.863 36.3791C193.541 37.6917 189.061 37.3875 184.894 36.8178Z" fill="#FAFAFA"/>
</g>
<g opacity="0.199997">
<path d="M196.946 51.847C199.234 57.4597 199.044 61.3264 199.044 61.3264C200.634 57.4327 202.611 53.4007 205.908 50.3138C207.95 48.4032 209.964 46.9226 209.964 46.9226L209.961 46.9193C210.834 46.4128 211.343 45.3123 211.343 43.7962C211.343 42.7977 211.128 41.7334 210.745 40.6895C206.703 42.7134 200.163 46.4464 196.946 51.847Z" fill="black"/>
</g>
<path d="M174.844 44.4294C174.844 47.9464 175.927 51.7959 177.729 55.3505V55.3524C180.04 59.9054 183.527 63.9697 187.429 66.2228C194.378 70.2344 200.011 66.9815 200.011 58.959C200.011 57.1221 199.716 55.1977 199.179 53.2706C197.854 48.5253 195.055 43.7727 191.556 40.3493C191.064 39.8659 190.557 39.4108 190.039 38.9853C189.823 38.8075 189.604 38.6349 189.385 38.4683H189.382C189.07 38.2312 188.755 38.0053 188.436 37.7919C188.103 37.5706 187.768 37.3598 187.429 37.1649C180.479 33.1533 174.844 36.4042 174.844 44.4294Z" fill="black"/>
<g opacity="0.100006">
<path d="M177.729 55.3528C180.04 59.9058 183.526 63.9701 187.429 66.2232C194.378 70.2348 200.011 66.9812 200.011 58.9587C200.011 57.1225 199.716 55.1974 199.179 53.2703H199.177C198.707 54.3083 197.017 55.7901 196.261 54.7522C196.734 56.4771 196.991 58.1848 196.991 59.7971C196.991 62.1029 196.477 63.9635 195.505 65.1806C194.675 66.2186 193.536 66.7468 192.119 66.7441C190.742 66.7468 189.14 66.2383 187.489 65.2873C184.169 63.3714 181.118 59.9275 178.953 56.0266C178.953 56.0266 178.521 56.3928 177.729 55.3528" fill="black"/>
</g>
<path d="M175.705 44.8774C175.705 48.4208 176.949 52.4212 178.954 56.027C181.118 59.928 184.169 63.3712 187.489 65.2871C189.14 66.2388 190.742 66.7466 192.119 66.7446C193.536 66.7466 194.676 66.2184 195.505 65.1811C196.477 63.9633 196.991 62.1027 196.991 59.7969C196.991 58.1847 196.734 56.4769 196.261 54.752C196.083 54.1 195.875 53.446 195.638 52.7939C195.226 51.6585 194.727 50.523 194.155 49.4258C194.037 49.1992 193.917 48.9753 193.795 48.7533C193.594 48.3832 193.383 48.015 193.164 47.6561C192.418 46.4205 191.582 45.2456 190.682 44.1655C190.674 44.1543 190.66 44.1411 190.651 44.1279C190.05 43.4094 189.422 42.7356 188.773 42.1119C188.305 41.6641 187.826 41.2452 187.338 40.8546C187.134 40.6906 186.927 40.5332 186.719 40.3798C186.469 40.1987 186.216 40.0228 185.961 39.8549C185.712 39.6928 185.462 39.54 185.212 39.3932C183.555 38.4356 181.954 37.9343 180.576 37.9324C177.526 37.9324 175.705 40.5306 175.705 44.8774Z" fill="black"/>
<g opacity="0.300003">
<path d="M175.705 44.8774C175.705 48.4208 176.949 52.4212 178.954 56.027C181.118 59.928 184.169 63.3712 187.489 65.2871C189.14 66.2388 190.742 66.7466 192.119 66.7446C193.536 66.7466 194.676 66.2184 195.505 65.1811C196.477 63.9633 196.991 62.1027 196.991 59.7969C196.991 58.1847 196.734 56.4769 196.261 54.752C196.083 54.1 195.875 53.446 195.638 52.7939C195.226 51.6585 194.727 50.523 194.155 49.4258C194.037 49.1992 193.917 48.9753 193.795 48.7533C193.594 48.3832 193.383 48.015 193.164 47.6561C192.418 46.4205 191.582 45.2456 190.682 44.1655C190.674 44.1543 190.66 44.1411 190.651 44.1279C190.05 43.4094 189.422 42.7356 188.773 42.1119C188.305 41.6641 187.826 41.2452 187.338 40.8546C187.134 40.6906 186.927 40.5332 186.719 40.3798C186.469 40.1987 186.216 40.0228 185.961 39.8549C185.712 39.6928 185.462 39.54 185.212 39.3932C183.555 38.4356 181.954 37.9343 180.576 37.9324C177.526 37.9324 175.705 40.5306 175.705 44.8774Z" fill="black"/>
</g>
<path d="M186.399 46.8498L190.814 55.0923C192.053 54.6266 194.153 53.8818 195.864 53.4444C195.792 53.2271 195.717 53.0124 195.637 52.7951C195.225 51.6596 194.726 50.5242 194.153 49.4269C194.037 49.2004 193.916 48.9764 193.795 48.7545C193.593 48.3843 193.383 48.0162 193.163 47.6572C192.418 46.4217 191.581 45.2461 190.681 44.1666C190.672 44.1554 190.659 44.1422 190.65 44.129C190.517 43.971 190.384 43.8142 190.249 43.6608C188.594 45.362 186.399 46.8498 186.399 46.8498Z" fill="black"/>
<g opacity="0.600006">
<path d="M186.399 46.8498L190.814 55.0923C192.053 54.6266 194.153 53.8818 195.864 53.4444C195.792 53.2271 195.717 53.0124 195.637 52.7951C195.225 51.6596 194.726 50.5242 194.153 49.4269C194.037 49.2004 193.916 48.9764 193.795 48.7545C193.593 48.3843 193.383 48.0162 193.163 47.6572C192.418 46.4217 191.581 45.2461 190.681 44.1666C190.672 44.1554 190.659 44.1422 190.65 44.129C190.517 43.971 190.384 43.8142 190.249 43.6608C188.594 45.362 186.399 46.8498 186.399 46.8498Z" fill="#FAFAFA"/>
</g>
<path d="M190.446 55.071C191.443 55.071 192.039 54.2649 192.039 52.9148V52.8733C192.039 50.7506 190.543 48.1609 188.705 47.0999L188.67 47.0795C188.18 46.7969 187.698 46.6468 187.277 46.6468C186.28 46.6468 185.684 47.4529 185.684 48.803V48.8445C185.684 50.9672 187.179 53.5569 189.017 54.6179L189.053 54.6383C189.543 54.9215 190.024 55.071 190.445 55.071H190.446Z" fill="black"/>
<g opacity="0.800003">
<path d="M190.446 55.071C191.443 55.071 192.039 54.2649 192.039 52.9148V52.8733C192.039 50.7506 190.543 48.1609 188.705 47.0999L188.67 47.0795C188.18 46.7969 187.698 46.6468 187.277 46.6468C186.28 46.6468 185.684 47.4529 185.684 48.803V48.8445C185.684 50.9672 187.179 53.5569 189.017 54.6179L189.053 54.6383C189.543 54.9215 190.024 55.071 190.445 55.071H190.446Z" fill="#FAFAFA"/>
</g>
<path d="M185.684 31.8542C186.233 31.8542 186.677 31.4097 186.677 30.8617V21.2612C186.677 20.7125 186.233 20.2686 185.684 20.2686C185.135 20.2686 184.691 20.7125 184.691 21.2612V30.8617C184.691 31.4097 185.135 31.8542 185.684 31.8542Z" fill="#E1E1E1"/>
<path d="M194.419 34.1956C194.762 34.1956 195.095 34.0177 195.281 33.699L200.08 25.3853C200.354 24.9098 200.192 24.3032 199.716 24.0286C199.244 23.7546 198.635 23.9173 198.36 24.3921L193.56 32.7064C193.286 33.1813 193.448 33.7885 193.924 34.0625C194.08 34.1527 194.25 34.1956 194.419 34.1956Z" fill="#E1E1E1"/>
<path d="M203.507 80.4614C203.676 80.4614 203.847 80.4186 204.003 80.3284C204.479 80.0544 204.641 79.4472 204.367 78.9723L199.567 70.658C199.293 70.1825 198.685 70.0198 198.211 70.2945C197.735 70.5691 197.572 71.1757 197.846 71.6512L202.646 79.9648C202.831 80.2836 203.164 80.4614 203.507 80.4614Z" fill="#E1E1E1"/>
<path d="M185.684 81.7478C186.233 81.7478 186.677 81.3032 186.677 80.7546V71.1547C186.677 70.6061 186.233 70.1615 185.684 70.1615C185.135 70.1615 184.691 70.6061 184.691 71.1547V80.7546C184.691 81.3032 185.135 81.7478 185.684 81.7478Z" fill="#E1E1E1"/>
<path d="M172.146 72.7725C172.489 72.7725 172.823 72.594 173.007 72.2759L177.808 63.9622C178.082 63.4874 177.919 62.8795 177.444 62.6055C176.971 62.3315 176.362 62.4935 176.087 62.969L171.286 71.2827C171.012 71.7575 171.175 72.3648 171.651 72.6394C171.807 72.7297 171.977 72.7725 172.146 72.7725Z" fill="#E1E1E1"/>
<path d="M162.24 62.8633C162.408 62.8633 162.579 62.8205 162.735 62.7302L171.049 57.9303C171.524 57.6556 171.687 57.0484 171.412 56.5735C171.138 56.098 170.531 55.936 170.055 56.21L161.742 61.0106C161.266 61.2846 161.104 61.8918 161.378 62.3667C161.563 62.6848 161.897 62.8633 162.24 62.8633Z" fill="#E1E1E1"/>
<path d="M158.611 49.3269H168.212C168.76 49.3269 169.204 48.8823 169.204 48.3344C169.204 47.7858 168.76 47.3412 168.212 47.3412H158.611C158.062 47.3412 157.618 47.7858 157.618 48.3344C157.618 48.8823 158.062 49.3269 158.611 49.3269Z" fill="#E1E1E1"/>
<path d="M170.551 40.5906C170.894 40.5906 171.228 40.4128 171.412 40.0946C171.687 39.6198 171.524 39.0119 171.049 38.7379L162.735 33.9373C162.263 33.6633 161.654 33.826 161.378 34.3015C161.104 34.7757 161.266 35.3829 161.742 35.6576L170.056 40.4575C170.212 40.5484 170.382 40.5906 170.551 40.5906Z" fill="#E1E1E1"/>
<path d="M176.949 34.1956C177.117 34.1956 177.288 34.1527 177.444 34.0625C177.919 33.7885 178.082 33.1806 177.808 32.7064L173.007 24.3921C172.733 23.9173 172.125 23.7546 171.651 24.0286C171.175 24.3032 171.012 24.9105 171.286 25.3853L176.087 33.699C176.272 34.0177 176.605 34.1956 176.949 34.1956Z" fill="#E1E1E1"/>
<path d="M218.924 56.0166C216.98 53.6555 216.875 52.1538 215.373 51.0085C213.873 49.8625 212.385 49.8178 210.203 50.4948C208.557 51.0059 206.609 50.8096 205.951 51.4386C205.765 51.5703 206.084 52.6287 206.869 52.9936C207.815 53.4322 209.323 53.288 210.438 53.2708C212.977 53.2307 210.949 55.7643 213.446 58.2387C214.524 60.0275 218.924 56.0166 218.924 56.0166Z" fill="#FFAAA8"/>
<path d="M265.318 36.8103C266.264 33.9058 269.665 30.3533 272.131 27.1129C274.929 23.4379 277.443 15.9481 272.044 11.0441C272.044 11.0441 272.413 2.51973 263.734 0.929841C256.036 -0.479587 249.341 3.41017 241.204 2.30304C237.221 1.76101 235.4 6.31399 239.715 10.6707C239.715 10.6707 236.727 13.7905 238.426 17.432C240.125 21.0735 245.346 20.4893 245.346 20.4893L265.318 36.8103Z" fill="black"/>
<path d="M270.022 10.2022C270.246 9.86959 270.535 9.57585 270.86 9.34534C271.66 8.77696 272.648 8.53459 273.622 8.4134C277.142 7.97543 280.907 9.09177 283.347 11.6656C285.693 14.1387 286.629 17.6643 286.737 21.0699C286.845 24.4763 286.216 27.8563 285.848 31.2435C285.593 33.598 285.465 35.9927 285.798 38.346C286.083 40.3514 286.754 42.7995 288.102 44.3703C288.98 45.3931 290.388 46.2249 290.353 47.7009C290.317 49.2117 288.994 49.9428 287.634 50.1601C283.737 50.7832 279.497 48.8956 277.075 45.8541C276.948 45.6934 276.824 45.5294 276.705 45.3615C274.6 42.3964 274.515 39.0329 274.531 35.5416C274.548 31.7645 275.591 28.0993 276.238 24.4045C276.564 22.5413 276.878 20.655 276.935 18.7608C276.971 17.5562 276.981 16.0671 276.24 15.0423C275.404 13.8858 274.117 13.3313 272.706 13.4808C272.1 13.5446 271.579 13.791 270.967 13.598C270.2 13.3563 269.62 12.6489 269.555 11.8395C269.508 11.2586 269.695 10.6882 270.022 10.2022Z" fill="black"/>
<path d="M267.354 178.166L281.321 177.913C281.114 187.237 279.632 197.586 279.39 206.335C279.344 207.982 279.431 219.132 278.81 222.52C277.877 227.611 271.834 226.924 271.513 223.877C271.193 220.83 271.902 207.814 271.883 206.472C271.936 200.86 269.307 191.39 267.928 181.318C267.86 180.823 267.418 178.648 267.354 178.166Z" fill="#FFAAA8"/>
<path d="M269.236 225.997C269.111 228.989 269.374 231.007 270.255 232.858C271.134 234.709 273.069 235.456 275.138 235.149C277.206 234.84 279.925 233.735 280.761 231.227C281.597 228.719 281.656 226.949 281.477 224.145L269.236 225.997Z" fill="black"/>
<path d="M279.426 205.266C280.249 205.415 280.093 209.433 280.17 213.48C280.252 217.818 281.354 219.719 281.459 223.279C281.58 227.347 281.188 229.119 279.537 231.405C277.886 233.692 272.666 235.572 270.562 231.849C268.847 228.813 269.08 225.662 269.666 221.67C270.271 217.546 270.729 214.647 270.877 211.484C271.016 208.463 271.102 205.527 271.857 205.266C271.869 205.713 271.866 206.279 271.882 206.718C271.893 207.055 271.813 208.691 272.277 208.754C272.359 208.374 272.386 208.015 272.4 207.622C272.412 207.28 272.477 206.912 272.725 206.675C272.974 206.437 273.345 206.389 273.688 206.356C274.522 206.277 275.359 206.214 276.198 206.223C276.615 206.227 277.032 206.249 277.447 206.295C277.784 206.333 278.177 206.402 278.484 206.551C278.673 206.644 278.84 206.802 278.893 207.005C278.932 207.155 278.907 207.313 278.891 207.468C278.863 207.745 278.87 208.026 278.912 208.302C278.93 208.423 278.998 208.577 279.119 208.56C279.219 208.546 279.269 208.43 279.279 208.33C279.331 207.846 279.304 207.488 279.339 206.922C279.355 206.661 279.348 206.301 279.371 206.04C279.393 205.782 279.416 205.525 279.426 205.266Z" fill="black"/>
<path d="M281.385 222.118C281.408 222.706 281.512 226.589 280.399 227.175C279.193 227.81 278.876 224.733 278.876 224.733C278.876 224.733 276.307 223.655 272.279 224.955C272.414 225.597 271.612 227.589 270.597 227.049C269.589 226.513 269.616 222.073 269.617 222.015C269.069 225.843 268.896 228.901 270.562 231.849C272.667 235.572 277.887 233.692 279.537 231.405C281.188 229.119 281.58 227.347 281.458 223.279C281.447 222.872 281.421 222.488 281.385 222.118Z" fill="black"/>
<path d="M278.548 224.96C278.419 226.413 279.901 226.067 280.169 224.024C280.437 221.98 279.804 217.005 280.17 213.48C280.093 209.433 280.249 205.415 279.425 205.266C279.424 205.316 279.417 205.365 279.414 205.414L279.32 207.456C279.314 207.754 279.313 208.018 279.279 208.331C279.002 211.293 278.844 217.056 278.827 219.788C278.81 222.52 278.677 223.507 278.548 224.96Z" fill="black"/>
<path d="M272.73 224.96C272.601 223.507 272.468 222.52 272.45 219.788C272.434 217.076 272.278 211.381 272.004 208.4C271.852 207.885 271.89 206.962 271.882 206.718C271.867 206.308 271.868 205.792 271.859 205.36C271.857 205.33 271.854 205.299 271.853 205.269C271.307 205.467 271.113 207.07 270.994 209.088C270.981 210.26 271.02 211.715 271.108 213.48C271.473 217.004 270.833 222.009 271.101 224.052C271.369 226.095 272.859 226.413 272.73 224.96Z" fill="black"/>
<path d="M241.544 196.595C241.647 193.708 239.716 166.889 239.716 166.889L252.933 175.264C250.092 192.218 249.487 196.216 249.436 198.99C249.458 199.054 249.515 199.29 249.511 199.701C249.499 202.994 245.782 204.771 242.882 206.966C241.736 207.834 238.405 210.395 235.039 212.086C232.933 213.145 228.654 213.242 228.124 211.886C231.653 209.192 236.785 205.158 239.591 202.082C240.931 200.613 241.44 199.482 241.544 196.595Z" fill="#FFAAA8"/>
<path d="M222.108 215.431C221.927 215.431 221.715 217.234 222.698 218.081C223.832 219.059 227.102 220.743 231.502 220.173C235.902 219.603 238.284 218.357 240.044 216.883C241.804 215.409 244.272 213.332 246.262 212.892C248.11 212.484 250.118 211.646 250.711 211.074C251.302 210.503 251.219 207.963 251.219 207.963L222.108 215.431Z" fill="black"/>
<path d="M249.465 198.185C249.465 198.185 250.017 198.191 250.131 198.779C250.266 199.479 250.412 201.516 250.704 202.665C251.108 204.262 251.378 207.535 251.137 208.837C250.894 210.139 247.881 211.044 245.955 211.777C243.988 212.527 241.712 214.071 239.715 215.718C237.648 217.424 233.299 219.198 230.431 219.177C227.037 219.152 223.218 218.054 222.342 216.481C221.26 214.534 222.108 213.407 227.139 211.075C228.091 210.633 231.436 208.654 232.576 207.936C235.661 205.993 238.716 203.29 240.135 199.855C240.301 199.453 240.475 199.008 240.858 198.804C241.152 198.647 241.507 198.67 241.836 198.716C242.674 198.833 243.494 199.081 244.258 199.445C244.933 199.768 245.89 200.142 245.876 201.006C245.871 201.307 245.784 201.601 245.687 201.886C245.626 202.062 245.579 202.297 245.733 202.401C245.88 202.499 246.073 202.388 246.204 202.27C246.731 201.798 247.117 201.193 247.56 200.642C247.798 200.347 248.056 200.064 248.356 199.831C248.628 199.619 248.976 199.513 249.218 199.272C249.524 198.968 249.451 198.591 249.465 198.185Z" fill="black"/>
<path d="M239.715 215.718C240.593 214.995 241.525 214.295 242.46 213.67V213.665C242.46 213.665 236.543 217.263 234.153 215.63C232.612 214.579 233.345 213.301 233.382 212.892C233.419 212.483 229.619 210.735 228.124 210.557C227.708 210.787 227.358 210.973 227.138 211.074C222.109 213.407 221.259 214.534 222.342 216.48C223.218 218.054 225.985 219.281 230.371 219.281C233.239 219.281 237.648 217.423 239.715 215.718Z" fill="black"/>
<path d="M233.795 211.701C230.667 212.953 232.001 213.537 232.877 213.662C233.754 213.787 239.02 210.711 242.23 208.171C245.581 205.52 247.692 202.622 248.936 201.649C249.4 201.287 249.899 200.841 250.344 200.424C250.261 199.736 250.194 199.108 250.131 198.779C250.017 198.191 249.465 198.185 249.465 198.185C249.451 198.59 249.524 198.968 249.218 199.272C248.976 199.513 248.628 199.619 248.356 199.831C248.056 200.064 247.798 200.347 247.56 200.642C247.117 201.193 246.731 201.798 246.204 202.269C243.472 205.737 236.923 210.45 233.795 211.701Z" fill="black"/>
<path d="M233.1 212.892C232.311 211.927 229.886 210.502 227.642 210.744" stroke="#ECECEC" stroke-width="1.25333" stroke-miterlimit="10" stroke-linecap="round" stroke-linejoin="round"/>
<path d="M235.829 211.213C235.04 210.248 232.615 208.823 230.371 209.065" stroke="#ECECEC" stroke-width="1.25333" stroke-miterlimit="10" stroke-linecap="round" stroke-linejoin="round"/>
<path d="M238.558 209.622C237.77 208.657 235.344 207.232 233.1 207.475" stroke="#ECECEC" stroke-width="1.25333" stroke-miterlimit="10" stroke-linecap="round" stroke-linejoin="round"/>
<path d="M241.087 207.806C240.299 206.841 237.873 205.416 235.629 205.658" stroke="#ECECEC" stroke-width="1.25333" stroke-miterlimit="10" stroke-linecap="round" stroke-linejoin="round"/>
<path d="M243.565 205.989C242.46 204.594 239.825 203.571 237.582 203.813" stroke="#ECECEC" stroke-width="1.25333" stroke-miterlimit="10" stroke-linecap="round" stroke-linejoin="round"/>
<path d="M270.247 79.1258C272.136 83.1559 277.443 89.7749 279.147 94.3062C282.631 103.579 280.966 110.292 279.959 122.491C278.881 135.558 277.845 145.889 277.845 145.889C278.042 148.212 281.27 152.744 281.688 163.008C282.078 172.603 281.026 184.802 281.026 184.802C281.026 184.802 273.78 188.818 268.422 184.766C268.422 184.766 263.252 160.076 261.736 148.065C260.414 137.582 258.904 129.12 258.904 129.12L254.807 148.616C254.807 148.616 255.101 153.881 255.534 158.354C256.218 165.42 252.267 179.293 252.267 179.293C252.267 179.293 244.78 181.527 240.208 177.472C240.208 177.472 238.432 157.228 238.62 147.178C238.833 135.751 240.823 97.4411 242.23 81.1069L270.247 79.1258Z" fill="black"/>
<g opacity="0.300003">
<path d="M270.247 79.1258C272.136 83.1559 277.443 89.7749 279.147 94.3062C282.631 103.579 280.966 110.292 279.959 122.491C278.881 135.558 277.845 145.889 277.845 145.889C278.042 148.212 281.27 152.744 281.688 163.008C282.078 172.603 281.026 184.802 281.026 184.802C281.026 184.802 273.78 188.818 268.422 184.766C268.422 184.766 263.252 160.076 261.736 148.065C260.414 137.582 258.904 129.12 258.904 129.12L254.807 148.616C254.807 148.616 255.101 153.881 255.534 158.354C256.218 165.42 252.267 179.293 252.267 179.293C252.267 179.293 244.78 181.527 240.208 177.472C240.208 177.472 238.432 157.228 238.62 147.178C238.833 135.751 240.823 97.4411 242.23 81.1069L270.247 79.1258Z" fill="black"/>
</g>
<g opacity="0.199997">
<path d="M258.904 129.119L256.105 106.274C256.105 106.274 250.642 105.564 245.998 100.123C245.998 100.123 246.927 105.348 253.628 107.943L257.322 128.299L254.807 148.63L258.904 129.119Z" fill="black"/>
</g>
<path d="M272.185 224.754C272.185 224.754 275.454 223.442 278.876 224.733" stroke="#ECECEC" stroke-width="1.25333" stroke-miterlimit="10" stroke-linecap="round" stroke-linejoin="round"/>
<path d="M271.808 221.535C271.808 221.535 275.445 220.222 279.253 221.514" stroke="#ECECEC" stroke-width="1.25333" stroke-miterlimit="10" stroke-linecap="round" stroke-linejoin="round"/>
<path d="M271.865 218.443C271.865 218.443 275.739 216.883 279.253 218.484" stroke="#ECECEC" stroke-width="1.25333" stroke-miterlimit="10" stroke-linecap="round" stroke-linejoin="round"/>
<path d="M271.808 215.556C271.808 215.556 275.465 213.806 279.323 215.642" stroke="#ECECEC" stroke-width="1.25333" stroke-miterlimit="10" stroke-linecap="round" stroke-linejoin="round"/>
<path d="M271.808 212.446C271.808 212.446 275.782 210.665 279.389 212.446" stroke="#ECECEC" stroke-width="1.25333" stroke-miterlimit="10" stroke-linecap="round" stroke-linejoin="round"/>
<path d="M264.69 41.1331H264.69C267.385 41.3182 272.286 41.7502 272.286 41.7502C275.114 43.3283 275.828 44.6218 276.354 48.3778C276.578 49.975 275.276 54.2388 274.157 60.2954L271.631 71.663L270.247 79.1257C266.915 82.0447 262.129 83.7301 253.229 83.8223C248.552 83.8704 244.745 82.4603 242.23 81.1068C242.106 75.7793 241.333 70.4762 241.229 67.3689C237.029 63.9184 235.619 58.2306 237.911 54.5214C243.234 45.9041 248.408 40.4778 251.836 40.7564L264.69 41.1331Z" fill="#FFAAA8"/>
<path d="M240.787 67.4231L241.695 73.1155C241.695 73.1155 245.89 75.8053 255.686 75.4095C269.308 74.8595 271.719 71.2628 271.719 71.2628C272.765 67.3342 273.672 63.0763 274.485 58.5931C274.485 58.5931 269.101 57.3892 268.689 51.3326C268.276 45.276 272.001 41.7248 272.001 41.7248L265.317 41.3119C265.317 41.3119 252.735 40.4603 250.821 40.563C248.908 40.6664 245.843 42.8043 242.229 47.4771C238.615 52.1506 232.952 60.3292 240.787 67.4231Z" fill="black"/>
<path d="M298.884 67.1319C293.453 60.5366 287.393 53.7114 283.499 49.0201C277.444 41.7253 276.254 41.9328 272.001 41.7253C269.778 43.412 269.7 48.5044 272.655 57.8336C277.045 61.5245 288.236 72.9408 288.236 72.9408C287.737 74.1257 283.012 82.7607 279.959 86.4193C279.418 87.0674 277.695 87.1379 276.861 87.2623C274.62 87.5962 272.608 88.247 270.677 89.057C269.166 89.6919 268.164 89.5773 268.15 89.9824C268.133 90.5027 268.56 91.5446 270.001 91.7112C270.726 91.7949 272.591 91.3391 273.91 91.1304C273.91 91.1304 273.406 91.6974 271.378 92.8368C270.527 93.315 266.884 95.1044 265.427 95.7986C263.541 96.6969 264.014 100.116 269.33 101.249C272.044 101.828 275.589 101.515 281.066 96.99C282.666 95.6688 285.047 92.9191 286.929 90.7174C291.89 84.9085 294.89 81.1643 297.566 77.4721C302.018 71.3292 300.677 69.3086 298.884 67.1319Z" fill="#FFAAA8"/>
<g opacity="0.100006">
<path d="M248.249 66.5817C248.249 66.5817 253.179 70.4082 258.806 68.4126C264.432 66.417 265.253 61.4978 265.253 61.4978C265.253 61.4978 265.851 67.9305 258.753 70.1237C251.904 72.2411 248.249 66.5817 248.249 66.5817Z" fill="black"/>
</g>
<path d="M241.538 23.4766C241.75 32.8111 244.78 35.1182 246.298 35.7808C247.816 36.4433 250.746 36.0396 253.591 35.5687V41.1708C253.591 41.1708 247.663 46.2369 247.909 48.8028C248.16 51.3747 254.976 51.7145 258.662 49.2026C261.352 47.3697 264.009 43.5945 264.848 42.6013C265.153 42.2391 265.317 41.7853 265.317 41.3124V28.1303C265.317 28.1303 267.234 29.1327 269.046 27.5817C271.577 25.4129 271.745 21.9809 269.898 20.1427C269.007 19.2569 266.69 18.9954 265.225 21.1892C264.543 24.0687 263.333 24.6364 262.629 23.7407C259.204 19.384 258.112 21.3993 253.109 18.4099C247.335 14.9588 246.337 11.2719 245.23 7.65214C243.142 8.89165 241.279 12.4653 241.538 23.4766Z" fill="#FFAAA8"/>
<path d="M251.916 22.2731C251.885 22.8876 252.34 23.4085 252.931 23.4368C253.523 23.4645 254.027 22.989 254.058 22.3745C254.089 21.76 253.634 21.2391 253.043 21.2107C252.451 21.1831 251.947 21.6579 251.916 22.2731Z" fill="black"/>
<path d="M243.202 22.2731C243.171 22.8876 243.626 23.4085 244.218 23.4368C244.809 23.4645 245.313 22.989 245.344 22.3745C245.375 21.76 244.92 21.2391 244.329 21.2107C243.737 21.1831 243.233 21.6579 243.202 22.2731Z" fill="black"/>
<path d="M249.085 20.1429L248.878 27.9949L244.745 26.7152L249.085 20.1429Z" fill="#FF9090"/>
<path d="M253.593 35.5671C256.596 35.1732 262.771 33.3989 263.733 30.9574C263.733 30.9574 263.412 32.492 261.568 34.0733C259.723 35.6547 253.593 37.4355 253.593 37.4355V35.5671Z" fill="#FF9090"/>
<path d="M253.109 17.0071L255.847 18.676C256.296 17.8883 256.046 16.8754 255.29 16.415C254.533 15.9533 253.557 16.2187 253.109 17.0071Z" fill="black"/>
<path d="M253.63 28.0944L249.976 29.974C250.538 30.9909 251.812 31.3947 252.821 30.875C253.831 30.356 254.192 29.1106 253.63 28.0944Z" fill="#C76668"/>
<path d="M251.884 30.7835C251.884 30.8896 251.899 30.9917 251.916 31.0938C252.225 31.0885 252.533 31.0233 252.821 30.8751C253.612 30.4681 253.998 29.6158 253.86 28.7768C252.766 28.7952 251.884 29.685 251.884 30.7835Z" fill="#FF9090"/>
<path d="M242.294 17.8733L245.346 16.8077C245.081 15.9475 244.183 15.4885 243.341 15.7829C242.499 16.0766 242.03 17.0125 242.294 17.8733Z" fill="black"/>
<path d="M43.5888 194.738C41.4016 195.42 39.051 195.55 36.7966 195.154C33.1643 194.515 28.583 192.149 28.8985 187.791C28.9347 187.293 29.0493 186.793 29.297 186.361C30.1196 184.923 32.0223 184.656 33.6148 184.201C36.6504 183.335 39.3026 181.199 40.7963 178.418C42.4231 175.39 42.6562 171.807 42.4626 168.376C42.4 167.282 42.2993 166.173 42.5252 165.101C42.7056 164.241 43.0922 163.435 43.5592 162.69C45.0964 160.239 47.5438 158.404 50.2823 157.471C51.2518 157.14 52.3595 156.928 53.2697 157.398C53.8658 157.706 54.2978 158.445 54.226 159.121C54.1424 159.904 53.2908 160.403 52.8074 160.957C51.6166 162.317 50.7058 164.016 50.6676 165.858C50.63 167.664 51.4118 169.368 52.0507 171.058C54.0594 176.373 54.6825 182.554 52.0796 187.605C50.3409 190.978 47.2112 193.608 43.5888 194.738Z" fill="black"/>
<path d="M96.1323 170.792C96.1323 170.792 100.571 138.836 99.6954 127.327C99.2463 121.425 96.2054 119.552 91.8421 119.889C87.4789 120.226 62.1316 134.474 62.1316 134.474L65.6624 143.061L86.4633 136.536C86.4633 136.536 84.3485 148.796 83.8598 151.127C83.3711 153.458 82.3483 156.593 81.5369 159.405C81.1384 160.787 80.5845 162.585 80.5845 163.455C80.5845 165.505 96.1323 170.792 96.1323 170.792Z" fill="#C76668"/>
<path d="M86.4632 136.536C89.3565 135.964 92.2498 134.262 93.1573 132.9C93.1573 132.9 92.7036 135.009 90.2641 136.536C87.8239 138.064 86.0885 138.699 86.0885 138.699L86.4632 136.536Z" fill="#B0494C"/>
<path d="M91.3687 200.938C83.904 197.942 74.7967 195.158 69.7175 192.225C64.6396 189.293 64.3571 188.535 58.67 185.209C52.9822 181.881 60.1551 169.136 60.1551 169.136C60.1551 169.136 70.7844 165.457 75.8024 163.475C78.9835 162.741 82.6711 161.478 86.3382 161.663C90.006 161.848 97.0571 161.753 99.6975 164.181C102.337 166.609 102.24 171.621 102.24 171.621L110.765 180.188L91.3687 200.938Z" fill="#C76668"/>
<path d="M104.51 173.904L102.241 171.622C102.241 171.622 101.942 171.272 101.804 170.442C100.337 170.004 97.0338 169.712 89.141 174.367C78.76 180.489 76.0985 195.182 76.0985 195.182L76.0979 195.187C77.3657 195.695 79.408 196.483 80.7753 196.991C81.918 190.164 86.444 183.216 92.353 179.035C98.2621 174.853 104.51 173.904 104.51 173.904Z" fill="black"/>
<g opacity="0.399994">
<path d="M104.51 173.904L102.241 171.622C102.241 171.622 101.942 171.272 101.804 170.442C100.337 170.004 97.0338 169.712 89.141 174.367C78.76 180.489 76.0985 195.182 76.0985 195.182L76.0979 195.187C77.3657 195.695 79.408 196.483 80.7753 196.991C81.918 190.164 86.444 183.216 92.353 179.035C98.2621 174.853 104.51 173.904 104.51 173.904Z" fill="black"/>
</g>
<path d="M66.2157 178.115C67.8188 183.602 67.1022 186.727 66.1057 190.13C67.0555 190.684 68.1599 191.326 69.7182 192.225C71.1276 193.039 75.5067 195.187 78.0009 195.934C78.0009 191.23 82.4149 183.169 86.9633 179.155C93.1733 173.676 102.24 171.622 102.24 171.622C102.24 171.622 102.337 166.609 99.6969 164.181C97.0572 161.753 91.0381 161.48 87.5896 161.472C84.1411 161.465 80.8566 161.836 80.8566 161.836C77.5102 162.681 75.2124 163.706 75.211 163.707C75.2235 163.71 82.7949 164.549 78.4764 166.742C72.5588 169.748 64.091 167.763 64.091 167.763C62.7817 168.004 61.4698 168.463 60.1552 169.136C60.1552 169.136 64.2326 171.324 66.2157 178.115" fill="black"/>
<g opacity="0.300003">
<path d="M66.2157 178.115C67.8188 183.602 67.1022 186.727 66.1057 190.13C67.0555 190.684 68.1599 191.326 69.7182 192.225C71.1276 193.039 75.5067 195.187 78.0009 195.934C78.0009 191.23 82.4149 183.169 86.9633 179.155C93.1733 173.676 102.24 171.622 102.24 171.622C102.24 171.622 102.337 166.609 99.6969 164.181C97.0572 161.753 91.0381 161.48 87.5896 161.472C84.1411 161.465 80.8566 161.836 80.8566 161.836C77.5102 162.681 75.2124 163.706 75.211 163.707C75.2235 163.71 82.7949 164.549 78.4764 166.742C72.5588 169.748 64.091 167.763 64.091 167.763C62.7817 168.004 61.4698 168.463 60.1552 169.136C60.1552 169.136 64.2326 171.324 66.2157 178.115" fill="black"/>
</g>
<path d="M208.04 227.637C200.62 223.353 197.365 221.921 191.775 214.272C187.609 203.957 183.765 186.921 180.781 182.06C178.486 178.32 177.852 176.251 170.631 176.324C155.972 176.471 119.718 186.74 119.718 186.74L105.632 192.779L103.183 197.174C105.736 199.893 110.371 196.408 115.053 198.852C119.736 201.295 121.039 206.196 127.872 205.619C141.552 204.462 149.667 200.906 156.756 198.358C162.668 196.232 169.998 194.001 169.998 194.001C170.631 197.807 171.579 200.716 174.46 205.068C178.28 210.84 179.193 211.872 182.023 216.647C182.023 216.647 182.187 217.289 182.758 217.997C183.48 219.354 183.379 221.696 183.496 223.32C183.928 229.281 186.365 225.153 194.823 232.443C196.798 234.146 198.653 235.569 201.303 236.157C203.652 236.678 206.635 236.182 208.966 235.626C211.118 235.113 211.771 234.239 213.114 232.31C214.303 230.602 209.996 228.766 208.04 227.637Z" fill="#C76668"/>
<path d="M89.5578 200.227C89.5578 200.227 90.3001 190.472 98.0526 184.722C105.012 179.558 108.492 178.57 110.258 179.155C112.024 179.74 118.499 180.556 122.9 180.237C126.208 179.998 152.936 175.492 170.408 175.645C177.313 175.705 179.737 177.472 181.919 183.512C184.141 189.665 187.651 202.142 187.651 202.142C187.651 202.142 184.701 207.735 176.19 207.657C176.19 207.657 173.671 205.125 171.666 201.05C170.035 197.738 169.723 194.481 169.723 194.481C169.723 194.481 143.893 208.82 129.818 210.688C115.744 212.556 89.5578 200.227 89.5578 200.227Z" fill="black"/>
<path d="M170.914 187.525C170.914 187.525 169.162 189.441 168.24 192.611C168.169 192.356 168.097 192.094 168.018 191.816C166.934 187.997 165.695 184.902 163.58 182.94C161.465 180.98 159.504 180.36 154.654 180.607C149.803 180.854 121.552 185.692 121.552 185.692C120.933 183.536 119.803 182.974 119.803 182.974C120.567 184.699 120.228 186.898 119.037 187.869L113.888 208.794C119.571 210.429 125.315 211.285 129.818 210.687C142.361 209.023 164.237 197.456 168.852 194.957L169.722 194.481C169.568 191.951 170.914 187.525 170.914 187.525Z" fill="black"/>
<path d="M183.357 225.055C182.856 225.341 183.522 227.559 183.912 228.095C184.302 228.631 185.664 229.524 187.213 229.911C189.121 230.388 190.793 231.408 192.759 233.121C193.989 234.193 196.867 236.263 200.112 237.262C203.356 238.261 207.087 238.366 210.576 236.663C214.232 234.877 214.109 233.038 213.739 231.678L183.357 225.055Z" fill="black"/>
<path d="M191.752 214.219L191.39 213.295C192.048 212.895 194.073 215.751 196.753 218.711C199.004 221.198 201.963 223.667 203.669 224.614C209.121 227.639 211.099 228.141 213.029 229.765C215.506 231.851 212.676 234.785 208.014 236.153C203.16 237.577 199.199 235.751 196.199 233.929C194.091 232.648 191.031 230.148 189.479 229.103C187.926 228.058 184.448 227.309 183.297 225.87C182.665 225.079 182.832 222.998 182.676 221.174C182.533 219.5 181.511 216.591 182.084 216.549L182.82 217.9C187.014 219.03 191.814 216.502 191.752 214.219Z" fill="black"/>
<g opacity="0.199997">
<path d="M191.752 214.219L191.39 213.295C192.048 212.895 194.073 215.751 196.753 218.711C199.004 221.198 201.963 223.667 203.669 224.614C209.121 227.639 211.099 228.141 213.029 229.765C215.506 231.851 212.676 234.785 208.014 236.153C203.16 237.577 199.199 235.751 196.199 233.929C194.091 232.648 191.031 230.148 189.479 229.103C187.926 228.058 184.448 227.309 183.297 225.87C182.665 225.079 182.832 222.998 182.676 221.174C182.533 219.5 181.511 216.591 182.084 216.549L182.82 217.9C187.014 219.03 191.814 216.502 191.752 214.219Z" fill="black"/>
</g>
<g opacity="0.199997">
<path d="M206.024 226.552C204.738 225.839 203.707 225.528 200.396 222.908C196.931 220.167 192.776 214.797 191.752 214.222C191.752 214.236 191.748 214.251 191.747 214.265C191.745 215.782 189.623 217.389 186.97 217.958C189.297 217.534 193.578 223.041 195.589 225.055C198.325 227.793 200.168 229.341 201.45 229.413C203.129 227.874 204.738 226.863 206.024 226.552Z" fill="black"/>
</g>
<path d="M198.854 228.865C200.55 226.654 202.493 225.352 204.844 225.555" stroke="black" stroke-width="1.25333" stroke-miterlimit="10" stroke-linecap="round" stroke-linejoin="round"/>
<path d="M196.331 227.007C198.027 224.796 199.969 223.494 202.321 223.697" stroke="black" stroke-width="1.25333" stroke-miterlimit="10" stroke-linecap="round" stroke-linejoin="round"/>
<path d="M193.807 225.149C195.503 222.938 197.446 221.637 199.798 221.839" stroke="black" stroke-width="1.25333" stroke-miterlimit="10" stroke-linecap="round" stroke-linejoin="round"/>
<path d="M191.523 223.075C193.219 220.864 195.162 219.563 197.514 219.765" stroke="black" stroke-width="1.25333" stroke-miterlimit="10" stroke-linecap="round" stroke-linejoin="round"/>
<path d="M189.641 220.593C191.337 218.382 193.28 217.081 195.632 217.283" stroke="black" stroke-width="1.25333" stroke-miterlimit="10" stroke-linecap="round" stroke-linejoin="round"/>
<path d="M192.242 238.082C184.913 235.202 181.409 232.031 175.818 224.382C171.652 214.067 167.296 192.73 164.312 187.869C162.016 184.129 159.303 181.752 152.252 182.652C137.711 184.508 114.677 189.321 114.677 189.321L104.743 184.964L90.0868 200.198C93.9693 202.192 95.7166 205.295 99.7525 208.2C104.039 211.284 106.266 213.343 113.099 213.484C124.191 213.713 133.329 207.117 140.418 204.569C146.33 202.443 151.984 198.797 151.984 198.797C152.072 201.903 153.455 208.196 158.504 215.178C162.561 220.788 163.237 221.982 166.067 226.757C166.067 226.757 166.231 227.399 166.802 228.107C167.525 229.465 167.423 231.805 167.541 233.431C167.971 239.391 170.41 235.262 178.867 242.553C180.842 244.256 182.697 245.679 185.346 246.267C187.697 246.788 190.3 246.687 192.63 246.132C194.782 245.618 196.097 244.518 197.158 242.42C198.561 239.643 194.343 238.907 192.242 238.082Z" fill="#C76668"/>
<path d="M159.751 216.913C159.173 216.382 158.763 215.857 158.307 215.226C153.258 208.244 151.823 202.592 151.736 199.486C151.736 199.486 148.787 201.163 140.231 205.914C133.645 209.571 125.079 215.251 113.521 214.674C107.573 214.378 103.628 211.963 99.4318 208.757C96.5688 206.57 94.5581 202.985 89.5579 200.228C91.3684 194.383 92.5908 186.861 103.945 182.462L119.037 187.869C119.037 187.869 136.363 183.911 150.95 182.462C160.358 181.527 161.43 182.675 163.723 186.417C166.393 190.773 168.851 200.938 171.924 211.787C171.126 213.065 165.184 217.327 159.751 216.913Z" fill="black"/>
<path d="M167.34 235.262C166.838 235.549 167.505 237.766 167.895 238.302C168.285 238.838 169.647 239.731 171.196 240.119C173.104 240.595 174.777 241.616 176.742 243.329C177.971 244.4 180.85 246.47 184.094 247.469C187.339 248.468 191.069 248.573 194.559 246.87C198.215 245.085 198.092 243.245 197.721 241.885L167.34 235.262Z" fill="black"/>
<path d="M175.818 224.382L175.454 223.454C176.112 223.053 178.055 225.958 180.735 228.918C182.987 231.406 185.945 233.875 187.652 234.822C193.104 237.846 195.082 238.348 197.011 239.972C199.488 242.057 196.658 244.992 191.997 246.36C187.142 247.784 183.182 245.958 180.182 244.137C178.073 242.856 175.014 240.355 173.461 239.31C171.909 238.265 168.43 237.516 167.28 236.077C166.648 235.286 166.815 233.205 166.659 231.381C166.516 229.708 165.493 226.799 166.067 226.756L166.803 228.107C170.997 229.238 175.881 226.665 175.818 224.382Z" fill="black"/>
<g opacity="0.199997">
<path d="M175.818 224.382L175.454 223.454C176.112 223.053 178.055 225.958 180.735 228.918C182.987 231.406 185.945 233.875 187.652 234.822C193.104 237.846 195.082 238.348 197.011 239.972C199.488 242.057 196.658 244.992 191.997 246.36C187.142 247.784 183.182 245.958 180.182 244.137C178.073 242.856 175.014 240.355 173.461 239.31C171.909 238.265 168.43 237.516 167.28 236.077C166.648 235.286 166.815 233.205 166.659 231.381C166.516 229.708 165.493 226.799 166.067 226.756L166.803 228.107C170.997 229.238 175.881 226.665 175.818 224.382Z" fill="black"/>
</g>
<g opacity="0.199997">
<path d="M184.378 233.116C180.914 230.375 176.833 225.045 175.809 224.471C175.767 225.987 173.596 227.602 170.917 228.168L170.913 228.171C173.23 227.677 177.549 233.237 179.572 235.262C182.307 238.001 184.15 239.549 185.433 239.62C187.112 238.082 188.72 237.07 190.007 236.76C188.72 236.046 187.689 235.735 184.378 233.116Z" fill="black"/>
</g>
<path d="M182.836 239.072C184.533 236.861 186.476 235.56 188.827 235.762" stroke="black" stroke-width="1.25333" stroke-miterlimit="10" stroke-linecap="round" stroke-linejoin="round"/>
<path d="M180.313 237.214C182.01 235.003 183.952 233.702 186.304 233.904" stroke="black" stroke-width="1.25333" stroke-miterlimit="10" stroke-linecap="round" stroke-linejoin="round"/>
<path d="M177.79 235.356C179.486 233.145 181.429 231.844 183.781 232.046" stroke="black" stroke-width="1.25333" stroke-miterlimit="10" stroke-linecap="round" stroke-linejoin="round"/>
<path d="M175.505 233.282C177.202 231.071 179.145 229.771 181.496 229.972" stroke="black" stroke-width="1.25333" stroke-miterlimit="10" stroke-linecap="round" stroke-linejoin="round"/>
<path d="M173.623 230.8C175.319 228.59 177.262 227.289 179.614 227.491" stroke="black" stroke-width="1.25333" stroke-miterlimit="10" stroke-linecap="round" stroke-linejoin="round"/>
<path d="M60.1554 169.136C60.1554 169.136 42.0377 159.452 39.1701 158.148L55.0024 148.837L51.6396 140.102C51.6396 140.102 28.3847 147.703 23.9298 150.111C21.5812 151.381 20.2442 153.209 20.2396 155.016C20.2311 158.028 22.0014 161.784 25.9709 165.168C34.4182 172.369 46.9832 179.219 58.1427 185.366C61.8842 187.393 66.1059 190.13 66.1059 190.13C67.3725 187.446 68.9643 178.099 60.1554 169.136Z" fill="#C76668"/>
<path d="M39.1702 158.148C36.8479 159.435 33.1057 160.811 30.572 161.145C30.572 161.145 35.3318 162.362 41.0209 159.058L39.1702 158.148Z" fill="#B0494C"/>
<path d="M78.6344 134.28L78.5152 133.972C74.8415 124.442 68.7078 124.203 58.7404 128.153C51.3758 131.071 45.4984 136.557 45.1065 143.927C44.8121 149.463 47.2141 154.866 51.4437 158.45C55.8919 162.218 61.9241 163.311 69.2242 160.498C69.2262 160.497 69.2288 160.496 69.2314 160.496C79.3174 158.928 82.3068 143.805 78.6344 134.28Z" fill="black"/>
<path d="M70.5877 131.529C72.8613 131.909 76.9466 135.685 80.4853 145.537C83.4853 153.886 81.5911 156.966 80.4708 158.074C79.3512 159.182 76.6153 159.826 73.9275 160.378L75.8428 165.346L64.0912 167.763L60.5821 158.525C60.5821 158.525 59.6522 160.542 56.2827 159.31C53.5007 158.294 51.6171 155.496 52.6037 153.225C53.5903 150.954 56.7602 150.247 58.8144 152.151C58.8144 152.151 60.3417 151.7 60.7632 148.379C60.7632 148.379 64.3125 147.714 67.2591 144.045C71.3655 138.931 70.7695 133.364 70.5877 131.529Z" fill="#C76668"/>
<path d="M68.3784 146.817C68.5951 147.419 68.3 148.075 67.7198 148.281C67.1402 148.489 66.4941 148.168 66.2774 147.565C66.0608 146.963 66.3558 146.308 66.9361 146.101C67.5163 145.894 68.1617 146.215 68.3784 146.817Z" fill="black"/>
<path d="M76.5866 140.418L73.9186 139.771C74.0707 139.022 74.7919 138.559 75.5289 138.738C76.2652 138.917 76.7394 139.67 76.5866 140.418Z" fill="black"/>
<path d="M65.9288 143.96L63.8911 145.801C63.3576 145.253 63.3813 144.397 63.9438 143.889C64.5062 143.38 65.3954 143.412 65.9288 143.96Z" fill="black"/>
<path d="M77.2227 143.242C77.4394 143.844 77.1443 144.5 76.5641 144.707C75.9839 144.914 75.3384 144.593 75.1217 143.991C74.9051 143.389 75.2001 142.733 75.7797 142.526C76.3599 142.319 77.006 142.64 77.2227 143.242Z" fill="black"/>
<path d="M73.5701 154.093C73.7868 154.696 73.4917 155.351 72.9115 155.558C72.3313 155.765 71.6858 155.444 71.4698 154.842C71.2525 154.24 71.5475 153.584 72.1277 153.377C72.7073 153.17 73.3534 153.491 73.5701 154.093Z" fill="#B0494C"/>
<path d="M71.3981 144.296L73.3094 150.736L76.4391 148.762L71.3981 144.296Z" fill="#B0494C"/>
<path d="M73.9274 160.378C71.1316 161.056 65.05 161.594 63.3613 159.758C63.3613 159.758 64.1707 161.009 66.3461 161.78C68.5228 162.551 74.5663 162.036 74.5663 162.036L73.9274 160.378Z" fill="#B0494C"/>
<path d="M58.8141 152.15L60.4929 156.504C62.1295 155.873 62.9442 154.035 62.3133 152.398L60.7629 148.378L58.8141 152.15Z" fill="black"/>
<path d="M110.804 16.4048C110.163 16.2672 109.607 16.2408 109.135 16.3278C108.662 16.4147 108.256 16.5787 107.918 16.8224C107.579 17.0641 107.301 17.3704 107.085 17.7379C106.868 18.106 106.685 18.5012 106.535 18.922C106.443 19.1598 106.347 19.4937 106.245 19.9258C106.143 20.3578 106.042 20.805 105.944 21.2667C105.843 21.7297 105.755 22.1841 105.68 22.6313C105.603 23.0785 105.548 23.4269 105.515 23.6766C105.46 24.1185 105.459 24.5518 105.516 24.9793C105.572 25.4054 105.704 25.7999 105.914 26.1608C106.122 26.5198 106.429 26.8379 106.834 27.1119C107.239 27.3872 107.753 27.5907 108.375 27.7244C108.865 27.8291 109.34 27.8719 109.798 27.8515C110.256 27.8317 110.672 27.7336 111.045 27.5571C111.419 27.3806 111.742 27.1145 112.017 26.7589C112.289 26.4032 112.487 25.9422 112.609 25.3764L110.232 24.8667C110.024 24.8212 109.86 24.7079 109.743 24.5248C109.624 24.3411 109.588 24.1455 109.632 23.938L110.276 20.9381C110.321 20.7306 110.434 20.5686 110.618 20.45C110.8 20.3315 110.996 20.2939 111.204 20.3387L118.052 21.8081C118.26 21.8522 118.422 21.9675 118.541 22.1499C118.659 22.3336 118.696 22.5286 118.651 22.7361L117.874 26.3591C117.615 27.5663 117.156 28.6023 116.497 29.4671C115.838 30.3312 115.04 31.0148 114.104 31.514C113.168 32.0139 112.127 32.3281 110.985 32.4578C109.843 32.5862 108.649 32.5184 107.403 32.2517C106.045 31.9606 104.877 31.4969 103.898 30.8627C102.919 30.2278 102.127 29.4816 101.523 28.6207C100.918 27.7613 100.512 26.8208 100.308 25.7999C100.102 24.7791 100.083 23.7437 100.249 22.6939C100.378 21.9128 100.537 21.079 100.727 20.1918C100.918 19.306 101.119 18.4597 101.331 17.6575C101.59 16.6288 102.029 15.6902 102.644 14.8459C103.26 14.0016 104.014 13.3094 104.909 12.7713C105.805 12.2339 106.832 11.8775 107.996 11.7017C109.158 11.5278 110.418 11.5858 111.776 11.8769C113.095 12.1607 114.243 12.6099 115.217 13.2224C116.191 13.8376 116.981 14.5192 117.59 15.272C118.198 16.0242 118.633 16.7974 118.896 17.5949C119.159 18.3912 119.241 19.1137 119.142 19.7631C119.124 19.937 119.035 20.0707 118.877 20.1655C118.719 20.2603 118.555 20.2887 118.386 20.2524L114.622 19.445C114.339 19.3837 114.135 19.2513 114.012 19.0472C113.887 18.843 113.768 18.6402 113.655 18.438C113.462 18.0408 113.171 17.6536 112.779 17.2722C112.387 16.8922 111.728 16.6031 110.804 16.4048Z" fill="black"/>
<path d="M124.966 29.0344C124.869 29.7641 125.007 30.3806 125.383 30.8857C125.758 31.3909 126.323 31.7241 127.078 31.8862C127.832 32.0482 128.484 31.9757 129.033 31.6688C129.581 31.3626 129.961 30.8574 130.172 30.152C130.271 29.8767 130.359 29.5613 130.436 29.2023C130.513 28.8447 130.562 28.5187 130.585 28.2282C130.683 27.4992 130.544 26.8827 130.169 26.3775C129.794 25.8724 129.229 25.5391 128.475 25.3771C127.72 25.2151 127.067 25.2875 126.518 25.5931C125.969 25.9014 125.59 26.4059 125.379 27.1106C125.28 27.3852 125.192 27.7027 125.116 28.0603C125.039 28.4192 124.989 28.7439 124.966 29.0344ZM135.705 29.2076C135.661 29.4947 135.593 29.8616 135.498 30.3035C135.403 30.7474 135.315 31.1077 135.236 31.3869C135.004 32.2853 134.614 33.0881 134.067 33.8007C133.519 34.5114 132.851 35.0936 132.064 35.5461C131.276 35.9985 130.38 36.2942 129.372 36.4332C128.366 36.5728 127.286 36.5188 126.136 36.2725C124.986 36.0242 123.98 35.6323 123.118 35.091C122.258 34.5509 121.561 33.9134 121.028 33.177C120.495 32.4414 120.125 31.6366 119.918 30.7632C119.711 29.8899 119.685 28.9975 119.843 28.0833C119.885 27.7962 119.953 27.4313 120.047 26.9881C120.143 26.5448 120.23 26.1826 120.31 25.904C120.522 25.0024 120.904 24.1969 121.451 23.4849C121.998 22.7743 122.67 22.1927 123.467 21.7429C124.265 21.2924 125.168 20.9927 126.177 20.8432C127.185 20.6957 128.266 20.7451 129.415 20.9914C130.566 21.2391 131.572 21.6369 132.43 22.1861C133.29 22.7361 133.99 23.3802 134.532 24.1179C135.074 24.8548 135.444 25.6597 135.642 26.5303C135.84 27.4023 135.859 28.2948 135.705 29.2076" fill="black"/>
<path d="M143.201 32.4754C143.157 32.6829 143.043 32.8455 142.859 32.9641C142.676 33.0826 142.481 33.1202 142.274 33.0747L138.708 32.3101C138.5 32.2653 138.338 32.152 138.219 31.9676C138.1 31.7845 138.064 31.5896 138.108 31.3821L140.726 19.1866C140.77 18.9791 140.884 18.8151 141.068 18.6973C141.25 18.5787 141.445 18.5405 141.653 18.5859L145.219 19.3506C145.427 19.3954 145.589 19.5093 145.708 19.6931C145.827 19.8762 145.863 20.0718 145.819 20.2792L143.201 32.4754ZM141.896 38.559C141.85 38.7664 141.737 38.9298 141.554 39.0483C141.37 39.1662 141.175 39.2031 140.967 39.159L137.403 38.3937C137.194 38.3489 137.031 38.2356 136.913 38.0525C136.794 37.8688 136.758 37.6731 136.803 37.4663L137.415 34.608C137.461 34.4005 137.574 34.2378 137.757 34.1193C137.941 34.0001 138.136 33.9639 138.344 34.008L141.909 34.7733C142.116 34.8181 142.279 34.9314 142.398 35.1144C142.517 35.2989 142.554 35.4938 142.509 35.7013L141.896 38.559Z" fill="black"/>
<path d="M110.722 69.7904C110.105 70.0103 109.617 70.2817 109.261 70.6031C108.903 70.9251 108.645 71.2782 108.485 71.6621C108.325 72.0468 108.249 72.4525 108.259 72.8806C108.267 73.3067 108.319 73.7394 108.413 74.1767C108.461 74.4263 108.554 74.7609 108.695 75.1831C108.834 75.6033 108.984 76.0373 109.142 76.4818C109.301 76.9277 109.465 77.3611 109.636 77.7813C109.806 78.2021 109.942 78.5275 110.044 78.7567C110.23 79.1624 110.458 79.5312 110.73 79.8638C111.002 80.1977 111.322 80.4631 111.69 80.6594C112.057 80.857 112.484 80.965 112.973 80.9854C113.462 81.0065 114.006 80.9097 114.606 80.6963C115.079 80.5283 115.505 80.315 115.883 80.0568C116.263 79.7986 116.565 79.4963 116.79 79.1499C117.014 78.8048 117.15 78.4076 117.197 77.9611C117.241 77.5152 117.167 77.0186 116.973 76.4733L114.683 77.2886C114.482 77.3598 114.285 77.3499 114.087 77.2551C113.89 77.1622 113.757 77.0153 113.685 76.8151L112.656 73.9245C112.585 73.7249 112.596 73.5267 112.689 73.3291C112.783 73.1321 112.929 72.9978 113.129 72.9267L119.728 70.5767C119.927 70.5056 120.126 70.5175 120.323 70.611C120.52 70.7052 120.655 70.8507 120.726 71.0503L121.969 74.5409C122.383 75.704 122.537 76.827 122.431 77.9097C122.325 78.9918 122.005 79.9916 121.472 80.909C120.938 81.8258 120.219 82.6399 119.315 83.3505C118.41 84.0618 117.359 84.6308 116.159 85.0583C114.851 85.5246 113.613 85.7445 112.448 85.7195C111.282 85.6945 110.215 85.4758 109.249 85.0622C108.282 84.6486 107.443 84.0618 106.731 83.3004C106.02 82.5397 105.46 81.6697 105.049 80.689C104.748 79.9567 104.445 79.1644 104.14 78.3095C103.836 77.4559 103.563 76.6307 103.321 75.8364C103.002 74.8241 102.88 73.7967 102.961 72.7541C103.04 71.7122 103.318 70.7269 103.797 69.7983C104.276 68.8709 104.963 68.0266 105.861 67.2666C106.757 66.5072 107.86 65.894 109.169 65.4277C110.44 64.9746 111.652 64.7546 112.802 64.7632C113.954 64.7737 114.986 64.9397 115.898 65.2591C116.811 65.5792 117.588 66.0093 118.231 66.5487C118.873 67.0874 119.323 67.6597 119.579 68.2644C119.656 68.4211 119.651 68.5818 119.567 68.7451C119.481 68.9085 119.358 69.0198 119.194 69.0784L115.568 70.3693C115.295 70.4661 115.052 70.4608 114.839 70.3515C114.626 70.2428 114.418 70.1335 114.215 70.0215C113.844 69.7851 113.391 69.6079 112.858 69.49C112.324 69.3728 111.612 69.4736 110.722 69.7904Z" fill="black"/>
<path d="M129.409 73.0893C129.71 73.7611 130.151 74.2129 130.736 74.4447C131.321 74.6772 131.975 74.664 132.704 74.4052C133.43 74.1457 133.947 73.742 134.253 73.1914C134.559 72.6434 134.616 72.0138 134.425 71.3032C134.364 71.0173 134.272 70.7018 134.149 70.3567C134.027 70.0116 133.898 69.7087 133.765 69.4498C133.464 68.7787 133.022 68.3262 132.438 68.0937C131.853 67.8613 131.197 67.8751 130.47 68.1339C129.742 68.3928 129.227 68.7971 128.92 69.3464C128.614 69.8964 128.557 70.5253 128.748 71.236C128.809 71.5218 128.901 71.8373 129.024 72.1817C129.147 72.5275 129.274 72.8298 129.409 73.0893ZM138.633 67.5925C138.749 67.8586 138.883 68.2057 139.035 68.6325C139.187 69.0593 139.302 69.4123 139.381 69.6915C139.656 70.5774 139.747 71.4658 139.656 72.3589C139.563 73.252 139.301 74.0983 138.87 74.8965C138.437 75.6961 137.83 76.4192 137.046 77.0673C136.264 77.7147 135.317 78.2357 134.209 78.6302C133.099 79.0254 132.038 79.2203 131.021 79.2124C130.005 79.2058 129.077 79.0293 128.236 78.6842C127.396 78.3384 126.659 77.8478 126.023 77.2135C125.388 76.5799 124.896 75.8331 124.55 74.9736C124.434 74.7075 124.3 74.3611 124.149 73.9337C123.997 73.5069 123.88 73.1532 123.802 72.8739C123.509 71.9947 123.409 71.1102 123.5 70.2171C123.592 69.324 123.859 68.4764 124.3 67.6742C124.742 66.872 125.353 66.1423 126.132 65.4856C126.912 64.829 127.856 64.3028 128.966 63.9076C130.074 63.5131 131.139 63.3234 132.158 63.3399C133.178 63.3564 134.112 63.5348 134.96 63.878C135.809 64.2211 136.547 64.7098 137.174 65.3473C137.801 65.9842 138.286 66.7331 138.633 67.5925" fill="black"/>
<path d="M148.816 72.2916C148.888 72.4918 148.877 72.69 148.783 72.8869C148.689 73.0845 148.542 73.2182 148.342 73.29L144.907 74.5131C144.707 74.5835 144.509 74.5736 144.312 74.4795C144.115 74.3859 143.981 74.2397 143.909 74.0389L142.928 71.2852C142.858 71.0856 142.868 70.8874 142.963 70.6898C143.056 70.4922 143.202 70.3585 143.403 70.2874L146.838 69.0637C147.038 68.9919 147.236 69.0038 147.434 69.098C147.631 69.1915 147.765 69.3377 147.836 69.5372L148.816 72.2916ZM146.729 66.4299C146.8 66.6295 146.789 66.8284 146.696 67.0246C146.601 67.2222 146.455 67.3566 146.254 67.4284L142.82 68.6508C142.62 68.7219 142.422 68.7107 142.224 68.6178C142.027 68.5236 141.894 68.3774 141.821 68.1766L137.637 56.4263C137.566 56.2261 137.577 56.0278 137.671 55.8309C137.764 55.634 137.91 55.4996 138.111 55.4278L141.546 54.2041C141.746 54.133 141.944 54.1455 142.142 54.2384C142.339 54.3319 142.473 54.4788 142.544 54.679L146.729 66.4299Z" fill="black"/>
<path d="M59.0855 119.681L55.5718 110.674L58.3992 102.514V97.5191L49.747 102.514V107.51L53.4669 116.351C53.5294 116.46 53.6197 116.531 53.7198 116.576L53.7178 116.579L59.0855 119.681Z" fill="black"/>
<g opacity="0.199997">
<path d="M59.0855 119.681L55.5718 110.674L58.3992 102.514V97.5191L49.747 102.514V107.51L53.4669 116.351C53.5294 116.46 53.6197 116.531 53.7198 116.576L53.7178 116.579L59.0855 119.681Z" fill="black"/>
</g>
<path d="M75.5791 66.552C75.5791 64.8976 74.4179 62.8869 72.9855 62.059L70.8733 60.8399C69.4415 60.0127 67.1179 60.0127 65.6861 60.8399L39.0703 76.1467C37.6378 76.9739 36.476 78.9846 36.476 80.6397V110.007C36.476 111.662 37.6378 113.672 39.0703 114.5L41.1818 115.719C42.6149 116.547 44.9379 116.547 46.3703 115.719L55.1799 110.655L58.8918 119.485C59.1289 119.896 59.7395 119.837 59.8949 119.389L63.8183 105.665L72.9855 100.413C74.4186 99.5853 75.5791 97.5746 75.5791 95.9195V66.552Z" fill="black"/>
<g opacity="0.199997">
<path d="M36.4763 110.007C36.4763 111.662 37.6381 113.672 39.0699 114.5L41.1821 115.719C42.4769 116.467 44.4916 116.532 45.9267 115.928C44.7063 116.39 43.7763 115.702 43.7763 114.222L43.7757 84.8542C43.7757 84.0269 44.0661 83.1108 44.5357 82.2974L37.2357 78.083C36.7661 78.8957 36.4763 79.8125 36.4763 80.6397V110.007Z" fill="black"/>
</g>
<g opacity="0.5">
<path d="M75.4942 65.815C75.1919 64.7138 74.1875 64.3628 72.9895 65.0523L46.3684 80.3637C45.6545 80.7754 45.0012 81.4768 44.5408 82.3L37.244 78.0889C37.7163 77.2656 38.3577 76.5635 39.071 76.1526L65.6802 60.8412C67.1206 60.0186 69.4435 60.0186 70.872 60.8412L72.9895 62.0636C74.2119 62.7656 75.24 64.3384 75.4942 65.815Z" fill="white"/>
</g>
<path d="M48.5648 93.1178C48.5674 91.0511 49.0726 88.8889 49.8978 86.9829L49.8945 86.9783L49.9116 86.9374C50.8765 84.7271 52.2833 82.8718 53.8429 81.9768C56.1184 80.6648 58.0534 82.8178 58.7844 85.8244C58.8575 86.1274 59.2132 86.1445 59.2652 85.8468C59.9535 81.9201 61.9444 77.3191 64.2865 75.9801C65.8454 75.0851 67.2496 75.3268 68.2098 76.4313L68.2269 76.4524L68.2243 76.4603C69.0449 77.4212 69.5448 79.0071 69.5422 81.0738C69.5336 87.4782 65.6748 93.2285 62.4384 99.2844L58.9504 105.134L55.6303 103.194C52.4058 100.847 48.5562 99.5222 48.5648 93.1178Z" fill="#FAFAFA"/>
<path d="M63.8148 91.0222L62.325 87.112C62.2558 86.8565 62.0128 86.6846 61.7467 86.682C61.4767 86.6892 61.2488 86.8782 61.1915 87.141L58.8837 96.1166L57.0469 91.0894C56.9613 90.8562 56.7433 90.7067 56.4844 90.7067H56.4765C56.2223 90.716 56.005 90.8872 55.9365 91.1322L54.5685 95.9875L49.8219 98.728L49.9326 98.8906C50.0761 99.1007 50.2421 99.3148 50.4404 99.5466L50.5391 99.6619L55.3582 96.8799C55.4906 96.8035 55.5854 96.6803 55.6276 96.5321L56.57 93.1877L58.4761 98.4026C58.567 98.6483 58.8008 98.7945 59.0635 98.7833C59.3197 98.7668 59.5391 98.5791 59.5944 98.3262L61.8231 89.7129L62.8868 92.0608C62.9349 92.2347 63.062 92.3789 63.2279 92.4474C63.3939 92.5159 63.5862 92.5034 63.7423 92.4132L67.5372 90.2213L67.5609 90.1673C67.7467 89.757 67.9219 89.3454 68.0878 88.9344L68.2854 88.4424L63.8148 91.0222Z" fill="black"/>
</svg>
