<svg width="506" height="388" viewBox="0 0 506 388" fill="none" xmlns="http://www.w3.org/2000/svg">
<path d="M446.852 202.321L438.255 208.277V277.921L446.852 283.866L505.698 324.644V161.543L446.852 202.321Z" fill="#4746A5"/>
<path d="M438.254 318.949C438.254 327.595 431.252 334.618 422.596 334.618H192.359C183.704 334.618 176.696 327.595 176.696 318.949V167.239C176.696 158.593 183.704 151.581 192.359 151.581H422.596C431.252 151.581 438.254 158.593 438.254 167.239V318.949Z" fill="#8AB4E4"/>
<path d="M422.186 75.7851C422.186 104.542 398.863 127.854 370.112 127.854C341.349 127.854 318.047 104.542 318.047 75.7851C318.047 47.0392 341.349 23.7158 370.112 23.7158C398.863 23.7158 422.186 47.0392 422.186 75.7851Z" fill="#8AB4E4"/>
<path d="M412.088 96.3749C400.65 96.3749 391.362 87.0979 391.362 75.654C391.362 64.2101 400.65 54.9329 412.088 54.9329C423.533 54.9329 432.816 64.2101 432.816 75.654C432.816 87.0979 423.533 96.3749 412.088 96.3749V96.3749ZM370.24 138.481C358.799 138.481 349.522 129.204 349.522 117.76C349.522 106.316 358.799 97.0392 370.24 97.0392C381.684 97.0392 390.966 106.316 390.966 117.76C390.966 129.204 381.684 138.481 370.24 138.481ZM369.983 13.0881C381.423 13.0881 390.7 22.376 390.7 33.809C390.7 45.2529 381.423 54.5301 369.983 54.5301C358.534 54.5301 349.255 45.2529 349.255 33.809C349.255 22.376 358.534 13.0881 369.983 13.0881ZM328.134 96.6471C316.694 96.6471 307.411 87.3702 307.411 75.9153C307.411 64.4714 316.694 55.1942 328.134 55.1942C339.572 55.1942 348.852 64.4714 348.852 75.9153C348.852 87.3702 339.572 96.6471 328.134 96.6471ZM370.112 -0.000126294C328.251 -0.000126294 294.318 33.9288 294.318 75.7846C294.318 117.651 328.251 151.58 370.112 151.58C411.971 151.58 445.904 117.651 445.904 75.7846C445.904 33.9288 411.971 -0.000126294 370.112 -0.000126294Z" fill="#4746A5"/>
<path d="M271.489 88.9492C271.489 110.933 253.673 128.747 231.682 128.747C209.701 128.747 191.876 110.933 191.876 88.9492C191.876 66.9651 209.701 49.1405 231.682 49.1405C253.673 49.1405 271.489 66.9651 271.489 88.9492Z" fill="#8AB4E4"/>
<path d="M266.371 105.957C256.916 105.957 249.251 98.2913 249.251 88.84C249.251 79.3778 256.916 71.7122 266.371 71.7122C275.836 71.7122 283.5 79.3778 283.5 88.84C283.5 98.2913 275.836 105.957 266.371 105.957ZM231.79 140.757C222.334 140.757 214.666 133.091 214.666 123.629C214.666 114.178 222.334 106.512 231.79 106.512C241.251 106.512 248.916 114.178 248.916 123.629C248.916 133.091 241.251 140.757 231.79 140.757ZM231.573 37.13C241.029 37.13 248.698 44.7957 248.698 54.2579C248.698 63.7201 241.029 71.3855 231.573 71.3855C222.113 71.3855 214.449 63.7201 214.449 54.2579C214.449 44.7957 222.113 37.13 231.573 37.13ZM196.989 106.186C187.538 106.186 179.863 98.5091 179.863 89.0578C179.863 79.5956 187.538 71.93 196.989 71.93C206.453 71.93 214.114 79.5956 214.114 89.0578C214.114 98.5091 206.453 106.186 196.989 106.186ZM231.682 26.3178C197.087 26.3178 169.046 54.345 169.046 88.9489C169.046 123.542 197.087 151.58 231.682 151.58C266.276 151.58 294.318 123.542 294.318 88.9489C294.318 54.345 266.276 26.3178 231.682 26.3178Z" fill="#4746A5"/>
<path d="M294.318 303.073H208.004V189.941H294.318V303.073Z" fill="#4746A5"/>
<path d="M413.264 279.228H326.959V213.787H413.264V279.228Z" fill="#4746A5"/>
<path d="M223.123 387.49H0V190.279H223.123V387.49Z" fill="#4746A5"/>
<path d="M186.599 373.75H36.511V204.159H186.599V373.75Z" fill="white"/>
<path d="M22.6509 217.892H8.45239V203.694H22.6509V217.892Z" fill="white"/>
<path d="M22.6509 240.2H8.45239V226.01H22.6509V240.2Z" fill="white"/>
<path d="M22.6509 262.521H8.45239V248.317H22.6509V262.521Z" fill="white"/>
<path d="M22.6509 284.829H8.45239V270.638H22.6509V284.829Z" fill="white"/>
<path d="M22.6509 307.137H8.45239V292.946H22.6509V307.137" fill="white"/>
<path d="M22.6509 329.452H8.45239V315.254H22.6509V329.452Z" fill="white"/>
<path d="M22.6509 351.76H8.45239V337.562H22.6509V351.76Z" fill="white"/>
<path d="M22.6509 374.074H8.45239V359.869H22.6509V374.074Z" fill="white"/>
<path d="M214.657 217.892H200.459V203.694H214.657V217.892Z" fill="white"/>
<path d="M214.657 240.2H200.459V226.01H214.657V240.2Z" fill="white"/>
<path d="M214.657 262.521H200.459V248.317H214.657V262.521Z" fill="white"/>
<path d="M214.657 284.829H200.459V270.638H214.657V284.829Z" fill="white"/>
<path d="M214.657 307.137H200.459V292.946H214.657V307.137" fill="white"/>
<path d="M214.657 329.452H200.459V315.254H214.657V329.452Z" fill="white"/>
<path d="M214.657 351.76H200.459V337.562H214.657V351.76Z" fill="white"/>
<path d="M214.657 374.074H200.459V359.869H214.657V374.074Z" fill="white"/>
<path d="M96.6602 287.386V256.102L123.751 271.751L150.854 287.386L123.751 303.036L96.6602 318.671V287.386Z" fill="#F57BC3"/>
<path d="M113.879 239.241C86.9712 239.241 65.0827 261.133 65.0827 288.042C65.0827 314.951 86.9712 336.843 113.879 336.843C140.794 336.843 162.682 314.951 162.682 288.042C162.682 261.133 140.794 239.241 113.879 239.241ZM113.879 344.27C82.8767 344.27 57.6519 319.045 57.6519 288.042C57.6519 257.039 82.8767 231.815 113.879 231.815C144.883 231.815 170.111 257.039 170.111 288.042C170.111 319.045 144.883 344.27 113.879 344.27" fill="#F57BC3"/>
</svg>
